<?xml version="1.0" encoding="UTF-8" standalone="no"?>
<!DOCTYPE svg PUBLIC "-//W3C//DTD SVG 1.1//EN"
 "http://www.w3.org/Graphics/SVG/1.1/DTD/svg11.dtd">
<!-- Generated by graphviz version 2.38.0 (20140413.2041)
 -->
<!-- Pages: 1 -->
<svg width="699pt" height="836pt"
 viewBox="0.00 0.00 699.29 836.00" xmlns="http://www.w3.org/2000/svg" xmlns:xlink="http://www.w3.org/1999/xlink">
<g id="graph0" class="graph" transform="scale(1 1) rotate(0) translate(4 832)">
<polygon fill="white" stroke="none" points="-4,4 -4,-832 695.291,-832 695.291,4 -4,4"/>
<!-- &lt;Object&gt; -->
<g id="node1" class="node"><title>&lt;Object&gt;</title>
<ellipse fill="none" stroke="black" cx="386.497" cy="-738" rx="46.2923" ry="18"/>
<text text-anchor="middle" x="386.497" y="-734.3" font-family="Times New Roman,serif" font-size="14.00">&lt;Object&gt;</text>
</g>
<!-- &#39;{&#39; &#39;}&#39; -->
<g id="node2" class="node"><title>&#39;{&#39; &#39;}&#39;</title>
<ellipse fill="none" stroke="black" cx="457.497" cy="-666" rx="29.795" ry="18"/>
<text text-anchor="middle" x="457.497" y="-662.3" font-family="Times New Roman,serif" font-size="14.00">&#39;{&#39; &#39;}&#39;</text>
</g>
<!-- &lt;Object&gt;&#45;&gt;&#39;{&#39; &#39;}&#39; -->
<g id="edge1" class="edge"><title>&lt;Object&gt;&#45;&gt;&#39;{&#39; &#39;}&#39;</title>
<path fill="none" stroke="black" d="M402.608,-721.116C412.222,-711.638 424.572,-699.462 435.122,-689.06"/>
<polygon fill="black" stroke="black" points="437.757,-691.377 442.421,-681.864 432.843,-686.392 437.757,-691.377"/>
</g>
<!-- &#39;{&#39; &lt;Members&gt; &#39;}&#39; -->
<g id="node3" class="node"><title>&#39;{&#39; &lt;Members&gt; &#39;}&#39;</title>
<ellipse fill="none" stroke="black" cx="332.497" cy="-666" rx="77.1866" ry="18"/>
<text text-anchor="middle" x="332.497" y="-662.3" font-family="Times New Roman,serif" font-size="14.00">&#39;{&#39; &lt;Members&gt; &#39;}&#39;</text>
</g>
<!-- &lt;Object&gt;&#45;&gt;&#39;{&#39; &lt;Members&gt; &#39;}&#39; -->
<g id="edge2" class="edge"><title>&lt;Object&gt;&#45;&gt;&#39;{&#39; &lt;Members&gt; &#39;}&#39;</title>
<path fill="none" stroke="black" d="M373.7,-720.411C367.139,-711.906 359.013,-701.372 351.716,-691.914"/>
<polygon fill="black" stroke="black" points="354.457,-689.736 345.578,-683.956 348.914,-694.012 354.457,-689.736"/>
</g>
<!-- &lt;Members&gt; -->
<g id="node6" class="node"><title>&lt;Members&gt;</title>
<ellipse fill="none" stroke="black" cx="358.497" cy="-594" rx="55.7903" ry="18"/>
<text text-anchor="middle" x="358.497" y="-590.3" font-family="Times New Roman,serif" font-size="14.00">&lt;Members&gt;</text>
</g>
<!-- &#39;{&#39; &lt;Members&gt; &#39;}&#39;&#45;&gt;&lt;Members&gt; -->
<g id="edge5" class="edge"><title>&#39;{&#39; &lt;Members&gt; &#39;}&#39;&#45;&gt;&lt;Members&gt;</title>
<path fill="none" stroke="black" d="M338.791,-648.055C341.717,-640.176 345.268,-630.617 348.545,-621.794"/>
<polygon fill="black" stroke="black" points="351.88,-622.868 352.081,-612.275 345.318,-620.431 351.88,-622.868"/>
</g>
<!-- &lt;Json&gt; -->
<g id="node4" class="node"><title>&lt;Json&gt;</title>
<ellipse fill="none" stroke="black" cx="450.497" cy="-810" rx="38.1938" ry="18"/>
<text text-anchor="middle" x="450.497" y="-806.3" font-family="Times New Roman,serif" font-size="14.00">&lt;Json&gt;</text>
</g>
<!-- &lt;Json&gt;&#45;&gt;&lt;Object&gt; -->
<g id="edge3" class="edge"><title>&lt;Json&gt;&#45;&gt;&lt;Object&gt;</title>
<path fill="none" stroke="black" d="M435.975,-793.116C427.826,-784.204 417.497,-772.906 408.387,-762.942"/>
<polygon fill="black" stroke="black" points="410.737,-760.326 401.406,-755.307 405.571,-765.049 410.737,-760.326"/>
</g>
<!-- &lt;Array&gt; -->
<g id="node5" class="node"><title>&lt;Array&gt;</title>
<ellipse fill="none" stroke="black" cx="515.497" cy="-234" rx="42.4939" ry="18"/>
<text text-anchor="middle" x="515.497" y="-230.3" font-family="Times New Roman,serif" font-size="14.00">&lt;Array&gt;</text>
</g>
<!-- &lt;Json&gt;&#45;&gt;&lt;Array&gt; -->
<g id="edge4" class="edge"><title>&lt;Json&gt;&#45;&gt;&lt;Array&gt;</title>
<path fill="none" stroke="black" d="M463.651,-792.634C482.644,-767.299 515.497,-716.345 515.497,-667 515.497,-667 515.497,-667 515.497,-377 515.497,-336.996 515.497,-290.653 515.497,-262.08"/>
<polygon fill="black" stroke="black" points="518.997,-262.049 515.497,-252.049 511.997,-262.049 518.997,-262.049"/>
</g>
<!-- &#39;[&#39; &#39;]&#39; -->
<g id="node16" class="node"><title>&#39;[&#39; &#39;]&#39;</title>
<ellipse fill="none" stroke="black" cx="500.497" cy="-162" rx="27" ry="18"/>
<text text-anchor="middle" x="500.497" y="-158.3" font-family="Times New Roman,serif" font-size="14.00">&#39;[&#39; &#39;]&#39;</text>
</g>
<!-- &lt;Array&gt;&#45;&gt;&#39;[&#39; &#39;]&#39; -->
<g id="edge17" class="edge"><title>&lt;Array&gt;&#45;&gt;&#39;[&#39; &#39;]&#39;</title>
<path fill="none" stroke="black" d="M511.866,-216.055C510.196,-208.261 508.173,-198.822 506.3,-190.079"/>
<polygon fill="black" stroke="black" points="509.717,-189.32 504.199,-180.275 502.872,-190.787 509.717,-189.32"/>
</g>
<!-- &#39;[&#39; &lt;Elements&gt; &#39;]&#39; -->
<g id="node17" class="node"><title>&#39;[&#39; &lt;Elements&gt; &#39;]&#39;</title>
<ellipse fill="none" stroke="black" cx="618.497" cy="-162" rx="72.5877" ry="18"/>
<text text-anchor="middle" x="618.497" y="-158.3" font-family="Times New Roman,serif" font-size="14.00">&#39;[&#39; &lt;Elements&gt; &#39;]&#39;</text>
</g>
<!-- &lt;Array&gt;&#45;&gt;&#39;[&#39; &lt;Elements&gt; &#39;]&#39; -->
<g id="edge18" class="edge"><title>&lt;Array&gt;&#45;&gt;&#39;[&#39; &lt;Elements&gt; &#39;]&#39;</title>
<path fill="none" stroke="black" d="M537.341,-218.155C551.591,-208.47 570.436,-195.663 586.38,-184.827"/>
<polygon fill="black" stroke="black" points="588.588,-187.559 594.891,-179.043 584.653,-181.769 588.588,-187.559"/>
</g>
<!-- &lt;Pair&gt; -->
<g id="node7" class="node"><title>&lt;Pair&gt;</title>
<ellipse fill="none" stroke="black" cx="317.497" cy="-450" rx="35.9954" ry="18"/>
<text text-anchor="middle" x="317.497" y="-446.3" font-family="Times New Roman,serif" font-size="14.00">&lt;Pair&gt;</text>
</g>
<!-- &lt;Members&gt;&#45;&gt;&lt;Pair&gt; -->
<g id="edge6" class="edge"><title>&lt;Members&gt;&#45;&gt;&lt;Pair&gt;</title>
<path fill="none" stroke="black" d="M321.495,-580.199C303.278,-571.806 283.014,-558.835 272.497,-540 264.697,-526.03 266.981,-519.019 272.497,-504 276.746,-492.432 284.762,-481.662 292.866,-472.892"/>
<polygon fill="black" stroke="black" points="295.395,-475.312 299.918,-465.731 290.408,-470.401 295.395,-475.312"/>
</g>
<!-- &lt;Pair&gt; &#39;,&#39; &lt;Members&gt; -->
<g id="node8" class="node"><title>&lt;Pair&gt; &#39;,&#39; &lt;Members&gt;</title>
<ellipse fill="none" stroke="black" cx="373.497" cy="-522" rx="91.784" ry="18"/>
<text text-anchor="middle" x="373.497" y="-518.3" font-family="Times New Roman,serif" font-size="14.00">&lt;Pair&gt; &#39;,&#39; &lt;Members&gt;</text>
</g>
<!-- &lt;Members&gt;&#45;&gt;&lt;Pair&gt; &#39;,&#39; &lt;Members&gt; -->
<g id="edge7" class="edge"><title>&lt;Members&gt;&#45;&gt;&lt;Pair&gt; &#39;,&#39; &lt;Members&gt;</title>
<path fill="none" stroke="black" d="M356.289,-575.697C357.156,-567.898 358.945,-558.509 361.164,-549.829"/>
<polygon fill="black" stroke="black" points="364.561,-550.681 363.937,-540.104 357.829,-548.761 364.561,-550.681"/>
</g>
<!-- String &#39;:&#39; &lt;Value&gt; -->
<g id="node9" class="node"><title>String &#39;:&#39; &lt;Value&gt;</title>
<ellipse fill="none" stroke="black" cx="317.497" cy="-378" rx="74.187" ry="18"/>
<text text-anchor="middle" x="317.497" y="-374.3" font-family="Times New Roman,serif" font-size="14.00">String &#39;:&#39; &lt;Value&gt;</text>
</g>
<!-- &lt;Pair&gt;&#45;&gt;String &#39;:&#39; &lt;Value&gt; -->
<g id="edge8" class="edge"><title>&lt;Pair&gt;&#45;&gt;String &#39;:&#39; &lt;Value&gt;</title>
<path fill="none" stroke="black" d="M317.497,-431.697C317.497,-423.983 317.497,-414.712 317.497,-406.112"/>
<polygon fill="black" stroke="black" points="320.997,-406.104 317.497,-396.104 313.997,-406.104 320.997,-406.104"/>
</g>
<!-- &lt;Pair&gt; &#39;,&#39; &lt;Members&gt;&#45;&gt;&lt;Members&gt; -->
<g id="edge24" class="edge"><title>&lt;Pair&gt; &#39;,&#39; &lt;Members&gt;&#45;&gt;&lt;Members&gt;</title>
<path fill="none" stroke="black" d="M375.708,-540.275C374.839,-548.115 373.035,-557.567 370.799,-566.29"/>
<polygon fill="black" stroke="black" points="367.391,-565.478 368.006,-576.055 374.122,-567.403 367.391,-565.478"/>
</g>
<!-- &lt;Pair&gt; &#39;,&#39; &lt;Members&gt;&#45;&gt;&lt;Pair&gt; -->
<g id="edge25" class="edge"><title>&lt;Pair&gt; &#39;,&#39; &lt;Members&gt;&#45;&gt;&lt;Pair&gt;</title>
<path fill="none" stroke="black" d="M359.941,-504.055C353.031,-495.418 344.505,-484.76 336.912,-475.268"/>
<polygon fill="black" stroke="black" points="339.523,-472.929 330.543,-467.307 334.057,-477.302 339.523,-472.929"/>
</g>
<!-- &lt;Value&gt; -->
<g id="node10" class="node"><title>&lt;Value&gt;</title>
<ellipse fill="none" stroke="black" cx="304.497" cy="-306" rx="42.4939" ry="18"/>
<text text-anchor="middle" x="304.497" y="-302.3" font-family="Times New Roman,serif" font-size="14.00">&lt;Value&gt;</text>
</g>
<!-- String &#39;:&#39; &lt;Value&gt;&#45;&gt;&lt;Value&gt; -->
<g id="edge9" class="edge"><title>String &#39;:&#39; &lt;Value&gt;&#45;&gt;&lt;Value&gt;</title>
<path fill="none" stroke="black" d="M314.284,-359.697C312.851,-351.983 311.129,-342.712 309.532,-334.112"/>
<polygon fill="black" stroke="black" points="312.941,-333.297 307.674,-324.104 306.058,-334.575 312.941,-333.297"/>
</g>
<!-- &lt;Value&gt;&#45;&gt;&lt;Object&gt; -->
<g id="edge10" class="edge"><title>&lt;Value&gt;&#45;&gt;&lt;Object&gt;</title>
<path fill="none" stroke="black" d="M278.738,-320.308C263.57,-329.462 245.296,-343.023 234.497,-360 212.789,-394.128 215.497,-408.553 215.497,-449 215.497,-595 215.497,-595 215.497,-595 215.497,-636.886 217.277,-653.989 246.497,-684 269.769,-707.903 304.903,-721.16 334.151,-728.438"/>
<polygon fill="black" stroke="black" points="333.691,-731.924 344.222,-730.771 335.27,-725.105 333.691,-731.924"/>
</g>
<!-- &lt;Value&gt;&#45;&gt;&lt;Array&gt; -->
<g id="edge13" class="edge"><title>&lt;Value&gt;&#45;&gt;&lt;Array&gt;</title>
<path fill="none" stroke="black" d="M337.003,-294.216C373.741,-282.028 433.64,-262.156 473.794,-248.835"/>
<polygon fill="black" stroke="black" points="474.911,-252.152 483.3,-245.681 472.707,-245.508 474.911,-252.152"/>
</g>
<!-- String -->
<g id="node11" class="node"><title>String</title>
<ellipse fill="none" stroke="black" cx="32.4971" cy="-234" rx="32.4942" ry="18"/>
<text text-anchor="middle" x="32.4971" y="-230.3" font-family="Times New Roman,serif" font-size="14.00">String</text>
</g>
<!-- &lt;Value&gt;&#45;&gt;String -->
<g id="edge11" class="edge"><title>&lt;Value&gt;&#45;&gt;String</title>
<path fill="none" stroke="black" d="M266.153,-298.092C220.09,-289.354 140.736,-272.893 74.4971,-252 72.0683,-251.234 69.5822,-250.39 67.0919,-249.499"/>
<polygon fill="black" stroke="black" points="68.1717,-246.166 57.5801,-245.905 65.6971,-252.714 68.1717,-246.166"/>
</g>
<!-- Number -->
<g id="node12" class="node"><title>Number</title>
<ellipse fill="none" stroke="black" cx="123.497" cy="-234" rx="40.0939" ry="18"/>
<text text-anchor="middle" x="123.497" y="-230.3" font-family="Times New Roman,serif" font-size="14.00">Number</text>
</g>
<!-- &lt;Value&gt;&#45;&gt;Number -->
<g id="edge12" class="edge"><title>&lt;Value&gt;&#45;&gt;Number</title>
<path fill="none" stroke="black" d="M274.202,-293.284C243.517,-281.417 195.934,-263.014 162.46,-250.068"/>
<polygon fill="black" stroke="black" points="163.579,-246.749 152.989,-246.406 161.054,-253.277 163.579,-246.749"/>
</g>
<!-- true -->
<g id="node13" class="node"><title>true</title>
<ellipse fill="none" stroke="black" cx="208.497" cy="-234" rx="27" ry="18"/>
<text text-anchor="middle" x="208.497" y="-230.3" font-family="Times New Roman,serif" font-size="14.00">true</text>
</g>
<!-- &lt;Value&gt;&#45;&gt;true -->
<g id="edge14" class="edge"><title>&lt;Value&gt;&#45;&gt;true</title>
<path fill="none" stroke="black" d="M284.138,-290.155C269.649,-279.59 250.063,-265.308 234.451,-253.925"/>
<polygon fill="black" stroke="black" points="236.387,-251.005 226.245,-247.941 232.263,-256.661 236.387,-251.005"/>
</g>
<!-- false -->
<g id="node14" class="node"><title>false</title>
<ellipse fill="none" stroke="black" cx="280.497" cy="-234" rx="27.0966" ry="18"/>
<text text-anchor="middle" x="280.497" y="-230.3" font-family="Times New Roman,serif" font-size="14.00">false</text>
</g>
<!-- &lt;Value&gt;&#45;&gt;false -->
<g id="edge15" class="edge"><title>&lt;Value&gt;&#45;&gt;false</title>
<path fill="none" stroke="black" d="M298.687,-288.055C295.946,-280.059 292.611,-270.331 289.548,-261.4"/>
<polygon fill="black" stroke="black" points="292.807,-260.113 286.253,-251.789 286.186,-262.384 292.807,-260.113"/>
</g>
<!-- null -->
<g id="node15" class="node"><title>null</title>
<ellipse fill="none" stroke="black" cx="352.497" cy="-234" rx="27" ry="18"/>
<text text-anchor="middle" x="352.497" y="-230.3" font-family="Times New Roman,serif" font-size="14.00">null</text>
</g>
<!-- &lt;Value&gt;&#45;&gt;null -->
<g id="edge16" class="edge"><title>&lt;Value&gt;&#45;&gt;null</title>
<path fill="none" stroke="black" d="M315.872,-288.411C321.816,-279.744 329.203,-268.971 335.783,-259.375"/>
<polygon fill="black" stroke="black" points="338.765,-261.215 341.534,-250.988 332.992,-257.256 338.765,-261.215"/>
</g>
<!-- &lt;Elements&gt; -->
<g id="node18" class="node"><title>&lt;Elements&gt;</title>
<ellipse fill="none" stroke="black" cx="489.497" cy="-90" rx="53.8905" ry="18"/>
<text text-anchor="middle" x="489.497" y="-86.3" font-family="Times New Roman,serif" font-size="14.00">&lt;Elements&gt;</text>
</g>
<!-- &#39;[&#39; &lt;Elements&gt; &#39;]&#39;&#45;&gt;&lt;Elements&gt; -->
<g id="edge19" class="edge"><title>&#39;[&#39; &lt;Elements&gt; &#39;]&#39;&#45;&gt;&lt;Elements&gt;</title>
<path fill="none" stroke="black" d="M589.547,-145.291C570.608,-135.014 545.722,-121.51 525.508,-110.541"/>
<polygon fill="black" stroke="black" points="527.046,-107.393 516.588,-105.7 523.708,-113.546 527.046,-107.393"/>
</g>
<!-- &lt;Elements&gt;&#45;&gt;&lt;Value&gt; -->
<g id="edge20" class="edge"><title>&lt;Elements&gt;&#45;&gt;&lt;Value&gt;</title>
<path fill="none" stroke="black" d="M481.12,-108.063C476.131,-118.392 469.767,-131.869 464.497,-144 443.911,-191.386 457.172,-214.629 421.497,-252 402.28,-272.131 373.992,-285.23 350.046,-293.369"/>
<polygon fill="black" stroke="black" points="348.882,-290.067 340.43,-296.456 351.021,-296.732 348.882,-290.067"/>
</g>
<!-- &lt;Value&gt; &#39;,&#39; &lt;Elements&gt; -->
<g id="node19" class="node"><title>&lt;Value&gt; &#39;,&#39; &lt;Elements&gt;</title>
<ellipse fill="none" stroke="black" cx="489.497" cy="-18" rx="96.6831" ry="18"/>
<text text-anchor="middle" x="489.497" y="-14.3" font-family="Times New Roman,serif" font-size="14.00">&lt;Value&gt; &#39;,&#39; &lt;Elements&gt;</text>
</g>
<!-- &lt;Elements&gt;&#45;&gt;&lt;Value&gt; &#39;,&#39; &lt;Elements&gt; -->
<g id="edge21" class="edge"><title>&lt;Elements&gt;&#45;&gt;&lt;Value&gt; &#39;,&#39; &lt;Elements&gt;</title>
<path fill="none" stroke="black" d="M483.619,-72.055C482.801,-64.3456 482.558,-55.0269 482.892,-46.3642"/>
<polygon fill="black" stroke="black" points="486.391,-46.4915 483.584,-36.2753 479.408,-46.0122 486.391,-46.4915"/>
</g>
<!-- &lt;Value&gt; &#39;,&#39; &lt;Elements&gt;&#45;&gt;&lt;Value&gt; -->
<g id="edge22" class="edge"><title>&lt;Value&gt; &#39;,&#39; &lt;Elements&gt;&#45;&gt;&lt;Value&gt;</title>
<path fill="none" stroke="black" d="M462.511,-35.5234C449.705,-44.7212 435.311,-57.2863 426.497,-72 384.479,-142.141 435.202,-184.889 388.497,-252 377.464,-267.854 360.003,-279.981 343.853,-288.608"/>
<polygon fill="black" stroke="black" points="341.915,-285.664 334.553,-293.284 345.06,-291.918 341.915,-285.664"/>
</g>
<!-- &lt;Value&gt; &#39;,&#39; &lt;Elements&gt;&#45;&gt;&lt;Elements&gt; -->
<g id="edge23" class="edge"><title>&lt;Value&gt; &#39;,&#39; &lt;Elements&gt;&#45;&gt;&lt;Elements&gt;</title>
<path fill="none" stroke="black" d="M495.41,-36.2753C496.212,-44.03 496.438,-53.3618 496.088,-62.0054"/>
<polygon fill="black" stroke="black" points="492.591,-61.8325 495.375,-72.055 499.574,-62.3275 492.591,-61.8325"/>
</g>
</g>
</svg>
