<?xml version="1.0" encoding="utf-8" standalone="no"?>
<!DOCTYPE svg PUBLIC "-//W3C//DTD SVG 1.1//EN"
  "http://www.w3.org/Graphics/SVG/1.1/DTD/svg11.dtd">
<!-- Created with matplotlib (https://matplotlib.org/) -->
<svg height="469.44pt" version="1.1" viewBox="0 0 576.72 469.44" width="576.72pt" xmlns="http://www.w3.org/2000/svg" xmlns:xlink="http://www.w3.org/1999/xlink">
 <defs>
  <style type="text/css">
*{stroke-linecap:butt;stroke-linejoin:round;}
  </style>
 </defs>
 <g id="figure_1">
  <g id="patch_1">
   <path d="M 0 469.44 
L 576.72 469.44 
L 576.72 0 
L 0 0 
z
" style="fill:#ffffff;"/>
  </g>
  <g id="axes_1">
   <g id="patch_2">
    <path d="M 72.09 417.8016 
L 519.048 417.8016 
L 519.048 56.3328 
L 72.09 56.3328 
z
" style="fill:#ffffff;"/>
   </g>
   <g id="matplotlib.axis_1">
    <g id="xtick_1">
     <g id="line2d_1">
      <defs>
       <path d="M 0 0 
L 0 3.5 
" id="m7b1ff5dcdd" style="stroke:#000000;stroke-width:0.8;"/>
      </defs>
      <g>
       <use style="stroke:#000000;stroke-width:0.8;" x="92.406273" xlink:href="#m7b1ff5dcdd" y="417.8016"/>
      </g>
     </g>
     <g id="text_1">
      <!-- 0 -->
      <defs>
       <path d="M 31.78125 66.40625 
Q 24.171875 66.40625 20.328125 58.90625 
Q 16.5 51.421875 16.5 36.375 
Q 16.5 21.390625 20.328125 13.890625 
Q 24.171875 6.390625 31.78125 6.390625 
Q 39.453125 6.390625 43.28125 13.890625 
Q 47.125 21.390625 47.125 36.375 
Q 47.125 51.421875 43.28125 58.90625 
Q 39.453125 66.40625 31.78125 66.40625 
z
M 31.78125 74.21875 
Q 44.046875 74.21875 50.515625 64.515625 
Q 56.984375 54.828125 56.984375 36.375 
Q 56.984375 17.96875 50.515625 8.265625 
Q 44.046875 -1.421875 31.78125 -1.421875 
Q 19.53125 -1.421875 13.0625 8.265625 
Q 6.59375 17.96875 6.59375 36.375 
Q 6.59375 54.828125 13.0625 64.515625 
Q 19.53125 74.21875 31.78125 74.21875 
z
" id="DejaVuSans-48"/>
      </defs>
      <g transform="translate(89.225023 432.400037)scale(0.1 -0.1)">
       <use xlink:href="#DejaVuSans-48"/>
      </g>
     </g>
    </g>
    <g id="xtick_2">
     <g id="line2d_2">
      <g>
       <use style="stroke:#000000;stroke-width:0.8;" x="151.195867" xlink:href="#m7b1ff5dcdd" y="417.8016"/>
      </g>
     </g>
     <g id="text_2">
      <!-- 25000 -->
      <defs>
       <path d="M 19.1875 8.296875 
L 53.609375 8.296875 
L 53.609375 0 
L 7.328125 0 
L 7.328125 8.296875 
Q 12.9375 14.109375 22.625 23.890625 
Q 32.328125 33.6875 34.8125 36.53125 
Q 39.546875 41.84375 41.421875 45.53125 
Q 43.3125 49.21875 43.3125 52.78125 
Q 43.3125 58.59375 39.234375 62.25 
Q 35.15625 65.921875 28.609375 65.921875 
Q 23.96875 65.921875 18.8125 64.3125 
Q 13.671875 62.703125 7.8125 59.421875 
L 7.8125 69.390625 
Q 13.765625 71.78125 18.9375 73 
Q 24.125 74.21875 28.421875 74.21875 
Q 39.75 74.21875 46.484375 68.546875 
Q 53.21875 62.890625 53.21875 53.421875 
Q 53.21875 48.921875 51.53125 44.890625 
Q 49.859375 40.875 45.40625 35.40625 
Q 44.1875 33.984375 37.640625 27.21875 
Q 31.109375 20.453125 19.1875 8.296875 
z
" id="DejaVuSans-50"/>
       <path d="M 10.796875 72.90625 
L 49.515625 72.90625 
L 49.515625 64.59375 
L 19.828125 64.59375 
L 19.828125 46.734375 
Q 21.96875 47.46875 24.109375 47.828125 
Q 26.265625 48.1875 28.421875 48.1875 
Q 40.625 48.1875 47.75 41.5 
Q 54.890625 34.8125 54.890625 23.390625 
Q 54.890625 11.625 47.5625 5.09375 
Q 40.234375 -1.421875 26.90625 -1.421875 
Q 22.3125 -1.421875 17.546875 -0.640625 
Q 12.796875 0.140625 7.71875 1.703125 
L 7.71875 11.625 
Q 12.109375 9.234375 16.796875 8.0625 
Q 21.484375 6.890625 26.703125 6.890625 
Q 35.15625 6.890625 40.078125 11.328125 
Q 45.015625 15.765625 45.015625 23.390625 
Q 45.015625 31 40.078125 35.4375 
Q 35.15625 39.890625 26.703125 39.890625 
Q 22.75 39.890625 18.8125 39.015625 
Q 14.890625 38.140625 10.796875 36.28125 
z
" id="DejaVuSans-53"/>
      </defs>
      <g transform="translate(135.289617 432.400037)scale(0.1 -0.1)">
       <use xlink:href="#DejaVuSans-50"/>
       <use x="63.623047" xlink:href="#DejaVuSans-53"/>
       <use x="127.246094" xlink:href="#DejaVuSans-48"/>
       <use x="190.869141" xlink:href="#DejaVuSans-48"/>
       <use x="254.492188" xlink:href="#DejaVuSans-48"/>
      </g>
     </g>
    </g>
    <g id="xtick_3">
     <g id="line2d_3">
      <g>
       <use style="stroke:#000000;stroke-width:0.8;" x="209.985461" xlink:href="#m7b1ff5dcdd" y="417.8016"/>
      </g>
     </g>
     <g id="text_3">
      <!-- 50000 -->
      <g transform="translate(194.079211 432.400037)scale(0.1 -0.1)">
       <use xlink:href="#DejaVuSans-53"/>
       <use x="63.623047" xlink:href="#DejaVuSans-48"/>
       <use x="127.246094" xlink:href="#DejaVuSans-48"/>
       <use x="190.869141" xlink:href="#DejaVuSans-48"/>
       <use x="254.492188" xlink:href="#DejaVuSans-48"/>
      </g>
     </g>
    </g>
    <g id="xtick_4">
     <g id="line2d_4">
      <g>
       <use style="stroke:#000000;stroke-width:0.8;" x="268.775055" xlink:href="#m7b1ff5dcdd" y="417.8016"/>
      </g>
     </g>
     <g id="text_4">
      <!-- 75000 -->
      <defs>
       <path d="M 8.203125 72.90625 
L 55.078125 72.90625 
L 55.078125 68.703125 
L 28.609375 0 
L 18.3125 0 
L 43.21875 64.59375 
L 8.203125 64.59375 
z
" id="DejaVuSans-55"/>
      </defs>
      <g transform="translate(252.868805 432.400037)scale(0.1 -0.1)">
       <use xlink:href="#DejaVuSans-55"/>
       <use x="63.623047" xlink:href="#DejaVuSans-53"/>
       <use x="127.246094" xlink:href="#DejaVuSans-48"/>
       <use x="190.869141" xlink:href="#DejaVuSans-48"/>
       <use x="254.492188" xlink:href="#DejaVuSans-48"/>
      </g>
     </g>
    </g>
    <g id="xtick_5">
     <g id="line2d_5">
      <g>
       <use style="stroke:#000000;stroke-width:0.8;" x="327.564649" xlink:href="#m7b1ff5dcdd" y="417.8016"/>
      </g>
     </g>
     <g id="text_5">
      <!-- 100000 -->
      <defs>
       <path d="M 12.40625 8.296875 
L 28.515625 8.296875 
L 28.515625 63.921875 
L 10.984375 60.40625 
L 10.984375 69.390625 
L 28.421875 72.90625 
L 38.28125 72.90625 
L 38.28125 8.296875 
L 54.390625 8.296875 
L 54.390625 0 
L 12.40625 0 
z
" id="DejaVuSans-49"/>
      </defs>
      <g transform="translate(308.477149 432.400037)scale(0.1 -0.1)">
       <use xlink:href="#DejaVuSans-49"/>
       <use x="63.623047" xlink:href="#DejaVuSans-48"/>
       <use x="127.246094" xlink:href="#DejaVuSans-48"/>
       <use x="190.869141" xlink:href="#DejaVuSans-48"/>
       <use x="254.492188" xlink:href="#DejaVuSans-48"/>
       <use x="318.115234" xlink:href="#DejaVuSans-48"/>
      </g>
     </g>
    </g>
    <g id="xtick_6">
     <g id="line2d_6">
      <g>
       <use style="stroke:#000000;stroke-width:0.8;" x="386.354243" xlink:href="#m7b1ff5dcdd" y="417.8016"/>
      </g>
     </g>
     <g id="text_6">
      <!-- 125000 -->
      <g transform="translate(367.266743 432.400037)scale(0.1 -0.1)">
       <use xlink:href="#DejaVuSans-49"/>
       <use x="63.623047" xlink:href="#DejaVuSans-50"/>
       <use x="127.246094" xlink:href="#DejaVuSans-53"/>
       <use x="190.869141" xlink:href="#DejaVuSans-48"/>
       <use x="254.492188" xlink:href="#DejaVuSans-48"/>
       <use x="318.115234" xlink:href="#DejaVuSans-48"/>
      </g>
     </g>
    </g>
    <g id="xtick_7">
     <g id="line2d_7">
      <g>
       <use style="stroke:#000000;stroke-width:0.8;" x="445.143837" xlink:href="#m7b1ff5dcdd" y="417.8016"/>
      </g>
     </g>
     <g id="text_7">
      <!-- 150000 -->
      <g transform="translate(426.056337 432.400037)scale(0.1 -0.1)">
       <use xlink:href="#DejaVuSans-49"/>
       <use x="63.623047" xlink:href="#DejaVuSans-53"/>
       <use x="127.246094" xlink:href="#DejaVuSans-48"/>
       <use x="190.869141" xlink:href="#DejaVuSans-48"/>
       <use x="254.492188" xlink:href="#DejaVuSans-48"/>
       <use x="318.115234" xlink:href="#DejaVuSans-48"/>
      </g>
     </g>
    </g>
    <g id="xtick_8">
     <g id="line2d_8">
      <g>
       <use style="stroke:#000000;stroke-width:0.8;" x="503.933431" xlink:href="#m7b1ff5dcdd" y="417.8016"/>
      </g>
     </g>
     <g id="text_8">
      <!-- 175000 -->
      <g transform="translate(484.845931 432.400037)scale(0.1 -0.1)">
       <use xlink:href="#DejaVuSans-49"/>
       <use x="63.623047" xlink:href="#DejaVuSans-55"/>
       <use x="127.246094" xlink:href="#DejaVuSans-53"/>
       <use x="190.869141" xlink:href="#DejaVuSans-48"/>
       <use x="254.492188" xlink:href="#DejaVuSans-48"/>
       <use x="318.115234" xlink:href="#DejaVuSans-48"/>
      </g>
     </g>
    </g>
    <g id="text_9">
     <!-- Time (seconds) -->
     <defs>
      <path d="M -0.296875 72.90625 
L 61.375 72.90625 
L 61.375 64.59375 
L 35.5 64.59375 
L 35.5 0 
L 25.59375 0 
L 25.59375 64.59375 
L -0.296875 64.59375 
z
" id="DejaVuSans-84"/>
      <path d="M 9.421875 54.6875 
L 18.40625 54.6875 
L 18.40625 0 
L 9.421875 0 
z
M 9.421875 75.984375 
L 18.40625 75.984375 
L 18.40625 64.59375 
L 9.421875 64.59375 
z
" id="DejaVuSans-105"/>
      <path d="M 52 44.1875 
Q 55.375 50.25 60.0625 53.125 
Q 64.75 56 71.09375 56 
Q 79.640625 56 84.28125 50.015625 
Q 88.921875 44.046875 88.921875 33.015625 
L 88.921875 0 
L 79.890625 0 
L 79.890625 32.71875 
Q 79.890625 40.578125 77.09375 44.375 
Q 74.3125 48.1875 68.609375 48.1875 
Q 61.625 48.1875 57.5625 43.546875 
Q 53.515625 38.921875 53.515625 30.90625 
L 53.515625 0 
L 44.484375 0 
L 44.484375 32.71875 
Q 44.484375 40.625 41.703125 44.40625 
Q 38.921875 48.1875 33.109375 48.1875 
Q 26.21875 48.1875 22.15625 43.53125 
Q 18.109375 38.875 18.109375 30.90625 
L 18.109375 0 
L 9.078125 0 
L 9.078125 54.6875 
L 18.109375 54.6875 
L 18.109375 46.1875 
Q 21.1875 51.21875 25.484375 53.609375 
Q 29.78125 56 35.6875 56 
Q 41.65625 56 45.828125 52.96875 
Q 50 49.953125 52 44.1875 
z
" id="DejaVuSans-109"/>
      <path d="M 56.203125 29.59375 
L 56.203125 25.203125 
L 14.890625 25.203125 
Q 15.484375 15.921875 20.484375 11.0625 
Q 25.484375 6.203125 34.421875 6.203125 
Q 39.59375 6.203125 44.453125 7.46875 
Q 49.3125 8.734375 54.109375 11.28125 
L 54.109375 2.78125 
Q 49.265625 0.734375 44.1875 -0.34375 
Q 39.109375 -1.421875 33.890625 -1.421875 
Q 20.796875 -1.421875 13.15625 6.1875 
Q 5.515625 13.8125 5.515625 26.8125 
Q 5.515625 40.234375 12.765625 48.109375 
Q 20.015625 56 32.328125 56 
Q 43.359375 56 49.78125 48.890625 
Q 56.203125 41.796875 56.203125 29.59375 
z
M 47.21875 32.234375 
Q 47.125 39.59375 43.09375 43.984375 
Q 39.0625 48.390625 32.421875 48.390625 
Q 24.90625 48.390625 20.390625 44.140625 
Q 15.875 39.890625 15.1875 32.171875 
z
" id="DejaVuSans-101"/>
      <path id="DejaVuSans-32"/>
      <path d="M 31 75.875 
Q 24.46875 64.65625 21.28125 53.65625 
Q 18.109375 42.671875 18.109375 31.390625 
Q 18.109375 20.125 21.3125 9.0625 
Q 24.515625 -2 31 -13.1875 
L 23.1875 -13.1875 
Q 15.875 -1.703125 12.234375 9.375 
Q 8.59375 20.453125 8.59375 31.390625 
Q 8.59375 42.28125 12.203125 53.3125 
Q 15.828125 64.359375 23.1875 75.875 
z
" id="DejaVuSans-40"/>
      <path d="M 44.28125 53.078125 
L 44.28125 44.578125 
Q 40.484375 46.53125 36.375 47.5 
Q 32.28125 48.484375 27.875 48.484375 
Q 21.1875 48.484375 17.84375 46.4375 
Q 14.5 44.390625 14.5 40.28125 
Q 14.5 37.15625 16.890625 35.375 
Q 19.28125 33.59375 26.515625 31.984375 
L 29.59375 31.296875 
Q 39.15625 29.25 43.1875 25.515625 
Q 47.21875 21.78125 47.21875 15.09375 
Q 47.21875 7.46875 41.1875 3.015625 
Q 35.15625 -1.421875 24.609375 -1.421875 
Q 20.21875 -1.421875 15.453125 -0.5625 
Q 10.6875 0.296875 5.421875 2 
L 5.421875 11.28125 
Q 10.40625 8.6875 15.234375 7.390625 
Q 20.0625 6.109375 24.8125 6.109375 
Q 31.15625 6.109375 34.5625 8.28125 
Q 37.984375 10.453125 37.984375 14.40625 
Q 37.984375 18.0625 35.515625 20.015625 
Q 33.0625 21.96875 24.703125 23.78125 
L 21.578125 24.515625 
Q 13.234375 26.265625 9.515625 29.90625 
Q 5.8125 33.546875 5.8125 39.890625 
Q 5.8125 47.609375 11.28125 51.796875 
Q 16.75 56 26.8125 56 
Q 31.78125 56 36.171875 55.265625 
Q 40.578125 54.546875 44.28125 53.078125 
z
" id="DejaVuSans-115"/>
      <path d="M 48.78125 52.59375 
L 48.78125 44.1875 
Q 44.96875 46.296875 41.140625 47.34375 
Q 37.3125 48.390625 33.40625 48.390625 
Q 24.65625 48.390625 19.8125 42.84375 
Q 14.984375 37.3125 14.984375 27.296875 
Q 14.984375 17.28125 19.8125 11.734375 
Q 24.65625 6.203125 33.40625 6.203125 
Q 37.3125 6.203125 41.140625 7.25 
Q 44.96875 8.296875 48.78125 10.40625 
L 48.78125 2.09375 
Q 45.015625 0.34375 40.984375 -0.53125 
Q 36.96875 -1.421875 32.421875 -1.421875 
Q 20.0625 -1.421875 12.78125 6.34375 
Q 5.515625 14.109375 5.515625 27.296875 
Q 5.515625 40.671875 12.859375 48.328125 
Q 20.21875 56 33.015625 56 
Q 37.15625 56 41.109375 55.140625 
Q 45.0625 54.296875 48.78125 52.59375 
z
" id="DejaVuSans-99"/>
      <path d="M 30.609375 48.390625 
Q 23.390625 48.390625 19.1875 42.75 
Q 14.984375 37.109375 14.984375 27.296875 
Q 14.984375 17.484375 19.15625 11.84375 
Q 23.34375 6.203125 30.609375 6.203125 
Q 37.796875 6.203125 41.984375 11.859375 
Q 46.1875 17.53125 46.1875 27.296875 
Q 46.1875 37.015625 41.984375 42.703125 
Q 37.796875 48.390625 30.609375 48.390625 
z
M 30.609375 56 
Q 42.328125 56 49.015625 48.375 
Q 55.71875 40.765625 55.71875 27.296875 
Q 55.71875 13.875 49.015625 6.21875 
Q 42.328125 -1.421875 30.609375 -1.421875 
Q 18.84375 -1.421875 12.171875 6.21875 
Q 5.515625 13.875 5.515625 27.296875 
Q 5.515625 40.765625 12.171875 48.375 
Q 18.84375 56 30.609375 56 
z
" id="DejaVuSans-111"/>
      <path d="M 54.890625 33.015625 
L 54.890625 0 
L 45.90625 0 
L 45.90625 32.71875 
Q 45.90625 40.484375 42.875 44.328125 
Q 39.84375 48.1875 33.796875 48.1875 
Q 26.515625 48.1875 22.3125 43.546875 
Q 18.109375 38.921875 18.109375 30.90625 
L 18.109375 0 
L 9.078125 0 
L 9.078125 54.6875 
L 18.109375 54.6875 
L 18.109375 46.1875 
Q 21.34375 51.125 25.703125 53.5625 
Q 30.078125 56 35.796875 56 
Q 45.21875 56 50.046875 50.171875 
Q 54.890625 44.34375 54.890625 33.015625 
z
" id="DejaVuSans-110"/>
      <path d="M 45.40625 46.390625 
L 45.40625 75.984375 
L 54.390625 75.984375 
L 54.390625 0 
L 45.40625 0 
L 45.40625 8.203125 
Q 42.578125 3.328125 38.25 0.953125 
Q 33.9375 -1.421875 27.875 -1.421875 
Q 17.96875 -1.421875 11.734375 6.484375 
Q 5.515625 14.40625 5.515625 27.296875 
Q 5.515625 40.1875 11.734375 48.09375 
Q 17.96875 56 27.875 56 
Q 33.9375 56 38.25 53.625 
Q 42.578125 51.265625 45.40625 46.390625 
z
M 14.796875 27.296875 
Q 14.796875 17.390625 18.875 11.75 
Q 22.953125 6.109375 30.078125 6.109375 
Q 37.203125 6.109375 41.296875 11.75 
Q 45.40625 17.390625 45.40625 27.296875 
Q 45.40625 37.203125 41.296875 42.84375 
Q 37.203125 48.484375 30.078125 48.484375 
Q 22.953125 48.484375 18.875 42.84375 
Q 14.796875 37.203125 14.796875 27.296875 
z
" id="DejaVuSans-100"/>
      <path d="M 8.015625 75.875 
L 15.828125 75.875 
Q 23.140625 64.359375 26.78125 53.3125 
Q 30.421875 42.28125 30.421875 31.390625 
Q 30.421875 20.453125 26.78125 9.375 
Q 23.140625 -1.703125 15.828125 -13.1875 
L 8.015625 -13.1875 
Q 14.5 -2 17.703125 9.0625 
Q 20.90625 20.125 20.90625 31.390625 
Q 20.90625 42.671875 17.703125 53.65625 
Q 14.5 64.65625 8.015625 75.875 
z
" id="DejaVuSans-41"/>
     </defs>
     <g transform="translate(257.253375 446.078162)scale(0.1 -0.1)">
      <use xlink:href="#DejaVuSans-84"/>
      <use x="61.037109" xlink:href="#DejaVuSans-105"/>
      <use x="88.820312" xlink:href="#DejaVuSans-109"/>
      <use x="186.232422" xlink:href="#DejaVuSans-101"/>
      <use x="247.755859" xlink:href="#DejaVuSans-32"/>
      <use x="279.542969" xlink:href="#DejaVuSans-40"/>
      <use x="318.556641" xlink:href="#DejaVuSans-115"/>
      <use x="370.65625" xlink:href="#DejaVuSans-101"/>
      <use x="432.179688" xlink:href="#DejaVuSans-99"/>
      <use x="487.160156" xlink:href="#DejaVuSans-111"/>
      <use x="548.341797" xlink:href="#DejaVuSans-110"/>
      <use x="611.720703" xlink:href="#DejaVuSans-100"/>
      <use x="675.197266" xlink:href="#DejaVuSans-115"/>
      <use x="727.296875" xlink:href="#DejaVuSans-41"/>
     </g>
    </g>
   </g>
   <g id="matplotlib.axis_2">
    <g id="ytick_1">
     <g id="line2d_9">
      <defs>
       <path d="M 0 0 
L -3.5 0 
" id="m183cff04b2" style="stroke:#000000;stroke-width:0.8;"/>
      </defs>
      <g>
       <use style="stroke:#000000;stroke-width:0.8;" x="72.09" xlink:href="#m183cff04b2" y="375.028063"/>
      </g>
     </g>
     <g id="text_10">
      <!-- 2.0 -->
      <defs>
       <path d="M 10.6875 12.40625 
L 21 12.40625 
L 21 0 
L 10.6875 0 
z
" id="DejaVuSans-46"/>
      </defs>
      <g transform="translate(49.186875 378.827282)scale(0.1 -0.1)">
       <use xlink:href="#DejaVuSans-50"/>
       <use x="63.623047" xlink:href="#DejaVuSans-46"/>
       <use x="95.410156" xlink:href="#DejaVuSans-48"/>
      </g>
     </g>
    </g>
    <g id="ytick_2">
     <g id="line2d_10">
      <g>
       <use style="stroke:#000000;stroke-width:0.8;" x="72.09" xlink:href="#m183cff04b2" y="323.563009"/>
      </g>
     </g>
     <g id="text_11">
      <!-- 2.2 -->
      <g transform="translate(49.186875 327.362228)scale(0.1 -0.1)">
       <use xlink:href="#DejaVuSans-50"/>
       <use x="63.623047" xlink:href="#DejaVuSans-46"/>
       <use x="95.410156" xlink:href="#DejaVuSans-50"/>
      </g>
     </g>
    </g>
    <g id="ytick_3">
     <g id="line2d_11">
      <g>
       <use style="stroke:#000000;stroke-width:0.8;" x="72.09" xlink:href="#m183cff04b2" y="272.097955"/>
      </g>
     </g>
     <g id="text_12">
      <!-- 2.4 -->
      <defs>
       <path d="M 37.796875 64.3125 
L 12.890625 25.390625 
L 37.796875 25.390625 
z
M 35.203125 72.90625 
L 47.609375 72.90625 
L 47.609375 25.390625 
L 58.015625 25.390625 
L 58.015625 17.1875 
L 47.609375 17.1875 
L 47.609375 0 
L 37.796875 0 
L 37.796875 17.1875 
L 4.890625 17.1875 
L 4.890625 26.703125 
z
" id="DejaVuSans-52"/>
      </defs>
      <g transform="translate(49.186875 275.897174)scale(0.1 -0.1)">
       <use xlink:href="#DejaVuSans-50"/>
       <use x="63.623047" xlink:href="#DejaVuSans-46"/>
       <use x="95.410156" xlink:href="#DejaVuSans-52"/>
      </g>
     </g>
    </g>
    <g id="ytick_4">
     <g id="line2d_12">
      <g>
       <use style="stroke:#000000;stroke-width:0.8;" x="72.09" xlink:href="#m183cff04b2" y="220.632901"/>
      </g>
     </g>
     <g id="text_13">
      <!-- 2.6 -->
      <defs>
       <path d="M 33.015625 40.375 
Q 26.375 40.375 22.484375 35.828125 
Q 18.609375 31.296875 18.609375 23.390625 
Q 18.609375 15.53125 22.484375 10.953125 
Q 26.375 6.390625 33.015625 6.390625 
Q 39.65625 6.390625 43.53125 10.953125 
Q 47.40625 15.53125 47.40625 23.390625 
Q 47.40625 31.296875 43.53125 35.828125 
Q 39.65625 40.375 33.015625 40.375 
z
M 52.59375 71.296875 
L 52.59375 62.3125 
Q 48.875 64.0625 45.09375 64.984375 
Q 41.3125 65.921875 37.59375 65.921875 
Q 27.828125 65.921875 22.671875 59.328125 
Q 17.53125 52.734375 16.796875 39.40625 
Q 19.671875 43.65625 24.015625 45.921875 
Q 28.375 48.1875 33.59375 48.1875 
Q 44.578125 48.1875 50.953125 41.515625 
Q 57.328125 34.859375 57.328125 23.390625 
Q 57.328125 12.15625 50.6875 5.359375 
Q 44.046875 -1.421875 33.015625 -1.421875 
Q 20.359375 -1.421875 13.671875 8.265625 
Q 6.984375 17.96875 6.984375 36.375 
Q 6.984375 53.65625 15.1875 63.9375 
Q 23.390625 74.21875 37.203125 74.21875 
Q 40.921875 74.21875 44.703125 73.484375 
Q 48.484375 72.75 52.59375 71.296875 
z
" id="DejaVuSans-54"/>
      </defs>
      <g transform="translate(49.186875 224.43212)scale(0.1 -0.1)">
       <use xlink:href="#DejaVuSans-50"/>
       <use x="63.623047" xlink:href="#DejaVuSans-46"/>
       <use x="95.410156" xlink:href="#DejaVuSans-54"/>
      </g>
     </g>
    </g>
    <g id="ytick_5">
     <g id="line2d_13">
      <g>
       <use style="stroke:#000000;stroke-width:0.8;" x="72.09" xlink:href="#m183cff04b2" y="169.167847"/>
      </g>
     </g>
     <g id="text_14">
      <!-- 2.8 -->
      <defs>
       <path d="M 31.78125 34.625 
Q 24.75 34.625 20.71875 30.859375 
Q 16.703125 27.09375 16.703125 20.515625 
Q 16.703125 13.921875 20.71875 10.15625 
Q 24.75 6.390625 31.78125 6.390625 
Q 38.8125 6.390625 42.859375 10.171875 
Q 46.921875 13.96875 46.921875 20.515625 
Q 46.921875 27.09375 42.890625 30.859375 
Q 38.875 34.625 31.78125 34.625 
z
M 21.921875 38.8125 
Q 15.578125 40.375 12.03125 44.71875 
Q 8.5 49.078125 8.5 55.328125 
Q 8.5 64.0625 14.71875 69.140625 
Q 20.953125 74.21875 31.78125 74.21875 
Q 42.671875 74.21875 48.875 69.140625 
Q 55.078125 64.0625 55.078125 55.328125 
Q 55.078125 49.078125 51.53125 44.71875 
Q 48 40.375 41.703125 38.8125 
Q 48.828125 37.15625 52.796875 32.3125 
Q 56.78125 27.484375 56.78125 20.515625 
Q 56.78125 9.90625 50.3125 4.234375 
Q 43.84375 -1.421875 31.78125 -1.421875 
Q 19.734375 -1.421875 13.25 4.234375 
Q 6.78125 9.90625 6.78125 20.515625 
Q 6.78125 27.484375 10.78125 32.3125 
Q 14.796875 37.15625 21.921875 38.8125 
z
M 18.3125 54.390625 
Q 18.3125 48.734375 21.84375 45.5625 
Q 25.390625 42.390625 31.78125 42.390625 
Q 38.140625 42.390625 41.71875 45.5625 
Q 45.3125 48.734375 45.3125 54.390625 
Q 45.3125 60.0625 41.71875 63.234375 
Q 38.140625 66.40625 31.78125 66.40625 
Q 25.390625 66.40625 21.84375 63.234375 
Q 18.3125 60.0625 18.3125 54.390625 
z
" id="DejaVuSans-56"/>
      </defs>
      <g transform="translate(49.186875 172.967065)scale(0.1 -0.1)">
       <use xlink:href="#DejaVuSans-50"/>
       <use x="63.623047" xlink:href="#DejaVuSans-46"/>
       <use x="95.410156" xlink:href="#DejaVuSans-56"/>
      </g>
     </g>
    </g>
    <g id="ytick_6">
     <g id="line2d_14">
      <g>
       <use style="stroke:#000000;stroke-width:0.8;" x="72.09" xlink:href="#m183cff04b2" y="117.702792"/>
      </g>
     </g>
     <g id="text_15">
      <!-- 3.0 -->
      <defs>
       <path d="M 40.578125 39.3125 
Q 47.65625 37.796875 51.625 33 
Q 55.609375 28.21875 55.609375 21.1875 
Q 55.609375 10.40625 48.1875 4.484375 
Q 40.765625 -1.421875 27.09375 -1.421875 
Q 22.515625 -1.421875 17.65625 -0.515625 
Q 12.796875 0.390625 7.625 2.203125 
L 7.625 11.71875 
Q 11.71875 9.328125 16.59375 8.109375 
Q 21.484375 6.890625 26.8125 6.890625 
Q 36.078125 6.890625 40.9375 10.546875 
Q 45.796875 14.203125 45.796875 21.1875 
Q 45.796875 27.640625 41.28125 31.265625 
Q 36.765625 34.90625 28.71875 34.90625 
L 20.21875 34.90625 
L 20.21875 43.015625 
L 29.109375 43.015625 
Q 36.375 43.015625 40.234375 45.921875 
Q 44.09375 48.828125 44.09375 54.296875 
Q 44.09375 59.90625 40.109375 62.90625 
Q 36.140625 65.921875 28.71875 65.921875 
Q 24.65625 65.921875 20.015625 65.03125 
Q 15.375 64.15625 9.8125 62.3125 
L 9.8125 71.09375 
Q 15.4375 72.65625 20.34375 73.4375 
Q 25.25 74.21875 29.59375 74.21875 
Q 40.828125 74.21875 47.359375 69.109375 
Q 53.90625 64.015625 53.90625 55.328125 
Q 53.90625 49.265625 50.4375 45.09375 
Q 46.96875 40.921875 40.578125 39.3125 
z
" id="DejaVuSans-51"/>
      </defs>
      <g transform="translate(49.186875 121.502011)scale(0.1 -0.1)">
       <use xlink:href="#DejaVuSans-51"/>
       <use x="63.623047" xlink:href="#DejaVuSans-46"/>
       <use x="95.410156" xlink:href="#DejaVuSans-48"/>
      </g>
     </g>
    </g>
    <g id="ytick_7">
     <g id="line2d_15">
      <g>
       <use style="stroke:#000000;stroke-width:0.8;" x="72.09" xlink:href="#m183cff04b2" y="66.237738"/>
      </g>
     </g>
     <g id="text_16">
      <!-- 3.2 -->
      <g transform="translate(49.186875 70.036957)scale(0.1 -0.1)">
       <use xlink:href="#DejaVuSans-51"/>
       <use x="63.623047" xlink:href="#DejaVuSans-46"/>
       <use x="95.410156" xlink:href="#DejaVuSans-50"/>
      </g>
     </g>
    </g>
    <g id="text_17">
     <!-- Speed -->
     <defs>
      <path d="M 53.515625 70.515625 
L 53.515625 60.890625 
Q 47.90625 63.578125 42.921875 64.890625 
Q 37.9375 66.21875 33.296875 66.21875 
Q 25.25 66.21875 20.875 63.09375 
Q 16.5 59.96875 16.5 54.203125 
Q 16.5 49.359375 19.40625 46.890625 
Q 22.3125 44.4375 30.421875 42.921875 
L 36.375 41.703125 
Q 47.40625 39.59375 52.65625 34.296875 
Q 57.90625 29 57.90625 20.125 
Q 57.90625 9.515625 50.796875 4.046875 
Q 43.703125 -1.421875 29.984375 -1.421875 
Q 24.8125 -1.421875 18.96875 -0.25 
Q 13.140625 0.921875 6.890625 3.21875 
L 6.890625 13.375 
Q 12.890625 10.015625 18.65625 8.296875 
Q 24.421875 6.59375 29.984375 6.59375 
Q 38.421875 6.59375 43.015625 9.90625 
Q 47.609375 13.234375 47.609375 19.390625 
Q 47.609375 24.75 44.3125 27.78125 
Q 41.015625 30.8125 33.5 32.328125 
L 27.484375 33.5 
Q 16.453125 35.6875 11.515625 40.375 
Q 6.59375 45.0625 6.59375 53.421875 
Q 6.59375 63.09375 13.40625 68.65625 
Q 20.21875 74.21875 32.171875 74.21875 
Q 37.3125 74.21875 42.625 73.28125 
Q 47.953125 72.359375 53.515625 70.515625 
z
" id="DejaVuSans-83"/>
      <path d="M 18.109375 8.203125 
L 18.109375 -20.796875 
L 9.078125 -20.796875 
L 9.078125 54.6875 
L 18.109375 54.6875 
L 18.109375 46.390625 
Q 20.953125 51.265625 25.265625 53.625 
Q 29.59375 56 35.59375 56 
Q 45.5625 56 51.78125 48.09375 
Q 58.015625 40.1875 58.015625 27.296875 
Q 58.015625 14.40625 51.78125 6.484375 
Q 45.5625 -1.421875 35.59375 -1.421875 
Q 29.59375 -1.421875 25.265625 0.953125 
Q 20.953125 3.328125 18.109375 8.203125 
z
M 48.6875 27.296875 
Q 48.6875 37.203125 44.609375 42.84375 
Q 40.53125 48.484375 33.40625 48.484375 
Q 26.265625 48.484375 22.1875 42.84375 
Q 18.109375 37.203125 18.109375 27.296875 
Q 18.109375 17.390625 22.1875 11.75 
Q 26.265625 6.109375 33.40625 6.109375 
Q 40.53125 6.109375 44.609375 11.75 
Q 48.6875 17.390625 48.6875 27.296875 
z
" id="DejaVuSans-112"/>
     </defs>
     <g transform="translate(43.107187 252.742981)rotate(-90)scale(0.1 -0.1)">
      <use xlink:href="#DejaVuSans-83"/>
      <use x="63.476562" xlink:href="#DejaVuSans-112"/>
      <use x="126.953125" xlink:href="#DejaVuSans-101"/>
      <use x="188.476562" xlink:href="#DejaVuSans-101"/>
      <use x="250" xlink:href="#DejaVuSans-100"/>
     </g>
    </g>
   </g>
   <g id="line2d_16">
    <path clip-path="url(#pa5a75a8392)" d="M 92.406273 96.492422 
L 92.688463 136.260213 
L 92.994169 147.639645 
L 93.488001 155.037338 
L 93.699644 157.085055 
L 93.958318 159.170994 
L 95.016531 167.228893 
L 96.333418 177.81067 
L 96.780219 180.718595 
L 96.803734 180.718595 
L 97.203504 183.301491 
L 97.227019 183.301491 
L 98.050074 189.500211 
L 98.07359 189.500211 
L 98.779065 194.942131 
L 98.802581 194.942131 
L 99.178834 197.651474 
L 99.20235 197.651474 
L 99.531572 199.960543 
L 99.555087 199.960543 
L 99.813762 201.605756 
L 99.837277 201.605756 
L 100.095952 203.275551 
L 100.119467 203.275551 
L 100.378142 204.970675 
L 100.401658 204.970675 
L 100.636816 206.444388 
L 100.660332 206.444388 
L 100.89549 207.937795 
L 100.919006 207.937795 
L 101.154164 209.451429 
L 101.17768 209.451429 
L 101.389323 210.728642 
L 101.412839 210.728642 
L 101.624481 212.020621 
L 101.647997 212.020621 
L 101.883155 213.590974 
L 101.906671 213.590974 
L 102.047766 214.119367 
L 102.071282 214.119367 
L 102.259409 215.183708 
L 102.30644 215.183708 
L 102.471051 215.988669 
L 102.494567 215.988669 
L 102.682694 217.07105 
L 102.70621 217.07105 
L 102.894336 218.164017 
L 102.917852 218.164017 
L 103.129495 219.545431 
L 103.153011 219.545431 
L 103.364653 220.944134 
L 103.388169 220.944134 
L 103.599811 222.360565 
L 103.623327 222.360565 
L 103.83497 223.79518 
L 103.858486 223.79518 
L 104.070128 225.248451 
L 104.093644 225.248451 
L 104.281771 226.424829 
L 104.305287 226.424829 
L 104.493413 227.613723 
L 104.516929 227.613723 
L 104.705056 228.815401 
L 104.728572 228.815401 
L 104.916698 230.03014 
L 104.96373 230.03014 
L 105.128341 230.949939 
L 105.151857 230.949939 
L 105.316468 231.877372 
L 105.339983 231.877372 
L 105.504594 232.812565 
L 105.551626 232.812565 
L 105.692721 233.440403 
L 105.716237 233.440403 
L 105.880848 234.388824 
L 105.927879 234.388824 
L 106.068974 235.025606 
L 106.09249 235.025606 
L 106.233585 235.666038 
L 106.257101 235.666038 
L 106.398196 236.31016 
L 106.421712 236.31016 
L 106.586323 237.283359 
L 106.65687 237.283359 
L 106.797965 237.936898 
L 106.821481 237.936898 
L 106.962576 238.594282 
L 106.986092 238.594282 
L 107.127187 239.255556 
L 107.150703 239.255556 
L 107.291798 239.920766 
L 107.33883 239.920766 
L 107.479925 240.589959 
L 107.50344 240.589959 
L 107.644535 241.263184 
L 107.691567 241.263184 
L 107.832662 241.940489 
L 107.879694 241.940489 
L 108.020789 242.621923 
L 108.044305 242.621923 
L 108.1854 243.307539 
L 108.234783 243.307539 
L 108.375878 243.997386 
L 108.42291 243.997386 
L 108.564005 244.691519 
L 108.634552 244.691519 
L 108.775647 245.389989 
L 108.822679 245.389989 
L 108.963774 246.092853 
L 109.034321 246.092853 
L 109.175417 246.800165 
L 109.245964 246.800165 
L 109.387059 247.511982 
L 109.457607 247.511982 
L 109.598702 248.228363 
L 109.669249 248.228363 
L 109.810344 248.949365 
L 109.904407 248.949365 
L 110.045503 249.675049 
L 110.163082 249.675049 
L 110.304177 250.405476 
L 110.421756 250.405476 
L 110.562851 251.140709 
L 110.703946 251.140709 
L 110.821525 251.510147 
L 110.868557 251.510147 
L 110.986136 251.88081 
L 111.009652 251.88081 
L 111.127231 252.252707 
L 111.174263 252.252707 
L 111.291842 252.625846 
L 111.338874 252.625846 
L 111.456453 253.000235 
L 111.479969 253.000235 
L 111.597548 253.375882 
L 111.644579 253.375882 
L 111.762159 253.752796 
L 111.785674 253.752796 
L 111.903254 254.130986 
L 111.973801 254.130986 
L 112.09138 254.51046 
L 112.138412 254.51046 
L 112.255991 254.891226 
L 112.326539 254.891226 
L 112.444118 255.273295 
L 112.49115 255.273295 
L 112.608729 255.656674 
L 112.679276 255.656674 
L 112.796856 256.041373 
L 112.867403 256.041373 
L 112.984982 256.427401 
L 113.05553 256.427401 
L 113.173109 256.814767 
L 113.243656 256.814767 
L 113.361236 257.20348 
L 113.408267 257.20348 
L 113.525846 257.59355 
L 113.61991 257.59355 
L 113.737489 257.984987 
L 113.784521 257.984987 
L 113.9021 258.377799 
L 113.972647 258.377799 
L 114.090227 258.771996 
L 114.160774 258.771996 
L 114.278353 259.16759 
L 114.325385 259.16759 
L 114.442964 259.564588 
L 114.489996 259.564588 
L 114.607575 259.963002 
L 114.654607 259.963002 
L 114.772186 260.362841 
L 114.819218 260.362841 
L 114.936797 260.764116 
L 115.03086 260.764116 
L 115.148439 261.166837 
L 115.266018 261.166837 
L 115.383598 261.571014 
L 115.501177 261.571014 
L 115.618756 261.976659 
L 115.736335 261.976659 
L 115.853914 262.383781 
L 115.947978 262.383781 
L 116.065557 262.792392 
L 116.183136 262.792392 
L 116.300715 263.202502 
L 116.418294 263.202502 
L 116.535874 263.614123 
L 116.653453 263.614123 
L 116.771032 264.027266 
L 116.888611 264.027266 
L 117.00619 264.441941 
L 117.147285 264.441941 
L 117.264865 264.858162 
L 117.382444 264.858162 
L 117.500023 265.275937 
L 117.664634 265.275937 
L 117.782213 265.695281 
L 117.946824 265.695281 
L 118.064403 266.116204 
L 118.25253 266.116204 
L 118.370109 266.538719 
L 118.53472 266.538719 
L 118.652299 266.962837 
L 118.840426 266.962837 
L 118.958005 267.38857 
L 119.146132 267.38857 
L 119.263711 267.815932 
L 119.498869 267.815932 
L 119.616448 268.244934 
L 119.828091 268.244934 
L 119.94567 268.67559 
L 120.133797 268.67559 
L 120.251376 269.107911 
L 120.486534 269.107911 
L 120.604114 269.541911 
L 120.79224 269.541911 
L 120.909819 269.977604 
L 121.144978 269.977604 
L 121.262557 270.415001 
L 121.4742 270.415001 
L 121.591779 270.854118 
L 121.826937 270.854118 
L 121.944516 271.294966 
L 122.062096 271.294966 
L 122.179675 271.73756 
L 122.391317 271.73756 
L 122.508896 272.181915 
L 122.861634 272.181915 
L 122.979213 272.628043 
L 123.378982 272.628043 
L 123.496562 273.075959 
L 123.778752 273.075959 
L 123.896331 273.525678 
L 124.249068 273.525678 
L 124.366648 273.977213 
L 124.695869 273.977213 
L 124.813449 274.430581 
L 125.072123 274.430581 
L 125.189702 274.885795 
L 125.565955 274.885795 
L 125.683535 275.342871 
L 125.98924 275.342871 
L 126.10682 275.801825 
L 126.436041 275.801825 
L 126.55362 276.26267 
L 126.859326 276.26267 
L 126.976906 276.725424 
L 127.306127 276.725424 
L 127.423706 277.190103 
L 127.823476 277.190103 
L 127.941055 277.656721 
L 128.270277 277.656721 
L 128.387856 278.125296 
L 128.811141 278.125296 
L 128.92872 278.595844 
L 129.304973 278.595844 
L 129.422553 279.068381 
L 129.77529 279.068381 
L 129.892869 279.542925 
L 130.316155 279.542925 
L 130.433734 280.019493 
L 130.857019 280.019493 
L 130.974598 280.498101 
L 131.350851 280.498101 
L 131.468431 280.978769 
L 131.915231 280.978769 
L 132.032811 281.461512 
L 132.456096 281.461512 
L 132.573675 281.94635 
L 133.020476 281.94635 
L 133.138055 282.4333 
L 133.584856 282.4333 
L 133.702435 282.922382 
L 134.149236 282.922382 
L 134.266815 283.413613 
L 134.6901 283.413613 
L 134.807679 283.907013 
L 135.277996 283.907013 
L 135.395575 284.402602 
L 135.795345 284.402602 
L 135.912924 284.900397 
L 136.336209 284.900397 
L 136.453788 285.40042 
L 136.994652 285.40042 
L 137.112232 285.90269 
L 137.678963 285.90269 
L 137.796542 286.407228 
L 138.266859 286.407228 
L 138.384438 286.914054 
L 138.854755 286.914054 
L 138.972334 287.423189 
L 139.442651 287.423189 
L 139.56023 287.934654 
L 140.077579 287.934654 
L 140.195158 288.448471 
L 140.736022 288.448471 
L 140.853601 288.964661 
L 141.37095 288.964661 
L 141.488529 289.483247 
L 141.958846 289.483247 
L 142.076425 290.00425 
L 142.546742 290.00425 
L 142.664321 290.527693 
L 143.087606 290.527693 
L 143.205185 291.0536 
L 143.699018 291.0536 
L 143.816597 291.581993 
L 144.404493 291.581993 
L 144.522072 292.112896 
L 145.180515 292.112896 
L 145.298095 292.646334 
L 145.956538 292.646334 
L 146.074117 293.18233 
L 146.709045 293.18233 
L 146.826624 293.720909 
L 147.555615 293.720909 
L 147.673194 294.262096 
L 148.496249 294.262096 
L 148.613828 294.805917 
L 149.295787 294.805917 
L 149.413366 295.352397 
L 150.165873 295.352397 
L 150.283452 295.901562 
L 151.20057 295.901562 
L 151.318149 296.45344 
L 152.164719 296.45344 
L 152.282298 297.008056 
L 153.1759 297.008056 
L 153.293479 297.565438 
L 154.187081 297.565438 
L 154.30466 298.125615 
L 155.010136 298.125615 
L 155.127715 298.688613 
L 155.809674 298.688613 
L 155.927253 299.254462 
L 156.797339 299.254462 
L 156.914918 299.823191 
L 157.832036 299.823191 
L 157.949615 300.394828 
L 158.890249 300.394828 
L 159.007828 300.969405 
L 159.971977 300.969405 
L 160.089556 301.546952 
L 161.03019 301.546952 
L 161.147769 302.127498 
L 162.088403 302.127498 
L 162.205982 302.711076 
L 163.337094 302.711076 
L 163.454673 303.297718 
L 164.48937 303.297718 
L 164.606949 303.887455 
L 165.735709 303.887455 
L 165.853288 304.480321 
L 167.052596 304.480321 
L 167.170175 305.076348 
L 168.298935 305.076348 
L 168.416515 305.675572 
L 169.639338 305.675572 
L 169.756917 306.278026 
L 170.932709 306.278026 
L 171.050288 306.883745 
L 172.273112 306.883745 
L 172.390691 307.492766 
L 173.519451 307.492766 
L 173.637031 308.105123 
L 174.930402 308.105123 
L 175.047981 308.720854 
L 176.435415 308.720854 
L 176.552994 309.339997 
L 178.081524 309.339997 
L 178.199103 309.962589 
L 179.751148 309.962589 
L 179.868727 310.588668 
L 181.279678 310.588668 
L 181.397257 311.218275 
L 183.066881 311.218275 
L 183.184461 311.85145 
L 184.807053 311.85145 
L 184.924633 312.488232 
L 186.620124 312.488232 
L 186.737704 313.128663 
L 188.430844 313.128663 
L 188.548423 313.772785 
L 190.617817 313.772785 
L 190.735396 314.420642 
L 193.016432 314.420642 
L 193.134011 315.072276 
L 194.850668 315.072276 
L 194.968247 315.727732 
L 197.084672 315.727732 
L 197.202251 316.387055 
L 199.295161 316.387055 
L 199.41274 317.050291 
L 201.623229 317.050291 
L 201.740808 317.717487 
L 203.951297 317.717487 
L 204.068876 318.38869 
L 206.42046 318.38869 
L 206.538039 319.063949 
L 208.019537 319.063949 
L 208.137116 319.743312 
L 210.538083 319.743312 
L 210.655662 320.426831 
L 213.148341 320.426831 
L 213.26592 321.114556 
L 215.946726 321.114556 
L 216.064305 321.806539 
L 219.215427 321.806539 
L 219.333006 322.502834 
L 222.625223 322.502834 
L 222.742803 323.203494 
L 226.058536 323.203494 
L 226.176115 323.908575 
L 230.056228 323.908575 
L 230.173807 324.618132 
L 233.959857 324.618132 
L 234.077436 325.332224 
L 237.724743 325.332224 
L 237.842322 326.050908 
L 240.123358 326.050908 
L 240.240937 326.774243 
L 243.862376 326.774243 
L 243.979955 327.502291 
L 248.894766 327.502291 
L 249.012345 328.235113 
L 252.234014 328.235113 
L 252.351594 328.972772 
L 255.361621 328.972772 
L 255.4792 329.715333 
L 260.441042 329.715333 
L 260.558621 330.46286 
L 263.618031 330.46286 
L 263.735611 331.215421 
L 266.745638 331.215421 
L 266.863217 331.973085 
L 275.09376 331.973085 
L 275.211339 332.73592 
L 283.982747 332.73592 
L 284.100326 333.503999 
L 293.509013 333.503999 
L 293.626592 334.277392 
L 303.808949 334.277392 
L 303.926529 335.056176 
L 313.923111 335.056176 
L 314.04069 335.840424 
L 315.545704 335.840424 
L 315.663283 335.056176 
L 321.118958 335.056176 
L 321.236537 335.840424 
L 327.65636 335.840424 
L 327.77394 336.630215 
L 338.240839 336.630215 
L 338.287871 337.425627 
L 338.334902 336.630215 
L 338.358418 336.630215 
L 338.475997 337.425627 
L 352.326826 337.425627 
L 352.444405 338.226741 
L 356.08936 338.226741 
L 356.206939 337.425627 
L 376.809164 337.425627 
L 376.926743 338.226741 
L 390.544765 338.226741 
L 390.662344 339.03364 
L 403.643086 339.03364 
L 403.760666 339.846406 
L 415.191714 339.846406 
L 415.309293 340.665128 
L 458.677201 340.665128 
L 458.79478 341.489891 
L 458.982907 341.489891 
L 459.100486 340.665128 
L 459.382676 340.665128 
L 459.47674 341.489891 
L 459.594319 340.665128 
L 459.782445 340.665128 
L 459.900025 341.489891 
L 498.727024 341.489891 
L 498.727024 341.489891 
" style="fill:none;stroke:#1f77b4;stroke-linecap:square;stroke-width:1.5;"/>
   </g>
   <g id="line2d_17">
    <path clip-path="url(#pa5a75a8392)" d="M 92.406273 102.180925 
L 92.594399 140.427146 
L 92.688463 142.779969 
L 92.711979 140.976312 
L 92.923621 133.652045 
L 93.205811 129.601592 
L 93.44097 133.137637 
L 93.60558 137.320766 
L 94.334571 158.686156 
L 94.663793 167.577583 
L 95.13411 178.386233 
L 96.756703 203.275551 
L 97.908979 214.119367 
L 97.932495 214.119367 
L 98.2382 216.528549 
L 98.261716 216.528549 
L 98.543906 218.714535 
L 98.567422 218.714535 
L 98.779065 220.102813 
L 98.802581 220.102813 
L 99.037739 221.791837 
L 99.061255 221.791837 
L 99.249381 222.932203 
L 99.272897 222.932203 
L 99.461024 224.084326 
L 99.48454 224.084326 
L 99.696182 225.541387 
L 99.719698 225.541387 
L 99.907825 226.720869 
L 99.954857 226.720869 
L 100.142983 227.912933 
L 100.166499 227.912933 
L 100.354626 229.11785 
L 100.378142 229.11785 
L 100.566268 230.3359 
L 100.589784 230.3359 
L 100.754395 231.258229 
L 100.777911 231.258229 
L 100.966038 232.499963 
L 101.013069 232.499963 
L 101.17768 233.440403 
L 101.201196 233.440403 
L 101.389323 234.706762 
L 101.436354 234.706762 
L 101.600965 235.666038 
L 101.647997 235.666038 
L 101.812608 236.633619 
L 101.859639 236.633619 
L 102.02425 237.609651 
L 102.071282 237.609651 
L 102.235893 238.594282 
L 102.259409 238.594282 
L 102.42402 239.587666 
L 102.471051 239.587666 
L 102.612146 240.254862 
L 102.635662 240.254862 
L 102.800273 241.263184 
L 102.847305 241.263184 
L 102.9884 241.940489 
L 103.035431 241.940489 
L 103.200042 242.964205 
L 103.27059 242.964205 
L 103.411685 243.65193 
L 103.435201 243.65193 
L 103.576296 244.343914 
L 103.599811 244.343914 
L 103.740906 245.040208 
L 103.764422 245.040208 
L 103.905517 245.740869 
L 103.952549 245.740869 
L 104.093644 246.445949 
L 104.140676 246.445949 
L 104.281771 247.155507 
L 104.305287 247.155507 
L 104.446382 247.869599 
L 104.493413 247.869599 
L 104.634508 248.588282 
L 104.705056 248.588282 
L 104.846151 249.311618 
L 104.893182 249.311618 
L 105.036629 250.039666 
L 105.107177 250.039666 
L 105.248272 250.772488 
L 105.318819 250.772488 
L 105.436398 251.140709 
L 105.459914 251.140709 
L 105.601009 251.88081 
L 105.671557 251.88081 
L 105.812652 252.625846 
L 105.906715 252.625846 
L 106.04781 253.375882 
L 106.118358 253.375882 
L 106.259453 254.130986 
L 106.353516 254.130986 
L 106.494611 254.891226 
L 106.565159 254.891226 
L 106.706254 255.656674 
L 106.800317 255.656674 
L 106.941412 256.427401 
L 107.058991 256.427401 
L 107.17657 256.814767 
L 107.200086 256.814767 
L 107.341181 257.59355 
L 107.45876 257.59355 
L 107.57634 257.984987 
L 107.599855 257.984987 
L 107.717435 258.377799 
L 107.74095 258.377799 
L 107.85853 258.771996 
L 107.882045 258.771996 
L 107.999625 259.16759 
L 108.02314 259.16759 
L 108.14072 259.564588 
L 108.164235 259.564588 
L 108.281815 259.963002 
L 108.328846 259.963002 
L 108.446426 260.362841 
L 108.469941 260.362841 
L 108.587521 260.764116 
L 108.611036 260.764116 
L 108.728616 261.166837 
L 108.752131 261.166837 
L 108.869711 261.571014 
L 108.893226 261.571014 
L 109.010806 261.976659 
L 109.057837 261.976659 
L 109.175417 262.383781 
L 109.198932 262.383781 
L 109.316512 262.792392 
L 109.340027 262.792392 
L 109.457607 263.202502 
L 109.481122 263.202502 
L 109.598702 263.614123 
L 109.669249 263.614123 
L 109.786828 264.027266 
L 109.83386 264.027266 
L 109.951439 264.441941 
L 110.021987 264.441941 
L 110.139566 264.858162 
L 110.186598 264.858162 
L 110.304177 265.275937 
L 110.351208 265.275937 
L 110.468788 265.695281 
L 110.515819 265.695281 
L 110.633398 266.116204 
L 110.656914 266.116204 
L 110.774493 266.538719 
L 110.821525 266.538719 
L 110.939104 266.962837 
L 110.986136 266.962837 
L 111.103715 267.38857 
L 111.150747 267.38857 
L 111.268326 267.815932 
L 111.315358 267.815932 
L 111.432937 268.244934 
L 111.503484 268.244934 
L 111.621064 268.67559 
L 111.691611 268.67559 
L 111.80919 269.107911 
L 111.879738 269.107911 
L 111.997317 269.541911 
L 112.044349 269.541911 
L 112.161928 269.977604 
L 112.232475 269.977604 
L 112.350055 270.415001 
L 112.420602 270.415001 
L 112.538181 270.854118 
L 112.632245 270.854118 
L 112.749824 271.294966 
L 112.843887 271.294966 
L 112.961466 271.73756 
L 113.008498 271.73756 
L 113.126077 272.181915 
L 113.220141 272.181915 
L 113.33772 272.628043 
L 113.455299 272.628043 
L 113.572878 273.075959 
L 113.643426 273.075959 
L 113.761005 273.525678 
L 113.855068 273.525678 
L 113.972647 273.977213 
L 114.043195 273.977213 
L 114.160774 274.430581 
L 114.254837 274.430581 
L 114.372417 274.885795 
L 114.46648 274.885795 
L 114.584059 275.342871 
L 114.678123 275.342871 
L 114.795702 275.801825 
L 114.913281 275.801825 
L 115.03086 276.26267 
L 115.124923 276.26267 
L 115.242503 276.725424 
L 115.360082 276.725424 
L 115.477661 277.190103 
L 115.59524 277.190103 
L 115.712819 277.656721 
L 115.87743 277.656721 
L 115.995009 278.125296 
L 116.136104 278.125296 
L 116.253684 278.595844 
L 116.371263 278.595844 
L 116.488842 279.068381 
L 116.629937 279.068381 
L 116.747516 279.542925 
L 116.888611 279.542925 
L 117.00619 280.019493 
L 117.12377 280.019493 
L 117.241349 280.498101 
L 117.382444 280.498101 
L 117.500023 280.978769 
L 117.617602 280.978769 
L 117.735181 281.461512 
L 117.876276 281.461512 
L 117.993856 281.94635 
L 118.134951 281.94635 
L 118.25253 282.4333 
L 118.393625 282.4333 
L 118.511204 282.922382 
L 118.675815 282.922382 
L 118.793394 283.413613 
L 118.934489 283.413613 
L 119.052068 283.907013 
L 119.193163 283.907013 
L 119.310743 284.402602 
L 119.451838 284.402602 
L 119.569417 284.900397 
L 119.734028 284.900397 
L 119.851607 285.40042 
L 120.039733 285.40042 
L 120.157313 285.90269 
L 120.368955 285.90269 
L 120.486534 286.407228 
L 120.651145 286.407228 
L 120.768724 286.914054 
L 120.980367 286.914054 
L 121.097946 287.423189 
L 121.286073 287.423189 
L 121.403652 287.934654 
L 121.591779 287.934654 
L 121.709358 288.448471 
L 121.944516 288.448471 
L 122.062096 288.964661 
L 122.32077 288.964661 
L 122.438349 289.483247 
L 122.60296 289.483247 
L 122.720539 290.00425 
L 122.955697 290.00425 
L 123.073277 290.527693 
L 123.284919 290.527693 
L 123.402498 291.0536 
L 123.637657 291.0536 
L 123.755236 291.581993 
L 124.01391 291.581993 
L 124.131489 292.112896 
L 124.366648 292.112896 
L 124.484227 292.646334 
L 124.695869 292.646334 
L 124.813449 293.18233 
L 125.072123 293.18233 
L 125.189702 293.720909 
L 125.42486 293.720909 
L 125.542439 294.262096 
L 125.82463 294.262096 
L 125.942209 294.805917 
L 126.200883 294.805917 
L 126.318462 295.352397 
L 126.600652 295.352397 
L 126.718231 295.901562 
L 127.000421 295.901562 
L 127.118001 296.45344 
L 127.423706 296.45344 
L 127.541286 297.008056 
L 127.846992 297.008056 
L 127.964571 297.565438 
L 128.223245 297.565438 
L 128.340824 298.125615 
L 128.623014 298.125615 
L 128.740593 298.688613 
L 129.022783 298.688613 
L 129.140363 299.254462 
L 129.446069 299.254462 
L 129.563648 299.823191 
L 129.869354 299.823191 
L 129.986933 300.394828 
L 130.33967 300.394828 
L 130.45725 300.969405 
L 130.762955 300.969405 
L 130.880535 301.546952 
L 131.18624 301.546952 
L 131.30382 302.127498 
L 131.656557 302.127498 
L 131.774136 302.711076 
L 132.126874 302.711076 
L 132.244453 303.297718 
L 132.599542 303.297718 
L 132.717122 303.887455 
L 133.046343 303.887455 
L 133.163922 304.480321 
L 133.469628 304.480321 
L 133.587208 305.076348 
L 133.916429 305.076348 
L 134.034008 305.675572 
L 134.457294 305.675572 
L 134.574873 306.278026 
L 134.951126 306.278026 
L 135.068705 306.883745 
L 135.444959 306.883745 
L 135.562538 307.492766 
L 135.915275 307.492766 
L 136.032855 308.105123 
L 136.432624 308.105123 
L 136.550203 308.720854 
L 136.926456 308.720854 
L 137.044036 309.339997 
L 137.490837 309.339997 
L 137.608416 309.962589 
L 138.031701 309.962589 
L 138.14928 310.588668 
L 138.525533 310.588668 
L 138.643113 311.218275 
L 139.113429 311.218275 
L 139.231009 311.85145 
L 139.724841 311.85145 
L 139.84242 312.488232 
L 140.336253 312.488232 
L 140.453832 313.128663 
L 140.947665 313.128663 
L 141.065244 313.772785 
L 141.65314 313.772785 
L 141.770719 314.420642 
L 142.358615 314.420642 
L 142.476194 315.072276 
L 143.06409 315.072276 
L 143.181669 315.727732 
L 143.793081 315.727732 
L 143.91066 316.387055 
L 144.47504 316.387055 
L 144.59262 317.050291 
L 145.180515 317.050291 
L 145.298095 317.717487 
L 145.956538 317.717487 
L 146.074117 318.38869 
L 146.803108 318.38869 
L 146.920687 319.063949 
L 147.626163 319.063949 
L 147.743742 319.743312 
L 148.449217 319.743312 
L 148.566796 320.426831 
L 149.342819 320.426831 
L 149.460398 321.114556 
L 150.165873 321.114556 
L 150.283452 321.806539 
L 151.012443 321.806539 
L 151.130022 322.502834 
L 151.929561 322.502834 
L 152.04714 323.203494 
L 152.917226 323.203494 
L 153.034805 323.908575 
L 153.85786 323.908575 
L 153.975439 324.618132 
L 154.798493 324.618132 
L 154.916072 325.332224 
L 155.809674 325.332224 
L 155.927253 326.050908 
L 156.914918 326.050908 
L 157.032498 326.774243 
L 157.902584 326.774243 
L 158.020163 327.502291 
L 159.05486 327.502291 
L 159.172439 328.235113 
L 160.113072 328.235113 
L 160.230652 328.972772 
L 161.31238 328.972772 
L 161.429959 329.715333 
L 162.652783 329.715333 
L 162.770362 330.46286 
L 164.016701 330.46286 
L 164.134281 331.215421 
L 165.33594 331.215421 
L 165.453519 331.973085 
L 166.74689 331.973085 
L 166.864469 332.73592 
L 168.228388 332.73592 
L 168.345967 333.503999 
L 169.756917 333.503999 
L 169.874496 334.277392 
L 171.332478 334.277392 
L 171.450058 335.056176 
L 173.07265 335.056176 
L 173.19023 335.840424 
L 174.930402 335.840424 
L 175.047981 336.630215 
L 176.811669 336.630215 
L 176.929248 337.425627 
L 178.716451 337.425627 
L 178.834031 338.226741 
L 180.64475 338.226741 
L 180.762329 339.03364 
L 182.690628 339.03364 
L 182.808207 339.846406 
L 184.854085 339.846406 
L 184.971664 340.665128 
L 187.229185 340.665128 
L 187.346764 341.489891 
L 189.768895 341.489891 
L 189.886474 342.320787 
L 192.167511 342.320787 
L 192.28509 343.157906 
L 194.54261 343.157906 
L 194.660189 344.001344 
L 197.225767 344.001344 
L 197.343346 344.851196 
L 200.188763 344.851196 
L 200.306342 345.707559 
L 202.963632 345.707559 
L 203.081211 346.570536 
L 206.514523 346.570536 
L 206.632102 347.440229 
L 210.065415 347.440229 
L 210.182994 348.316743 
L 213.59279 348.316743 
L 213.710369 349.200186 
L 217.663382 349.200186 
L 217.780961 350.090668 
L 222.037327 350.090668 
L 222.154907 350.988303 
L 226.669947 350.988303 
L 226.787527 351.893206 
L 231.678821 351.893206 
L 231.7964 352.805497 
L 236.995752 352.805497 
L 237.113331 353.725296 
L 242.310331 353.725296 
L 242.42791 354.652728 
L 249.176956 354.652728 
L 249.294535 355.587921 
L 256.396318 355.587921 
L 256.513897 356.531006 
L 265.358203 356.531006 
L 265.475783 357.482118 
L 273.518199 357.482118 
L 273.635778 358.441394 
L 284.382516 358.441394 
L 284.500095 359.408975 
L 295.978176 359.408975 
L 296.095755 360.385007 
L 308.747275 360.385007 
L 308.864855 361.369639 
L 323.682184 361.369639 
L 323.799763 362.363022 
L 339.978659 362.363022 
L 340.096238 363.365316 
L 358.582038 363.365316 
L 358.699618 364.37668 
L 378.478789 364.37668 
L 378.596368 365.39728 
L 401.92643 365.39728 
L 402.044009 366.427287 
L 429.303568 366.427287 
L 429.397632 367.466875 
L 429.421148 366.427287 
L 429.491695 367.466875 
L 466.719618 367.466875 
L 466.837197 368.516225 
L 498.729376 368.516225 
L 498.729376 368.516225 
" style="fill:none;stroke:#ff7f0e;stroke-linecap:square;stroke-width:1.5;"/>
   </g>
   <g id="line2d_18">
    <path clip-path="url(#pa5a75a8392)" d="M 92.406273 72.7632 
L 92.570884 104.838367 
L 92.900105 119.051963 
L 93.205811 125.094242 
L 93.346906 127.50805 
L 93.864255 135.99664 
L 94.169961 139.472553 
L 94.334571 140.976312 
L 95.792553 159.333075 
L 97.979526 188.022787 
L 100.119467 206.197416 
L 100.142983 206.197416 
L 100.401658 207.937795 
L 100.425173 207.937795 
L 100.707363 209.960564 
L 100.730879 209.960564 
L 100.942522 211.243643 
L 100.966038 211.243643 
L 101.17768 212.541624 
L 101.201196 212.541624 
L 101.436354 214.119367 
L 101.45987 214.119367 
L 101.671513 215.451385 
L 101.718544 215.451385 
L 101.906671 216.528549 
L 101.930187 216.528549 
L 102.141829 217.889771 
L 102.188861 217.889771 
L 102.376988 218.990814 
L 102.400504 218.990814 
L 102.58863 220.102813 
L 102.612146 220.102813 
L 102.800273 221.225988 
L 102.847305 221.225988 
L 103.035431 222.360565 
L 103.082463 222.360565 
L 103.27059 223.50678 
L 103.317621 223.50678 
L 103.482232 224.374222 
L 103.505748 224.374222 
L 103.670359 225.248451 
L 103.693875 225.248451 
L 103.858486 226.129572 
L 103.882001 226.129572 
L 104.046612 227.017695 
L 104.070128 227.017695 
L 104.234739 227.912933 
L 104.281771 227.912933 
L 104.446382 228.815401 
L 104.493413 228.815401 
L 104.658024 229.725215 
L 104.68154 229.725215 
L 104.822635 230.3359 
L 104.846151 230.3359 
L 105.010762 231.258229 
L 105.057793 231.258229 
L 105.198888 231.877372 
L 105.222404 231.877372 
L 105.387015 232.812565 
L 105.459914 232.812565 
L 105.601009 233.440403 
L 105.624525 233.440403 
L 105.76562 234.071789 
L 105.789136 234.071789 
L 105.930231 234.706762 
L 105.953747 234.706762 
L 106.094842 235.345363 
L 106.141873 235.345363 
L 106.282968 235.987635 
L 106.306484 235.987635 
L 106.447579 236.633619 
L 106.471095 236.633619 
L 106.61219 237.283359 
L 106.659222 237.283359 
L 106.800317 237.936898 
L 106.847349 237.936898 
L 106.988444 238.594282 
L 107.058991 238.594282 
L 107.200086 239.255556 
L 107.247118 239.255556 
L 107.388213 239.920766 
L 107.45876 239.920766 
L 107.599855 240.589959 
L 107.623371 240.589959 
L 107.764466 241.263184 
L 107.811498 241.263184 
L 107.952593 241.940489 
L 108.02314 241.940489 
L 108.164235 242.621923 
L 108.211267 242.621923 
L 108.352362 243.307539 
L 108.446426 243.307539 
L 108.587521 243.997386 
L 108.658068 243.997386 
L 108.799163 244.691519 
L 108.869711 244.691519 
L 109.010806 245.389989 
L 109.081353 245.389989 
L 109.222448 246.092853 
L 109.316512 246.092853 
L 109.457607 246.800165 
L 109.55167 246.800165 
L 109.692765 247.511982 
L 109.786828 247.511982 
L 109.927923 248.228363 
L 110.045503 248.228363 
L 110.186598 248.949365 
L 110.280661 248.949365 
L 110.39824 249.311618 
L 110.421756 249.311618 
L 110.539335 249.675049 
L 110.562851 249.675049 
L 110.68043 250.039666 
L 110.703946 250.039666 
L 110.821525 250.405476 
L 110.845041 250.405476 
L 110.986136 251.140709 
L 111.103715 251.140709 
L 111.24481 251.88081 
L 111.362389 251.88081 
L 111.479969 252.252707 
L 111.503484 252.252707 
L 111.621064 252.625846 
L 111.668095 252.625846 
L 111.785674 253.000235 
L 111.80919 253.000235 
L 111.950285 253.752796 
L 112.09138 253.752796 
L 112.20896 254.130986 
L 112.232475 254.130986 
L 112.350055 254.51046 
L 112.397086 254.51046 
L 112.514665 254.891226 
L 112.538181 254.891226 
L 112.65576 255.273295 
L 112.702792 255.273295 
L 112.820371 255.656674 
L 112.843887 255.656674 
L 112.961466 256.041373 
L 113.008498 256.041373 
L 113.126077 256.427401 
L 113.173109 256.427401 
L 113.290688 256.814767 
L 113.33772 256.814767 
L 113.455299 257.20348 
L 113.502331 257.20348 
L 113.61991 257.59355 
L 113.666941 257.59355 
L 113.784521 257.984987 
L 113.831552 257.984987 
L 113.949132 258.377799 
L 114.019679 258.377799 
L 114.137258 258.771996 
L 114.18429 258.771996 
L 114.301869 259.16759 
L 114.372417 259.16759 
L 114.489996 259.564588 
L 114.537027 259.564588 
L 114.654607 259.963002 
L 114.701638 259.963002 
L 114.819218 260.362841 
L 114.913281 260.362841 
L 115.03086 260.764116 
L 115.077892 260.764116 
L 115.195471 261.166837 
L 115.266018 261.166837 
L 115.383598 261.571014 
L 115.454145 261.571014 
L 115.571724 261.976659 
L 115.642272 261.976659 
L 115.759851 262.383781 
L 115.830399 262.383781 
L 115.947978 262.792392 
L 116.018525 262.792392 
L 116.136104 263.202502 
L 116.230168 263.202502 
L 116.347747 263.614123 
L 116.418294 263.614123 
L 116.535874 264.027266 
L 116.629937 264.027266 
L 116.747516 264.441941 
L 116.84158 264.441941 
L 116.959159 264.858162 
L 117.029706 264.858162 
L 117.147285 265.275937 
L 117.217833 265.275937 
L 117.335412 265.695281 
L 117.40596 265.695281 
L 117.523539 266.116204 
L 117.617602 266.116204 
L 117.735181 266.538719 
L 117.829245 266.538719 
L 117.946824 266.962837 
L 118.017371 266.962837 
L 118.134951 267.38857 
L 118.25253 267.38857 
L 118.370109 267.815932 
L 118.464172 267.815932 
L 118.581752 268.244934 
L 118.675815 268.244934 
L 118.793394 268.67559 
L 118.887457 268.67559 
L 119.005037 269.107911 
L 119.0991 269.107911 
L 119.216679 269.541911 
L 119.310743 269.541911 
L 119.428322 269.977604 
L 119.522385 269.977604 
L 119.639964 270.415001 
L 119.757543 270.415001 
L 119.875123 270.854118 
L 119.992702 270.854118 
L 120.110281 271.294966 
L 120.204344 271.294966 
L 120.321924 271.73756 
L 120.415987 271.73756 
L 120.533566 272.181915 
L 120.627629 272.181915 
L 120.745209 272.628043 
L 120.862788 272.628043 
L 120.980367 273.075959 
L 121.07443 273.075959 
L 121.19201 273.525678 
L 121.309589 273.525678 
L 121.427168 273.977213 
L 121.544747 273.977213 
L 121.662326 274.430581 
L 121.75639 274.430581 
L 121.873969 274.885795 
L 121.968032 274.885795 
L 122.085611 275.342871 
L 122.226706 275.342871 
L 122.344286 275.801825 
L 122.461865 275.801825 
L 122.579444 276.26267 
L 122.697023 276.26267 
L 122.814602 276.725424 
L 122.955697 276.725424 
L 123.073277 277.190103 
L 123.214372 277.190103 
L 123.331951 277.656721 
L 123.426014 277.656721 
L 123.543593 278.125296 
L 123.684688 278.125296 
L 123.802267 278.595844 
L 123.966878 278.595844 
L 124.084458 279.068381 
L 124.249068 279.068381 
L 124.366648 279.542925 
L 124.531258 279.542925 
L 124.648838 280.019493 
L 124.813449 280.019493 
L 124.931028 280.498101 
L 125.072123 280.498101 
L 125.189702 280.978769 
L 125.307281 280.978769 
L 125.42486 281.461512 
L 125.612987 281.461512 
L 125.730566 281.94635 
L 125.918693 281.94635 
L 126.036272 282.4333 
L 126.179719 282.4333 
L 126.297298 282.922382 
L 126.438393 282.922382 
L 126.555972 283.413613 
L 126.744099 283.413613 
L 126.861678 283.907013 
L 127.026289 283.907013 
L 127.143868 284.402602 
L 127.308479 284.402602 
L 127.426058 284.900397 
L 127.614185 284.900397 
L 127.731764 285.40042 
L 127.919891 285.40042 
L 128.03747 285.90269 
L 128.249112 285.90269 
L 128.366692 286.407228 
L 128.531302 286.407228 
L 128.648882 286.914054 
L 128.813492 286.914054 
L 128.931072 287.423189 
L 129.142714 287.423189 
L 129.260293 287.934654 
L 129.424904 287.934654 
L 129.542483 288.448471 
L 129.73061 288.448471 
L 129.848189 288.964661 
L 130.083348 288.964661 
L 130.200927 289.483247 
L 130.412569 289.483247 
L 130.530149 290.00425 
L 130.765307 290.00425 
L 130.882886 290.527693 
L 131.094529 290.527693 
L 131.212108 291.0536 
L 131.447266 291.0536 
L 131.564845 291.581993 
L 131.776488 291.581993 
L 131.894067 292.112896 
L 132.129226 292.112896 
L 132.246805 292.646334 
L 132.481963 292.646334 
L 132.599542 293.18233 
L 132.858217 293.18233 
L 132.975796 293.720909 
L 133.23447 293.720909 
L 133.352049 294.262096 
L 133.587208 294.262096 
L 133.704787 294.805917 
L 133.963461 294.805917 
L 134.08104 295.352397 
L 134.36323 295.352397 
L 134.480809 295.901562 
L 134.715968 295.901562 
L 134.833547 296.45344 
L 135.092221 296.45344 
L 135.2098 297.008056 
L 135.49199 297.008056 
L 135.60957 297.565438 
L 135.844728 297.565438 
L 135.962307 298.125615 
L 136.244497 298.125615 
L 136.362076 298.688613 
L 136.644266 298.688613 
L 136.761846 299.254462 
L 137.091067 299.254462 
L 137.208647 299.823191 
L 137.514352 299.823191 
L 137.631932 300.394828 
L 137.961153 300.394828 
L 138.078732 300.969405 
L 138.407954 300.969405 
L 138.525533 301.546952 
L 138.854755 301.546952 
L 138.972334 302.127498 
L 139.301556 302.127498 
L 139.419135 302.711076 
L 139.771873 302.711076 
L 139.889452 303.297718 
L 140.218674 303.297718 
L 140.336253 303.887455 
L 140.665475 303.887455 
L 140.783054 304.480321 
L 141.182823 304.480321 
L 141.300402 305.076348 
L 141.65314 305.076348 
L 141.770719 305.675572 
L 142.123457 305.675572 
L 142.241036 306.278026 
L 142.640805 306.278026 
L 142.758384 306.883745 
L 143.134638 306.883745 
L 143.252217 307.492766 
L 143.651986 307.492766 
L 143.769565 308.105123 
L 144.19285 308.105123 
L 144.310429 308.720854 
L 144.710199 308.720854 
L 144.827778 309.339997 
L 145.274579 309.339997 
L 145.392158 309.962589 
L 145.815443 309.962589 
L 145.933022 310.588668 
L 146.382175 310.588668 
L 146.499754 311.218275 
L 146.993587 311.218275 
L 147.111166 311.85145 
L 147.534451 311.85145 
L 147.65203 312.488232 
L 148.145863 312.488232 
L 148.263442 313.128663 
L 148.78079 313.128663 
L 148.898369 313.772785 
L 149.392202 313.772785 
L 149.509781 314.420642 
L 150.050645 314.420642 
L 150.168225 315.072276 
L 150.685573 315.072276 
L 150.803152 315.727732 
L 151.344016 315.727732 
L 151.461596 316.387055 
L 152.025976 316.387055 
L 152.143555 317.050291 
L 152.731451 317.050291 
L 152.84903 317.717487 
L 153.436926 317.717487 
L 153.554505 318.38869 
L 154.165917 318.38869 
L 154.283496 319.063949 
L 154.847876 319.063949 
L 154.965455 319.743312 
L 155.576867 319.743312 
L 155.694446 320.426831 
L 156.305858 320.426831 
L 156.423437 321.114556 
L 157.011333 321.114556 
L 157.128913 321.806539 
L 157.716808 321.806539 
L 157.834388 322.502834 
L 158.516347 322.502834 
L 158.633926 323.203494 
L 159.29237 323.203494 
L 159.409949 323.908575 
L 160.115424 323.908575 
L 160.233003 324.618132 
L 160.961994 324.618132 
L 161.079573 325.332224 
L 161.83208 325.332224 
L 161.949659 326.050908 
L 162.655134 326.050908 
L 162.772714 326.774243 
L 163.52522 326.774243 
L 163.6428 327.502291 
L 164.371791 327.502291 
L 164.48937 328.235113 
L 165.359456 328.235113 
L 165.477035 328.972772 
L 166.302441 328.972772 
L 166.42002 329.715333 
L 167.26659 329.715333 
L 167.384169 330.46286 
L 168.348319 330.46286 
L 168.465898 331.215421 
L 169.406531 331.215421 
L 169.524111 331.973085 
L 170.417712 331.973085 
L 170.535292 332.73592 
L 171.428893 332.73592 
L 171.546473 333.503999 
L 172.487106 333.503999 
L 172.604685 334.277392 
L 173.615866 334.277392 
L 173.733445 335.056176 
L 174.697595 335.056176 
L 174.815174 335.840424 
L 175.873387 335.840424 
L 175.990966 336.630215 
L 177.072694 336.630215 
L 177.190274 337.425627 
L 178.295518 337.425627 
L 178.413097 338.226741 
L 179.565373 338.226741 
L 179.682952 339.03364 
L 180.811713 339.03364 
L 180.929292 339.846406 
L 182.175631 339.846406 
L 182.29321 340.665128 
L 183.610097 340.665128 
L 183.727676 341.489891 
L 184.9505 341.489891 
L 185.068079 342.320787 
L 186.59896 342.320787 
L 186.716539 343.157906 
L 188.151005 343.157906 
L 188.268585 344.001344 
L 189.750082 344.001344 
L 189.867662 344.851196 
L 191.302128 344.851196 
L 191.419707 345.707559 
L 192.877689 345.707559 
L 192.995268 346.570536 
L 194.547313 346.570536 
L 194.664892 347.440229 
L 196.216938 347.440229 
L 196.334517 348.316743 
L 198.027657 348.316743 
L 198.145236 349.200186 
L 199.697282 349.200186 
L 199.814861 350.090668 
L 201.508001 350.090668 
L 201.62558 350.988303 
L 203.365752 350.988303 
L 203.483332 351.893206 
L 205.152956 351.893206 
L 205.270535 352.805497 
L 207.083606 352.805497 
L 207.201186 353.725296 
L 209.105968 353.725296 
L 209.223548 354.652728 
L 211.222394 354.652728 
L 211.339973 355.587921 
L 213.315303 355.587921 
L 213.432882 356.531006 
L 215.47876 356.531006 
L 215.59634 357.482118 
L 217.736281 357.482118 
L 217.85386 358.441394 
L 220.134896 358.441394 
L 220.252475 359.408975 
L 222.674607 359.408975 
L 222.792186 360.385007 
L 225.214317 360.385007 
L 225.331896 361.369639 
L 227.897474 361.369639 
L 228.015053 362.363022 
L 230.648827 362.363022 
L 230.766406 363.365316 
L 233.517759 363.365316 
L 233.635339 364.37668 
L 236.504271 364.37668 
L 236.62185 365.39728 
L 239.514298 365.39728 
L 239.631877 366.427287 
L 242.853547 366.427287 
L 242.971126 367.466875 
L 246.359758 367.466875 
L 246.477337 368.516225 
L 249.934166 368.516225 
L 250.051745 369.575521 
L 253.673184 369.575521 
L 253.790763 370.644955 
L 257.623844 370.644955 
L 257.741424 371.724721 
L 261.99779 371.724721 
L 262.115369 372.815022 
L 266.327056 372.815022 
L 266.444635 373.916065 
L 270.93616 373.916065 
L 271.053739 375.028063 
L 275.803939 375.028063 
L 275.921518 376.151238 
L 280.648201 376.151238 
L 280.76578 377.285816 
L 285.751138 377.285816 
L 285.868717 378.432031 
L 291.39729 378.432031 
L 291.51487 379.590123 
L 296.99406 379.590123 
L 297.111639 380.760343 
L 303.437399 380.760343 
L 303.554978 381.942946 
L 309.836059 381.942946 
L 309.953638 383.138197 
L 316.373462 383.138197 
L 316.491041 384.346371 
L 323.475244 384.346371 
L 323.592824 385.567748 
L 331.049696 385.567748 
L 331.167275 386.802622 
L 339.256723 386.802622 
L 339.374302 388.051294 
L 348.051646 388.051294 
L 348.169226 389.314075 
L 357.507365 389.314075 
L 357.624944 390.591288 
L 367.736754 390.591288 
L 367.854333 391.883267 
L 378.859745 391.883267 
L 378.977324 393.190358 
L 391.137364 393.190358 
L 391.254943 394.512917 
L 405.225702 394.512917 
L 405.343281 395.851315 
L 420.816703 395.851315 
L 420.934282 397.205937 
L 437.632878 397.205937 
L 437.750457 398.577181 
L 456.73009 398.577181 
L 456.847669 399.965459 
L 479.140683 399.965459 
L 479.258262 401.3712 
L 498.731727 401.3712 
L 498.731727 401.3712 
" style="fill:none;stroke:#2ca02c;stroke-linecap:square;stroke-width:1.5;"/>
   </g>
   <g id="patch_3">
    <path d="M 72.09 417.8016 
L 72.09 56.3328 
" style="fill:none;stroke:#000000;stroke-linecap:square;stroke-linejoin:miter;stroke-width:0.8;"/>
   </g>
   <g id="patch_4">
    <path d="M 519.048 417.8016 
L 519.048 56.3328 
" style="fill:none;stroke:#000000;stroke-linecap:square;stroke-linejoin:miter;stroke-width:0.8;"/>
   </g>
   <g id="patch_5">
    <path d="M 72.09 417.8016 
L 519.048 417.8016 
" style="fill:none;stroke:#000000;stroke-linecap:square;stroke-linejoin:miter;stroke-width:0.8;"/>
   </g>
   <g id="patch_6">
    <path d="M 72.09 56.3328 
L 519.048 56.3328 
" style="fill:none;stroke:#000000;stroke-linecap:square;stroke-linejoin:miter;stroke-width:0.8;"/>
   </g>
   <g id="text_18">
    <!-- Execution Speed Over Time -->
    <defs>
     <path d="M 9.8125 72.90625 
L 55.90625 72.90625 
L 55.90625 64.59375 
L 19.671875 64.59375 
L 19.671875 43.015625 
L 54.390625 43.015625 
L 54.390625 34.71875 
L 19.671875 34.71875 
L 19.671875 8.296875 
L 56.78125 8.296875 
L 56.78125 0 
L 9.8125 0 
z
" id="DejaVuSans-69"/>
     <path d="M 54.890625 54.6875 
L 35.109375 28.078125 
L 55.90625 0 
L 45.3125 0 
L 29.390625 21.484375 
L 13.484375 0 
L 2.875 0 
L 24.125 28.609375 
L 4.6875 54.6875 
L 15.28125 54.6875 
L 29.78125 35.203125 
L 44.28125 54.6875 
z
" id="DejaVuSans-120"/>
     <path d="M 8.5 21.578125 
L 8.5 54.6875 
L 17.484375 54.6875 
L 17.484375 21.921875 
Q 17.484375 14.15625 20.5 10.265625 
Q 23.53125 6.390625 29.59375 6.390625 
Q 36.859375 6.390625 41.078125 11.03125 
Q 45.3125 15.671875 45.3125 23.6875 
L 45.3125 54.6875 
L 54.296875 54.6875 
L 54.296875 0 
L 45.3125 0 
L 45.3125 8.40625 
Q 42.046875 3.421875 37.71875 1 
Q 33.40625 -1.421875 27.6875 -1.421875 
Q 18.265625 -1.421875 13.375 4.4375 
Q 8.5 10.296875 8.5 21.578125 
z
M 31.109375 56 
z
" id="DejaVuSans-117"/>
     <path d="M 18.3125 70.21875 
L 18.3125 54.6875 
L 36.8125 54.6875 
L 36.8125 47.703125 
L 18.3125 47.703125 
L 18.3125 18.015625 
Q 18.3125 11.328125 20.140625 9.421875 
Q 21.96875 7.515625 27.59375 7.515625 
L 36.8125 7.515625 
L 36.8125 0 
L 27.59375 0 
Q 17.1875 0 13.234375 3.875 
Q 9.28125 7.765625 9.28125 18.015625 
L 9.28125 47.703125 
L 2.6875 47.703125 
L 2.6875 54.6875 
L 9.28125 54.6875 
L 9.28125 70.21875 
z
" id="DejaVuSans-116"/>
     <path d="M 39.40625 66.21875 
Q 28.65625 66.21875 22.328125 58.203125 
Q 16.015625 50.203125 16.015625 36.375 
Q 16.015625 22.609375 22.328125 14.59375 
Q 28.65625 6.59375 39.40625 6.59375 
Q 50.140625 6.59375 56.421875 14.59375 
Q 62.703125 22.609375 62.703125 36.375 
Q 62.703125 50.203125 56.421875 58.203125 
Q 50.140625 66.21875 39.40625 66.21875 
z
M 39.40625 74.21875 
Q 54.734375 74.21875 63.90625 63.9375 
Q 73.09375 53.65625 73.09375 36.375 
Q 73.09375 19.140625 63.90625 8.859375 
Q 54.734375 -1.421875 39.40625 -1.421875 
Q 24.03125 -1.421875 14.8125 8.828125 
Q 5.609375 19.09375 5.609375 36.375 
Q 5.609375 53.65625 14.8125 63.9375 
Q 24.03125 74.21875 39.40625 74.21875 
z
" id="DejaVuSans-79"/>
     <path d="M 2.984375 54.6875 
L 12.5 54.6875 
L 29.59375 8.796875 
L 46.6875 54.6875 
L 56.203125 54.6875 
L 35.6875 0 
L 23.484375 0 
z
" id="DejaVuSans-118"/>
     <path d="M 41.109375 46.296875 
Q 39.59375 47.171875 37.8125 47.578125 
Q 36.03125 48 33.890625 48 
Q 26.265625 48 22.1875 43.046875 
Q 18.109375 38.09375 18.109375 28.8125 
L 18.109375 0 
L 9.078125 0 
L 9.078125 54.6875 
L 18.109375 54.6875 
L 18.109375 46.1875 
Q 20.953125 51.171875 25.484375 53.578125 
Q 30.03125 56 36.53125 56 
Q 37.453125 56 38.578125 55.875 
Q 39.703125 55.765625 41.0625 55.515625 
z
" id="DejaVuSans-114"/>
    </defs>
    <g transform="translate(212.113687 50.3328)scale(0.12 -0.12)">
     <use xlink:href="#DejaVuSans-69"/>
     <use x="63.183594" xlink:href="#DejaVuSans-120"/>
     <use x="122.316406" xlink:href="#DejaVuSans-101"/>
     <use x="183.839844" xlink:href="#DejaVuSans-99"/>
     <use x="238.820312" xlink:href="#DejaVuSans-117"/>
     <use x="302.199219" xlink:href="#DejaVuSans-116"/>
     <use x="341.408203" xlink:href="#DejaVuSans-105"/>
     <use x="369.191406" xlink:href="#DejaVuSans-111"/>
     <use x="430.373047" xlink:href="#DejaVuSans-110"/>
     <use x="493.751953" xlink:href="#DejaVuSans-32"/>
     <use x="525.539062" xlink:href="#DejaVuSans-83"/>
     <use x="589.015625" xlink:href="#DejaVuSans-112"/>
     <use x="652.492188" xlink:href="#DejaVuSans-101"/>
     <use x="714.015625" xlink:href="#DejaVuSans-101"/>
     <use x="775.539062" xlink:href="#DejaVuSans-100"/>
     <use x="839.015625" xlink:href="#DejaVuSans-32"/>
     <use x="870.802734" xlink:href="#DejaVuSans-79"/>
     <use x="949.513672" xlink:href="#DejaVuSans-118"/>
     <use x="1008.693359" xlink:href="#DejaVuSans-101"/>
     <use x="1070.216797" xlink:href="#DejaVuSans-114"/>
     <use x="1111.330078" xlink:href="#DejaVuSans-32"/>
     <use x="1143.117188" xlink:href="#DejaVuSans-84"/>
     <use x="1204.154297" xlink:href="#DejaVuSans-105"/>
     <use x="1231.9375" xlink:href="#DejaVuSans-109"/>
     <use x="1329.349609" xlink:href="#DejaVuSans-101"/>
    </g>
   </g>
   <g id="legend_1">
    <g id="patch_7">
     <path d="M 79.09 412.8016 
L 155.880625 412.8016 
Q 157.880625 412.8016 157.880625 410.8016 
L 157.880625 367.767225 
Q 157.880625 365.767225 155.880625 365.767225 
L 79.09 365.767225 
Q 77.09 365.767225 77.09 367.767225 
L 77.09 410.8016 
Q 77.09 412.8016 79.09 412.8016 
z
" style="fill:#ffffff;opacity:0.8;stroke:#cccccc;stroke-linejoin:miter;"/>
    </g>
    <g id="line2d_19">
     <path d="M 81.09 373.865662 
L 101.09 373.865662 
" style="fill:none;stroke:#1f77b4;stroke-linecap:square;stroke-width:1.5;"/>
    </g>
    <g id="line2d_20"/>
    <g id="text_19">
     <!-- e-greedy -->
     <defs>
      <path d="M 4.890625 31.390625 
L 31.203125 31.390625 
L 31.203125 23.390625 
L 4.890625 23.390625 
z
" id="DejaVuSans-45"/>
      <path d="M 45.40625 27.984375 
Q 45.40625 37.75 41.375 43.109375 
Q 37.359375 48.484375 30.078125 48.484375 
Q 22.859375 48.484375 18.828125 43.109375 
Q 14.796875 37.75 14.796875 27.984375 
Q 14.796875 18.265625 18.828125 12.890625 
Q 22.859375 7.515625 30.078125 7.515625 
Q 37.359375 7.515625 41.375 12.890625 
Q 45.40625 18.265625 45.40625 27.984375 
z
M 54.390625 6.78125 
Q 54.390625 -7.171875 48.1875 -13.984375 
Q 42 -20.796875 29.203125 -20.796875 
Q 24.46875 -20.796875 20.265625 -20.09375 
Q 16.0625 -19.390625 12.109375 -17.921875 
L 12.109375 -9.1875 
Q 16.0625 -11.328125 19.921875 -12.34375 
Q 23.78125 -13.375 27.78125 -13.375 
Q 36.625 -13.375 41.015625 -8.765625 
Q 45.40625 -4.15625 45.40625 5.171875 
L 45.40625 9.625 
Q 42.625 4.78125 38.28125 2.390625 
Q 33.9375 0 27.875 0 
Q 17.828125 0 11.671875 7.65625 
Q 5.515625 15.328125 5.515625 27.984375 
Q 5.515625 40.671875 11.671875 48.328125 
Q 17.828125 56 27.875 56 
Q 33.9375 56 38.28125 53.609375 
Q 42.625 51.21875 45.40625 46.390625 
L 45.40625 54.6875 
L 54.390625 54.6875 
z
" id="DejaVuSans-103"/>
      <path d="M 32.171875 -5.078125 
Q 28.375 -14.84375 24.75 -17.8125 
Q 21.140625 -20.796875 15.09375 -20.796875 
L 7.90625 -20.796875 
L 7.90625 -13.28125 
L 13.1875 -13.28125 
Q 16.890625 -13.28125 18.9375 -11.515625 
Q 21 -9.765625 23.484375 -3.21875 
L 25.09375 0.875 
L 2.984375 54.6875 
L 12.5 54.6875 
L 29.59375 11.921875 
L 46.6875 54.6875 
L 56.203125 54.6875 
z
" id="DejaVuSans-121"/>
     </defs>
     <g transform="translate(109.09 377.365662)scale(0.1 -0.1)">
      <use xlink:href="#DejaVuSans-101"/>
      <use x="61.523438" xlink:href="#DejaVuSans-45"/>
      <use x="97.607422" xlink:href="#DejaVuSans-103"/>
      <use x="161.083984" xlink:href="#DejaVuSans-114"/>
      <use x="202.166016" xlink:href="#DejaVuSans-101"/>
      <use x="263.689453" xlink:href="#DejaVuSans-101"/>
      <use x="325.212891" xlink:href="#DejaVuSans-100"/>
      <use x="388.689453" xlink:href="#DejaVuSans-121"/>
     </g>
    </g>
    <g id="line2d_21">
     <path d="M 81.09 388.543787 
L 101.09 388.543787 
" style="fill:none;stroke:#ff7f0e;stroke-linecap:square;stroke-width:1.5;"/>
    </g>
    <g id="line2d_22"/>
    <g id="text_20">
     <!-- ucb -->
     <defs>
      <path d="M 48.6875 27.296875 
Q 48.6875 37.203125 44.609375 42.84375 
Q 40.53125 48.484375 33.40625 48.484375 
Q 26.265625 48.484375 22.1875 42.84375 
Q 18.109375 37.203125 18.109375 27.296875 
Q 18.109375 17.390625 22.1875 11.75 
Q 26.265625 6.109375 33.40625 6.109375 
Q 40.53125 6.109375 44.609375 11.75 
Q 48.6875 17.390625 48.6875 27.296875 
z
M 18.109375 46.390625 
Q 20.953125 51.265625 25.265625 53.625 
Q 29.59375 56 35.59375 56 
Q 45.5625 56 51.78125 48.09375 
Q 58.015625 40.1875 58.015625 27.296875 
Q 58.015625 14.40625 51.78125 6.484375 
Q 45.5625 -1.421875 35.59375 -1.421875 
Q 29.59375 -1.421875 25.265625 0.953125 
Q 20.953125 3.328125 18.109375 8.203125 
L 18.109375 0 
L 9.078125 0 
L 9.078125 75.984375 
L 18.109375 75.984375 
z
" id="DejaVuSans-98"/>
     </defs>
     <g transform="translate(109.09 392.043787)scale(0.1 -0.1)">
      <use xlink:href="#DejaVuSans-117"/>
      <use x="63.378906" xlink:href="#DejaVuSans-99"/>
      <use x="118.359375" xlink:href="#DejaVuSans-98"/>
     </g>
    </g>
    <g id="line2d_23">
     <path d="M 81.09 403.221912 
L 101.09 403.221912 
" style="fill:none;stroke:#2ca02c;stroke-linecap:square;stroke-width:1.5;"/>
    </g>
    <g id="line2d_24"/>
    <g id="text_21">
     <!-- random -->
     <defs>
      <path d="M 34.28125 27.484375 
Q 23.390625 27.484375 19.1875 25 
Q 14.984375 22.515625 14.984375 16.5 
Q 14.984375 11.71875 18.140625 8.90625 
Q 21.296875 6.109375 26.703125 6.109375 
Q 34.1875 6.109375 38.703125 11.40625 
Q 43.21875 16.703125 43.21875 25.484375 
L 43.21875 27.484375 
z
M 52.203125 31.203125 
L 52.203125 0 
L 43.21875 0 
L 43.21875 8.296875 
Q 40.140625 3.328125 35.546875 0.953125 
Q 30.953125 -1.421875 24.3125 -1.421875 
Q 15.921875 -1.421875 10.953125 3.296875 
Q 6 8.015625 6 15.921875 
Q 6 25.140625 12.171875 29.828125 
Q 18.359375 34.515625 30.609375 34.515625 
L 43.21875 34.515625 
L 43.21875 35.40625 
Q 43.21875 41.609375 39.140625 45 
Q 35.0625 48.390625 27.6875 48.390625 
Q 23 48.390625 18.546875 47.265625 
Q 14.109375 46.140625 10.015625 43.890625 
L 10.015625 52.203125 
Q 14.9375 54.109375 19.578125 55.046875 
Q 24.21875 56 28.609375 56 
Q 40.484375 56 46.34375 49.84375 
Q 52.203125 43.703125 52.203125 31.203125 
z
" id="DejaVuSans-97"/>
     </defs>
     <g transform="translate(109.09 406.721912)scale(0.1 -0.1)">
      <use xlink:href="#DejaVuSans-114"/>
      <use x="41.113281" xlink:href="#DejaVuSans-97"/>
      <use x="102.392578" xlink:href="#DejaVuSans-110"/>
      <use x="165.771484" xlink:href="#DejaVuSans-100"/>
      <use x="229.248047" xlink:href="#DejaVuSans-111"/>
      <use x="290.429688" xlink:href="#DejaVuSans-109"/>
     </g>
    </g>
   </g>
  </g>
 </g>
 <defs>
  <clipPath id="pa5a75a8392">
   <rect height="361.4688" width="446.958" x="72.09" y="56.3328"/>
  </clipPath>
 </defs>
</svg>
