<?xml version="1.0" encoding="utf-8" standalone="no"?>
<!DOCTYPE svg PUBLIC "-//W3C//DTD SVG 1.1//EN"
  "http://www.w3.org/Graphics/SVG/1.1/DTD/svg11.dtd">
<!-- Created with matplotlib (https://matplotlib.org/) -->
<svg height="469.44pt" version="1.1" viewBox="0 0 576 469.44" width="576pt" xmlns="http://www.w3.org/2000/svg" xmlns:xlink="http://www.w3.org/1999/xlink">
 <defs>
  <style type="text/css">
*{stroke-linecap:butt;stroke-linejoin:round;}
  </style>
 </defs>
 <g id="figure_1">
  <g id="patch_1">
   <path d="M 0 469.44 
L 576 469.44 
L 576 0 
L 0 0 
z
" style="fill:#ffffff;"/>
  </g>
  <g id="axes_1">
   <g id="patch_2">
    <path d="M 72 417.8016 
L 518.4 417.8016 
L 518.4 56.3328 
L 72 56.3328 
z
" style="fill:#ffffff;"/>
   </g>
   <g id="matplotlib.axis_1">
    <g id="xtick_1">
     <g id="line2d_1">
      <defs>
       <path d="M 0 0 
L 0 3.5 
" id="md089e7d3ea" style="stroke:#000000;stroke-width:0.8;"/>
      </defs>
      <g>
       <use style="stroke:#000000;stroke-width:0.8;" x="92.290909" xlink:href="#md089e7d3ea" y="417.8016"/>
      </g>
     </g>
     <g id="text_1">
      <!-- 0 -->
      <defs>
       <path d="M 31.78125 66.40625 
Q 24.171875 66.40625 20.328125 58.90625 
Q 16.5 51.421875 16.5 36.375 
Q 16.5 21.390625 20.328125 13.890625 
Q 24.171875 6.390625 31.78125 6.390625 
Q 39.453125 6.390625 43.28125 13.890625 
Q 47.125 21.390625 47.125 36.375 
Q 47.125 51.421875 43.28125 58.90625 
Q 39.453125 66.40625 31.78125 66.40625 
z
M 31.78125 74.21875 
Q 44.046875 74.21875 50.515625 64.515625 
Q 56.984375 54.828125 56.984375 36.375 
Q 56.984375 17.96875 50.515625 8.265625 
Q 44.046875 -1.421875 31.78125 -1.421875 
Q 19.53125 -1.421875 13.0625 8.265625 
Q 6.59375 17.96875 6.59375 36.375 
Q 6.59375 54.828125 13.0625 64.515625 
Q 19.53125 74.21875 31.78125 74.21875 
z
" id="DejaVuSans-48"/>
      </defs>
      <g transform="translate(89.109659 432.400037)scale(0.1 -0.1)">
       <use xlink:href="#DejaVuSans-48"/>
      </g>
     </g>
    </g>
    <g id="xtick_2">
     <g id="line2d_2">
      <g>
       <use style="stroke:#000000;stroke-width:0.8;" x="151.007108" xlink:href="#md089e7d3ea" y="417.8016"/>
      </g>
     </g>
     <g id="text_2">
      <!-- 25000 -->
      <defs>
       <path d="M 19.1875 8.296875 
L 53.609375 8.296875 
L 53.609375 0 
L 7.328125 0 
L 7.328125 8.296875 
Q 12.9375 14.109375 22.625 23.890625 
Q 32.328125 33.6875 34.8125 36.53125 
Q 39.546875 41.84375 41.421875 45.53125 
Q 43.3125 49.21875 43.3125 52.78125 
Q 43.3125 58.59375 39.234375 62.25 
Q 35.15625 65.921875 28.609375 65.921875 
Q 23.96875 65.921875 18.8125 64.3125 
Q 13.671875 62.703125 7.8125 59.421875 
L 7.8125 69.390625 
Q 13.765625 71.78125 18.9375 73 
Q 24.125 74.21875 28.421875 74.21875 
Q 39.75 74.21875 46.484375 68.546875 
Q 53.21875 62.890625 53.21875 53.421875 
Q 53.21875 48.921875 51.53125 44.890625 
Q 49.859375 40.875 45.40625 35.40625 
Q 44.1875 33.984375 37.640625 27.21875 
Q 31.109375 20.453125 19.1875 8.296875 
z
" id="DejaVuSans-50"/>
       <path d="M 10.796875 72.90625 
L 49.515625 72.90625 
L 49.515625 64.59375 
L 19.828125 64.59375 
L 19.828125 46.734375 
Q 21.96875 47.46875 24.109375 47.828125 
Q 26.265625 48.1875 28.421875 48.1875 
Q 40.625 48.1875 47.75 41.5 
Q 54.890625 34.8125 54.890625 23.390625 
Q 54.890625 11.625 47.5625 5.09375 
Q 40.234375 -1.421875 26.90625 -1.421875 
Q 22.3125 -1.421875 17.546875 -0.640625 
Q 12.796875 0.140625 7.71875 1.703125 
L 7.71875 11.625 
Q 12.109375 9.234375 16.796875 8.0625 
Q 21.484375 6.890625 26.703125 6.890625 
Q 35.15625 6.890625 40.078125 11.328125 
Q 45.015625 15.765625 45.015625 23.390625 
Q 45.015625 31 40.078125 35.4375 
Q 35.15625 39.890625 26.703125 39.890625 
Q 22.75 39.890625 18.8125 39.015625 
Q 14.890625 38.140625 10.796875 36.28125 
z
" id="DejaVuSans-53"/>
      </defs>
      <g transform="translate(135.100858 432.400037)scale(0.1 -0.1)">
       <use xlink:href="#DejaVuSans-50"/>
       <use x="63.623047" xlink:href="#DejaVuSans-53"/>
       <use x="127.246094" xlink:href="#DejaVuSans-48"/>
       <use x="190.869141" xlink:href="#DejaVuSans-48"/>
       <use x="254.492188" xlink:href="#DejaVuSans-48"/>
      </g>
     </g>
    </g>
    <g id="xtick_3">
     <g id="line2d_3">
      <g>
       <use style="stroke:#000000;stroke-width:0.8;" x="209.723307" xlink:href="#md089e7d3ea" y="417.8016"/>
      </g>
     </g>
     <g id="text_3">
      <!-- 50000 -->
      <g transform="translate(193.817057 432.400037)scale(0.1 -0.1)">
       <use xlink:href="#DejaVuSans-53"/>
       <use x="63.623047" xlink:href="#DejaVuSans-48"/>
       <use x="127.246094" xlink:href="#DejaVuSans-48"/>
       <use x="190.869141" xlink:href="#DejaVuSans-48"/>
       <use x="254.492188" xlink:href="#DejaVuSans-48"/>
      </g>
     </g>
    </g>
    <g id="xtick_4">
     <g id="line2d_4">
      <g>
       <use style="stroke:#000000;stroke-width:0.8;" x="268.439505" xlink:href="#md089e7d3ea" y="417.8016"/>
      </g>
     </g>
     <g id="text_4">
      <!-- 75000 -->
      <defs>
       <path d="M 8.203125 72.90625 
L 55.078125 72.90625 
L 55.078125 68.703125 
L 28.609375 0 
L 18.3125 0 
L 43.21875 64.59375 
L 8.203125 64.59375 
z
" id="DejaVuSans-55"/>
      </defs>
      <g transform="translate(252.533255 432.400037)scale(0.1 -0.1)">
       <use xlink:href="#DejaVuSans-55"/>
       <use x="63.623047" xlink:href="#DejaVuSans-53"/>
       <use x="127.246094" xlink:href="#DejaVuSans-48"/>
       <use x="190.869141" xlink:href="#DejaVuSans-48"/>
       <use x="254.492188" xlink:href="#DejaVuSans-48"/>
      </g>
     </g>
    </g>
    <g id="xtick_5">
     <g id="line2d_5">
      <g>
       <use style="stroke:#000000;stroke-width:0.8;" x="327.155704" xlink:href="#md089e7d3ea" y="417.8016"/>
      </g>
     </g>
     <g id="text_5">
      <!-- 100000 -->
      <defs>
       <path d="M 12.40625 8.296875 
L 28.515625 8.296875 
L 28.515625 63.921875 
L 10.984375 60.40625 
L 10.984375 69.390625 
L 28.421875 72.90625 
L 38.28125 72.90625 
L 38.28125 8.296875 
L 54.390625 8.296875 
L 54.390625 0 
L 12.40625 0 
z
" id="DejaVuSans-49"/>
      </defs>
      <g transform="translate(308.068204 432.400037)scale(0.1 -0.1)">
       <use xlink:href="#DejaVuSans-49"/>
       <use x="63.623047" xlink:href="#DejaVuSans-48"/>
       <use x="127.246094" xlink:href="#DejaVuSans-48"/>
       <use x="190.869141" xlink:href="#DejaVuSans-48"/>
       <use x="254.492188" xlink:href="#DejaVuSans-48"/>
       <use x="318.115234" xlink:href="#DejaVuSans-48"/>
      </g>
     </g>
    </g>
    <g id="xtick_6">
     <g id="line2d_6">
      <g>
       <use style="stroke:#000000;stroke-width:0.8;" x="385.871903" xlink:href="#md089e7d3ea" y="417.8016"/>
      </g>
     </g>
     <g id="text_6">
      <!-- 125000 -->
      <g transform="translate(366.784403 432.400037)scale(0.1 -0.1)">
       <use xlink:href="#DejaVuSans-49"/>
       <use x="63.623047" xlink:href="#DejaVuSans-50"/>
       <use x="127.246094" xlink:href="#DejaVuSans-53"/>
       <use x="190.869141" xlink:href="#DejaVuSans-48"/>
       <use x="254.492188" xlink:href="#DejaVuSans-48"/>
       <use x="318.115234" xlink:href="#DejaVuSans-48"/>
      </g>
     </g>
    </g>
    <g id="xtick_7">
     <g id="line2d_7">
      <g>
       <use style="stroke:#000000;stroke-width:0.8;" x="444.588101" xlink:href="#md089e7d3ea" y="417.8016"/>
      </g>
     </g>
     <g id="text_7">
      <!-- 150000 -->
      <g transform="translate(425.500601 432.400037)scale(0.1 -0.1)">
       <use xlink:href="#DejaVuSans-49"/>
       <use x="63.623047" xlink:href="#DejaVuSans-53"/>
       <use x="127.246094" xlink:href="#DejaVuSans-48"/>
       <use x="190.869141" xlink:href="#DejaVuSans-48"/>
       <use x="254.492188" xlink:href="#DejaVuSans-48"/>
       <use x="318.115234" xlink:href="#DejaVuSans-48"/>
      </g>
     </g>
    </g>
    <g id="xtick_8">
     <g id="line2d_8">
      <g>
       <use style="stroke:#000000;stroke-width:0.8;" x="503.3043" xlink:href="#md089e7d3ea" y="417.8016"/>
      </g>
     </g>
     <g id="text_8">
      <!-- 175000 -->
      <g transform="translate(484.2168 432.400037)scale(0.1 -0.1)">
       <use xlink:href="#DejaVuSans-49"/>
       <use x="63.623047" xlink:href="#DejaVuSans-55"/>
       <use x="127.246094" xlink:href="#DejaVuSans-53"/>
       <use x="190.869141" xlink:href="#DejaVuSans-48"/>
       <use x="254.492188" xlink:href="#DejaVuSans-48"/>
       <use x="318.115234" xlink:href="#DejaVuSans-48"/>
      </g>
     </g>
    </g>
    <g id="text_9">
     <!-- Time (seconds) -->
     <defs>
      <path d="M -0.296875 72.90625 
L 61.375 72.90625 
L 61.375 64.59375 
L 35.5 64.59375 
L 35.5 0 
L 25.59375 0 
L 25.59375 64.59375 
L -0.296875 64.59375 
z
" id="DejaVuSans-84"/>
      <path d="M 9.421875 54.6875 
L 18.40625 54.6875 
L 18.40625 0 
L 9.421875 0 
z
M 9.421875 75.984375 
L 18.40625 75.984375 
L 18.40625 64.59375 
L 9.421875 64.59375 
z
" id="DejaVuSans-105"/>
      <path d="M 52 44.1875 
Q 55.375 50.25 60.0625 53.125 
Q 64.75 56 71.09375 56 
Q 79.640625 56 84.28125 50.015625 
Q 88.921875 44.046875 88.921875 33.015625 
L 88.921875 0 
L 79.890625 0 
L 79.890625 32.71875 
Q 79.890625 40.578125 77.09375 44.375 
Q 74.3125 48.1875 68.609375 48.1875 
Q 61.625 48.1875 57.5625 43.546875 
Q 53.515625 38.921875 53.515625 30.90625 
L 53.515625 0 
L 44.484375 0 
L 44.484375 32.71875 
Q 44.484375 40.625 41.703125 44.40625 
Q 38.921875 48.1875 33.109375 48.1875 
Q 26.21875 48.1875 22.15625 43.53125 
Q 18.109375 38.875 18.109375 30.90625 
L 18.109375 0 
L 9.078125 0 
L 9.078125 54.6875 
L 18.109375 54.6875 
L 18.109375 46.1875 
Q 21.1875 51.21875 25.484375 53.609375 
Q 29.78125 56 35.6875 56 
Q 41.65625 56 45.828125 52.96875 
Q 50 49.953125 52 44.1875 
z
" id="DejaVuSans-109"/>
      <path d="M 56.203125 29.59375 
L 56.203125 25.203125 
L 14.890625 25.203125 
Q 15.484375 15.921875 20.484375 11.0625 
Q 25.484375 6.203125 34.421875 6.203125 
Q 39.59375 6.203125 44.453125 7.46875 
Q 49.3125 8.734375 54.109375 11.28125 
L 54.109375 2.78125 
Q 49.265625 0.734375 44.1875 -0.34375 
Q 39.109375 -1.421875 33.890625 -1.421875 
Q 20.796875 -1.421875 13.15625 6.1875 
Q 5.515625 13.8125 5.515625 26.8125 
Q 5.515625 40.234375 12.765625 48.109375 
Q 20.015625 56 32.328125 56 
Q 43.359375 56 49.78125 48.890625 
Q 56.203125 41.796875 56.203125 29.59375 
z
M 47.21875 32.234375 
Q 47.125 39.59375 43.09375 43.984375 
Q 39.0625 48.390625 32.421875 48.390625 
Q 24.90625 48.390625 20.390625 44.140625 
Q 15.875 39.890625 15.1875 32.171875 
z
" id="DejaVuSans-101"/>
      <path id="DejaVuSans-32"/>
      <path d="M 31 75.875 
Q 24.46875 64.65625 21.28125 53.65625 
Q 18.109375 42.671875 18.109375 31.390625 
Q 18.109375 20.125 21.3125 9.0625 
Q 24.515625 -2 31 -13.1875 
L 23.1875 -13.1875 
Q 15.875 -1.703125 12.234375 9.375 
Q 8.59375 20.453125 8.59375 31.390625 
Q 8.59375 42.28125 12.203125 53.3125 
Q 15.828125 64.359375 23.1875 75.875 
z
" id="DejaVuSans-40"/>
      <path d="M 44.28125 53.078125 
L 44.28125 44.578125 
Q 40.484375 46.53125 36.375 47.5 
Q 32.28125 48.484375 27.875 48.484375 
Q 21.1875 48.484375 17.84375 46.4375 
Q 14.5 44.390625 14.5 40.28125 
Q 14.5 37.15625 16.890625 35.375 
Q 19.28125 33.59375 26.515625 31.984375 
L 29.59375 31.296875 
Q 39.15625 29.25 43.1875 25.515625 
Q 47.21875 21.78125 47.21875 15.09375 
Q 47.21875 7.46875 41.1875 3.015625 
Q 35.15625 -1.421875 24.609375 -1.421875 
Q 20.21875 -1.421875 15.453125 -0.5625 
Q 10.6875 0.296875 5.421875 2 
L 5.421875 11.28125 
Q 10.40625 8.6875 15.234375 7.390625 
Q 20.0625 6.109375 24.8125 6.109375 
Q 31.15625 6.109375 34.5625 8.28125 
Q 37.984375 10.453125 37.984375 14.40625 
Q 37.984375 18.0625 35.515625 20.015625 
Q 33.0625 21.96875 24.703125 23.78125 
L 21.578125 24.515625 
Q 13.234375 26.265625 9.515625 29.90625 
Q 5.8125 33.546875 5.8125 39.890625 
Q 5.8125 47.609375 11.28125 51.796875 
Q 16.75 56 26.8125 56 
Q 31.78125 56 36.171875 55.265625 
Q 40.578125 54.546875 44.28125 53.078125 
z
" id="DejaVuSans-115"/>
      <path d="M 48.78125 52.59375 
L 48.78125 44.1875 
Q 44.96875 46.296875 41.140625 47.34375 
Q 37.3125 48.390625 33.40625 48.390625 
Q 24.65625 48.390625 19.8125 42.84375 
Q 14.984375 37.3125 14.984375 27.296875 
Q 14.984375 17.28125 19.8125 11.734375 
Q 24.65625 6.203125 33.40625 6.203125 
Q 37.3125 6.203125 41.140625 7.25 
Q 44.96875 8.296875 48.78125 10.40625 
L 48.78125 2.09375 
Q 45.015625 0.34375 40.984375 -0.53125 
Q 36.96875 -1.421875 32.421875 -1.421875 
Q 20.0625 -1.421875 12.78125 6.34375 
Q 5.515625 14.109375 5.515625 27.296875 
Q 5.515625 40.671875 12.859375 48.328125 
Q 20.21875 56 33.015625 56 
Q 37.15625 56 41.109375 55.140625 
Q 45.0625 54.296875 48.78125 52.59375 
z
" id="DejaVuSans-99"/>
      <path d="M 30.609375 48.390625 
Q 23.390625 48.390625 19.1875 42.75 
Q 14.984375 37.109375 14.984375 27.296875 
Q 14.984375 17.484375 19.15625 11.84375 
Q 23.34375 6.203125 30.609375 6.203125 
Q 37.796875 6.203125 41.984375 11.859375 
Q 46.1875 17.53125 46.1875 27.296875 
Q 46.1875 37.015625 41.984375 42.703125 
Q 37.796875 48.390625 30.609375 48.390625 
z
M 30.609375 56 
Q 42.328125 56 49.015625 48.375 
Q 55.71875 40.765625 55.71875 27.296875 
Q 55.71875 13.875 49.015625 6.21875 
Q 42.328125 -1.421875 30.609375 -1.421875 
Q 18.84375 -1.421875 12.171875 6.21875 
Q 5.515625 13.875 5.515625 27.296875 
Q 5.515625 40.765625 12.171875 48.375 
Q 18.84375 56 30.609375 56 
z
" id="DejaVuSans-111"/>
      <path d="M 54.890625 33.015625 
L 54.890625 0 
L 45.90625 0 
L 45.90625 32.71875 
Q 45.90625 40.484375 42.875 44.328125 
Q 39.84375 48.1875 33.796875 48.1875 
Q 26.515625 48.1875 22.3125 43.546875 
Q 18.109375 38.921875 18.109375 30.90625 
L 18.109375 0 
L 9.078125 0 
L 9.078125 54.6875 
L 18.109375 54.6875 
L 18.109375 46.1875 
Q 21.34375 51.125 25.703125 53.5625 
Q 30.078125 56 35.796875 56 
Q 45.21875 56 50.046875 50.171875 
Q 54.890625 44.34375 54.890625 33.015625 
z
" id="DejaVuSans-110"/>
      <path d="M 45.40625 46.390625 
L 45.40625 75.984375 
L 54.390625 75.984375 
L 54.390625 0 
L 45.40625 0 
L 45.40625 8.203125 
Q 42.578125 3.328125 38.25 0.953125 
Q 33.9375 -1.421875 27.875 -1.421875 
Q 17.96875 -1.421875 11.734375 6.484375 
Q 5.515625 14.40625 5.515625 27.296875 
Q 5.515625 40.1875 11.734375 48.09375 
Q 17.96875 56 27.875 56 
Q 33.9375 56 38.25 53.625 
Q 42.578125 51.265625 45.40625 46.390625 
z
M 14.796875 27.296875 
Q 14.796875 17.390625 18.875 11.75 
Q 22.953125 6.109375 30.078125 6.109375 
Q 37.203125 6.109375 41.296875 11.75 
Q 45.40625 17.390625 45.40625 27.296875 
Q 45.40625 37.203125 41.296875 42.84375 
Q 37.203125 48.484375 30.078125 48.484375 
Q 22.953125 48.484375 18.875 42.84375 
Q 14.796875 37.203125 14.796875 27.296875 
z
" id="DejaVuSans-100"/>
      <path d="M 8.015625 75.875 
L 15.828125 75.875 
Q 23.140625 64.359375 26.78125 53.3125 
Q 30.421875 42.28125 30.421875 31.390625 
Q 30.421875 20.453125 26.78125 9.375 
Q 23.140625 -1.703125 15.828125 -13.1875 
L 8.015625 -13.1875 
Q 14.5 -2 17.703125 9.0625 
Q 20.90625 20.125 20.90625 31.390625 
Q 20.90625 42.671875 17.703125 53.65625 
Q 14.5 64.65625 8.015625 75.875 
z
" id="DejaVuSans-41"/>
     </defs>
     <g transform="translate(256.884375 446.078162)scale(0.1 -0.1)">
      <use xlink:href="#DejaVuSans-84"/>
      <use x="61.037109" xlink:href="#DejaVuSans-105"/>
      <use x="88.820312" xlink:href="#DejaVuSans-109"/>
      <use x="186.232422" xlink:href="#DejaVuSans-101"/>
      <use x="247.755859" xlink:href="#DejaVuSans-32"/>
      <use x="279.542969" xlink:href="#DejaVuSans-40"/>
      <use x="318.556641" xlink:href="#DejaVuSans-115"/>
      <use x="370.65625" xlink:href="#DejaVuSans-101"/>
      <use x="432.179688" xlink:href="#DejaVuSans-99"/>
      <use x="487.160156" xlink:href="#DejaVuSans-111"/>
      <use x="548.341797" xlink:href="#DejaVuSans-110"/>
      <use x="611.720703" xlink:href="#DejaVuSans-100"/>
      <use x="675.197266" xlink:href="#DejaVuSans-115"/>
      <use x="727.296875" xlink:href="#DejaVuSans-41"/>
     </g>
    </g>
   </g>
   <g id="matplotlib.axis_2">
    <g id="ytick_1">
     <g id="line2d_9">
      <defs>
       <path d="M 0 0 
L -3.5 0 
" id="m46ba27d61a" style="stroke:#000000;stroke-width:0.8;"/>
      </defs>
      <g>
       <use style="stroke:#000000;stroke-width:0.8;" x="72" xlink:href="#m46ba27d61a" y="403.75119"/>
      </g>
     </g>
     <g id="text_10">
      <!-- 4.8 -->
      <defs>
       <path d="M 37.796875 64.3125 
L 12.890625 25.390625 
L 37.796875 25.390625 
z
M 35.203125 72.90625 
L 47.609375 72.90625 
L 47.609375 25.390625 
L 58.015625 25.390625 
L 58.015625 17.1875 
L 47.609375 17.1875 
L 47.609375 0 
L 37.796875 0 
L 37.796875 17.1875 
L 4.890625 17.1875 
L 4.890625 26.703125 
z
" id="DejaVuSans-52"/>
       <path d="M 10.6875 12.40625 
L 21 12.40625 
L 21 0 
L 10.6875 0 
z
" id="DejaVuSans-46"/>
       <path d="M 31.78125 34.625 
Q 24.75 34.625 20.71875 30.859375 
Q 16.703125 27.09375 16.703125 20.515625 
Q 16.703125 13.921875 20.71875 10.15625 
Q 24.75 6.390625 31.78125 6.390625 
Q 38.8125 6.390625 42.859375 10.171875 
Q 46.921875 13.96875 46.921875 20.515625 
Q 46.921875 27.09375 42.890625 30.859375 
Q 38.875 34.625 31.78125 34.625 
z
M 21.921875 38.8125 
Q 15.578125 40.375 12.03125 44.71875 
Q 8.5 49.078125 8.5 55.328125 
Q 8.5 64.0625 14.71875 69.140625 
Q 20.953125 74.21875 31.78125 74.21875 
Q 42.671875 74.21875 48.875 69.140625 
Q 55.078125 64.0625 55.078125 55.328125 
Q 55.078125 49.078125 51.53125 44.71875 
Q 48 40.375 41.703125 38.8125 
Q 48.828125 37.15625 52.796875 32.3125 
Q 56.78125 27.484375 56.78125 20.515625 
Q 56.78125 9.90625 50.3125 4.234375 
Q 43.84375 -1.421875 31.78125 -1.421875 
Q 19.734375 -1.421875 13.25 4.234375 
Q 6.78125 9.90625 6.78125 20.515625 
Q 6.78125 27.484375 10.78125 32.3125 
Q 14.796875 37.15625 21.921875 38.8125 
z
M 18.3125 54.390625 
Q 18.3125 48.734375 21.84375 45.5625 
Q 25.390625 42.390625 31.78125 42.390625 
Q 38.140625 42.390625 41.71875 45.5625 
Q 45.3125 48.734375 45.3125 54.390625 
Q 45.3125 60.0625 41.71875 63.234375 
Q 38.140625 66.40625 31.78125 66.40625 
Q 25.390625 66.40625 21.84375 63.234375 
Q 18.3125 60.0625 18.3125 54.390625 
z
" id="DejaVuSans-56"/>
      </defs>
      <g transform="translate(49.096875 407.550409)scale(0.1 -0.1)">
       <use xlink:href="#DejaVuSans-52"/>
       <use x="63.623047" xlink:href="#DejaVuSans-46"/>
       <use x="95.410156" xlink:href="#DejaVuSans-56"/>
      </g>
     </g>
    </g>
    <g id="ytick_2">
     <g id="line2d_10">
      <g>
       <use style="stroke:#000000;stroke-width:0.8;" x="72" xlink:href="#m46ba27d61a" y="337.899066"/>
      </g>
     </g>
     <g id="text_11">
      <!-- 4.9 -->
      <defs>
       <path d="M 10.984375 1.515625 
L 10.984375 10.5 
Q 14.703125 8.734375 18.5 7.8125 
Q 22.3125 6.890625 25.984375 6.890625 
Q 35.75 6.890625 40.890625 13.453125 
Q 46.046875 20.015625 46.78125 33.40625 
Q 43.953125 29.203125 39.59375 26.953125 
Q 35.25 24.703125 29.984375 24.703125 
Q 19.046875 24.703125 12.671875 31.3125 
Q 6.296875 37.9375 6.296875 49.421875 
Q 6.296875 60.640625 12.9375 67.421875 
Q 19.578125 74.21875 30.609375 74.21875 
Q 43.265625 74.21875 49.921875 64.515625 
Q 56.59375 54.828125 56.59375 36.375 
Q 56.59375 19.140625 48.40625 8.859375 
Q 40.234375 -1.421875 26.421875 -1.421875 
Q 22.703125 -1.421875 18.890625 -0.6875 
Q 15.09375 0.046875 10.984375 1.515625 
z
M 30.609375 32.421875 
Q 37.25 32.421875 41.125 36.953125 
Q 45.015625 41.5 45.015625 49.421875 
Q 45.015625 57.28125 41.125 61.84375 
Q 37.25 66.40625 30.609375 66.40625 
Q 23.96875 66.40625 20.09375 61.84375 
Q 16.21875 57.28125 16.21875 49.421875 
Q 16.21875 41.5 20.09375 36.953125 
Q 23.96875 32.421875 30.609375 32.421875 
z
" id="DejaVuSans-57"/>
      </defs>
      <g transform="translate(49.096875 341.698285)scale(0.1 -0.1)">
       <use xlink:href="#DejaVuSans-52"/>
       <use x="63.623047" xlink:href="#DejaVuSans-46"/>
       <use x="95.410156" xlink:href="#DejaVuSans-57"/>
      </g>
     </g>
    </g>
    <g id="ytick_3">
     <g id="line2d_11">
      <g>
       <use style="stroke:#000000;stroke-width:0.8;" x="72" xlink:href="#m46ba27d61a" y="272.046942"/>
      </g>
     </g>
     <g id="text_12">
      <!-- 5.0 -->
      <g transform="translate(49.096875 275.84616)scale(0.1 -0.1)">
       <use xlink:href="#DejaVuSans-53"/>
       <use x="63.623047" xlink:href="#DejaVuSans-46"/>
       <use x="95.410156" xlink:href="#DejaVuSans-48"/>
      </g>
     </g>
    </g>
    <g id="ytick_4">
     <g id="line2d_12">
      <g>
       <use style="stroke:#000000;stroke-width:0.8;" x="72" xlink:href="#m46ba27d61a" y="206.194817"/>
      </g>
     </g>
     <g id="text_13">
      <!-- 5.1 -->
      <g transform="translate(49.096875 209.994036)scale(0.1 -0.1)">
       <use xlink:href="#DejaVuSans-53"/>
       <use x="63.623047" xlink:href="#DejaVuSans-46"/>
       <use x="95.410156" xlink:href="#DejaVuSans-49"/>
      </g>
     </g>
    </g>
    <g id="ytick_5">
     <g id="line2d_13">
      <g>
       <use style="stroke:#000000;stroke-width:0.8;" x="72" xlink:href="#m46ba27d61a" y="140.342693"/>
      </g>
     </g>
     <g id="text_14">
      <!-- 5.2 -->
      <g transform="translate(49.096875 144.141912)scale(0.1 -0.1)">
       <use xlink:href="#DejaVuSans-53"/>
       <use x="63.623047" xlink:href="#DejaVuSans-46"/>
       <use x="95.410156" xlink:href="#DejaVuSans-50"/>
      </g>
     </g>
    </g>
    <g id="ytick_6">
     <g id="line2d_14">
      <g>
       <use style="stroke:#000000;stroke-width:0.8;" x="72" xlink:href="#m46ba27d61a" y="74.490569"/>
      </g>
     </g>
     <g id="text_15">
      <!-- 5.3 -->
      <defs>
       <path d="M 40.578125 39.3125 
Q 47.65625 37.796875 51.625 33 
Q 55.609375 28.21875 55.609375 21.1875 
Q 55.609375 10.40625 48.1875 4.484375 
Q 40.765625 -1.421875 27.09375 -1.421875 
Q 22.515625 -1.421875 17.65625 -0.515625 
Q 12.796875 0.390625 7.625 2.203125 
L 7.625 11.71875 
Q 11.71875 9.328125 16.59375 8.109375 
Q 21.484375 6.890625 26.8125 6.890625 
Q 36.078125 6.890625 40.9375 10.546875 
Q 45.796875 14.203125 45.796875 21.1875 
Q 45.796875 27.640625 41.28125 31.265625 
Q 36.765625 34.90625 28.71875 34.90625 
L 20.21875 34.90625 
L 20.21875 43.015625 
L 29.109375 43.015625 
Q 36.375 43.015625 40.234375 45.921875 
Q 44.09375 48.828125 44.09375 54.296875 
Q 44.09375 59.90625 40.109375 62.90625 
Q 36.140625 65.921875 28.71875 65.921875 
Q 24.65625 65.921875 20.015625 65.03125 
Q 15.375 64.15625 9.8125 62.3125 
L 9.8125 71.09375 
Q 15.4375 72.65625 20.34375 73.4375 
Q 25.25 74.21875 29.59375 74.21875 
Q 40.828125 74.21875 47.359375 69.109375 
Q 53.90625 64.015625 53.90625 55.328125 
Q 53.90625 49.265625 50.4375 45.09375 
Q 46.96875 40.921875 40.578125 39.3125 
z
" id="DejaVuSans-51"/>
      </defs>
      <g transform="translate(49.096875 78.289787)scale(0.1 -0.1)">
       <use xlink:href="#DejaVuSans-53"/>
       <use x="63.623047" xlink:href="#DejaVuSans-46"/>
       <use x="95.410156" xlink:href="#DejaVuSans-51"/>
      </g>
     </g>
    </g>
    <g id="text_16">
     <!-- Features -->
     <defs>
      <path d="M 9.8125 72.90625 
L 51.703125 72.90625 
L 51.703125 64.59375 
L 19.671875 64.59375 
L 19.671875 43.109375 
L 48.578125 43.109375 
L 48.578125 34.8125 
L 19.671875 34.8125 
L 19.671875 0 
L 9.8125 0 
z
" id="DejaVuSans-70"/>
      <path d="M 34.28125 27.484375 
Q 23.390625 27.484375 19.1875 25 
Q 14.984375 22.515625 14.984375 16.5 
Q 14.984375 11.71875 18.140625 8.90625 
Q 21.296875 6.109375 26.703125 6.109375 
Q 34.1875 6.109375 38.703125 11.40625 
Q 43.21875 16.703125 43.21875 25.484375 
L 43.21875 27.484375 
z
M 52.203125 31.203125 
L 52.203125 0 
L 43.21875 0 
L 43.21875 8.296875 
Q 40.140625 3.328125 35.546875 0.953125 
Q 30.953125 -1.421875 24.3125 -1.421875 
Q 15.921875 -1.421875 10.953125 3.296875 
Q 6 8.015625 6 15.921875 
Q 6 25.140625 12.171875 29.828125 
Q 18.359375 34.515625 30.609375 34.515625 
L 43.21875 34.515625 
L 43.21875 35.40625 
Q 43.21875 41.609375 39.140625 45 
Q 35.0625 48.390625 27.6875 48.390625 
Q 23 48.390625 18.546875 47.265625 
Q 14.109375 46.140625 10.015625 43.890625 
L 10.015625 52.203125 
Q 14.9375 54.109375 19.578125 55.046875 
Q 24.21875 56 28.609375 56 
Q 40.484375 56 46.34375 49.84375 
Q 52.203125 43.703125 52.203125 31.203125 
z
" id="DejaVuSans-97"/>
      <path d="M 18.3125 70.21875 
L 18.3125 54.6875 
L 36.8125 54.6875 
L 36.8125 47.703125 
L 18.3125 47.703125 
L 18.3125 18.015625 
Q 18.3125 11.328125 20.140625 9.421875 
Q 21.96875 7.515625 27.59375 7.515625 
L 36.8125 7.515625 
L 36.8125 0 
L 27.59375 0 
Q 17.1875 0 13.234375 3.875 
Q 9.28125 7.765625 9.28125 18.015625 
L 9.28125 47.703125 
L 2.6875 47.703125 
L 2.6875 54.6875 
L 9.28125 54.6875 
L 9.28125 70.21875 
z
" id="DejaVuSans-116"/>
      <path d="M 8.5 21.578125 
L 8.5 54.6875 
L 17.484375 54.6875 
L 17.484375 21.921875 
Q 17.484375 14.15625 20.5 10.265625 
Q 23.53125 6.390625 29.59375 6.390625 
Q 36.859375 6.390625 41.078125 11.03125 
Q 45.3125 15.671875 45.3125 23.6875 
L 45.3125 54.6875 
L 54.296875 54.6875 
L 54.296875 0 
L 45.3125 0 
L 45.3125 8.40625 
Q 42.046875 3.421875 37.71875 1 
Q 33.40625 -1.421875 27.6875 -1.421875 
Q 18.265625 -1.421875 13.375 4.4375 
Q 8.5 10.296875 8.5 21.578125 
z
M 31.109375 56 
z
" id="DejaVuSans-117"/>
      <path d="M 41.109375 46.296875 
Q 39.59375 47.171875 37.8125 47.578125 
Q 36.03125 48 33.890625 48 
Q 26.265625 48 22.1875 43.046875 
Q 18.109375 38.09375 18.109375 28.8125 
L 18.109375 0 
L 9.078125 0 
L 9.078125 54.6875 
L 18.109375 54.6875 
L 18.109375 46.1875 
Q 20.953125 51.171875 25.484375 53.578125 
Q 30.03125 56 36.53125 56 
Q 37.453125 56 38.578125 55.875 
Q 39.703125 55.765625 41.0625 55.515625 
z
" id="DejaVuSans-114"/>
     </defs>
     <g transform="translate(43.017187 258.943762)rotate(-90)scale(0.1 -0.1)">
      <use xlink:href="#DejaVuSans-70"/>
      <use x="57.441406" xlink:href="#DejaVuSans-101"/>
      <use x="118.964844" xlink:href="#DejaVuSans-97"/>
      <use x="180.244141" xlink:href="#DejaVuSans-116"/>
      <use x="219.453125" xlink:href="#DejaVuSans-117"/>
      <use x="282.832031" xlink:href="#DejaVuSans-114"/>
      <use x="323.914062" xlink:href="#DejaVuSans-101"/>
      <use x="385.4375" xlink:href="#DejaVuSans-115"/>
     </g>
    </g>
   </g>
   <g id="line2d_15">
    <path clip-path="url(#p4caa5e90e3)" d="M 92.290909 401.3712 
L 92.455314 357.473531 
L 92.596233 350.50362 
L 92.737152 340.855205 
L 92.807612 336.171851 
L 92.948531 322.094551 
L 93.159909 299.063057 
L 93.183395 299.028483 
L 93.230368 298.579405 
L 93.371287 294.575309 
L 93.582665 289.344535 
L 93.676611 288.585983 
L 93.911476 283.358494 
L 94.052395 270.614853 
L 94.2168 269.340007 
L 94.357719 260.992417 
L 94.381206 260.816377 
L 94.522125 259.373631 
L 94.592584 258.963532 
L 94.710016 252.6677 
L 94.803962 252.453976 
L 94.897908 251.598011 
L 95.179746 239.944969 
L 95.226719 239.904071 
L 95.438097 235.871317 
L 95.461584 235.856197 
L 95.579016 233.719697 
L 95.625989 233.697187 
L 95.790395 232.686062 
L 95.860854 232.646189 
L 96.048746 231.59904 
L 96.166178 231.365757 
L 96.283611 223.547701 
L 96.307097 223.540459 
L 96.518475 221.716656 
L 96.588935 221.524847 
L 96.800313 220.565337 
L 96.847286 220.467414 
L 96.964719 216.544746 
L 97.129124 215.078719 
L 97.246556 201.000385 
L 97.270043 200.995923 
L 97.410962 200.570159 
L 97.434448 200.525613 
L 97.598853 199.500746 
L 97.857205 198.517132 
L 97.974637 196.4985 
L 97.998124 196.483129 
L 98.115556 196.118847 
L 98.139042 196.118847 
L 98.397394 195.214539 
L 98.514826 195.12055 
L 98.726204 194.971979 
L 99.078502 194.777643 
L 99.195934 192.540302 
L 99.360339 191.778954 
L 99.501258 189.931615 
L 99.68915 189.807166 
L 99.806583 189.504852 
L 99.947501 189.417005 
L 100.064934 185.863706 
L 100.15888 185.806585 
L 100.323285 183.913232 
L 100.534663 183.871206 
L 100.769528 182.900031 
L 100.980907 182.751394 
L 101.168798 182.462716 
L 101.309717 181.011198 
L 101.42715 177.745234 
L 101.474123 177.739065 
L 101.615041 177.241808 
L 101.779447 177.108395 
L 101.943852 176.063767 
L 102.108258 175.82874 
L 102.178717 174.71143 
L 102.296149 173.310779 
L 102.883311 172.8252 
L 103.118176 164.711728 
L 103.282581 162.935015 
L 103.4235 160.504351 
L 103.49396 159.572578 
L 103.517446 159.250451 
L 103.658365 155.129684 
L 103.916716 153.171553 
L 103.940203 153.131923 
L 104.081122 151.906107 
L 104.269014 150.883912 
L 104.315987 150.824006 
L 104.550851 149.622934 
L 104.879662 148.869007 
L 104.997094 148.015099 
L 105.184986 147.831656 
L 105.302419 146.35359 
L 105.607743 146.213571 
L 105.889581 144.655877 
L 106.007013 144.547815 
L 106.124446 144.447116 
L 106.265364 144.25497 
L 106.523716 144.121459 
L 106.876013 143.290705 
L 107.040418 143.188625 
L 107.392715 142.862577 
L 107.510148 142.393284 
L 107.533634 142.393284 
L 107.69804 141.750621 
L 107.838959 141.640025 
L 107.979877 141.598336 
L 108.240577 141.4878 
L 108.569388 141.317548 
L 108.827739 141.23789 
L 109.039118 140.986391 
L 109.320955 140.928523 
L 109.438388 140.736919 
L 109.884631 140.71885 
L 110.02555 140.606846 
L 110.518766 140.460585 
L 110.777117 140.251255 
L 111.340793 140.097963 
L 111.927955 139.90151 
L 111.974928 139.872684 
L 112.09236 139.613382 
L 112.468144 139.604383 
L 112.585576 139.363306 
L 112.96136 139.255427 
L 113.078792 138.903307 
L 113.266684 138.858424 
L 113.384116 138.730997 
L 113.853846 138.626944 
L 113.971278 137.308037 
L 114.182657 137.308037 
L 114.300089 137.145607 
L 115.075143 137.038562 
L 115.662305 136.849546 
L 116.601764 136.739047 
L 116.719196 136.432725 
L 117.188926 136.329505 
L 117.353331 136.231658 
L 118.034439 136.144513 
L 118.151872 135.680781 
L 118.36325 135.679005 
L 118.504169 135.460726 
L 118.926925 135.329485 
L 119.655006 135.249705 
L 120.195195 134.624647 
L 120.782357 134.520309 
L 121.2286 134.237549 
L 121.346033 133.332831 
L 121.627871 133.218402 
L 121.768789 132.836716 
L 122.49687 132.752357 
L 122.872654 132.462562 
L 123.671194 132.329179 
L 123.788627 130.0311 
L 124.093951 129.796218 
L 124.23487 129.704057 
L 124.446248 129.566741 
L 125.315248 129.394754 
L 125.456167 129.195102 
L 125.714518 129.16907 
L 125.855437 128.742493 
L 126.019842 128.635082 
L 126.231221 128.605638 
L 126.466085 128.593514 
L 126.607004 128.441152 
L 126.841869 128.432497 
L 126.982788 128.230055 
L 128.016193 128.124566 
L 128.321517 128.08653 
L 128.43895 127.670194 
L 129.260976 127.566636 
L 129.589787 127.535576 
L 129.801165 127.516597 
L 129.918598 127.368255 
L 130.458787 127.27515 
L 130.599706 127.178628 
L 130.834571 127.170012 
L 130.952003 126.546871 
L 131.515678 126.534835 
L 131.797516 126.491852 
L 131.938435 126.362943 
L 132.10284 126.347478 
L 132.220273 125.481045 
L 132.290732 125.376564 
L 132.314219 125.361152 
L 132.431651 125.0873 
L 132.736975 124.977833 
L 133.159732 124.912856 
L 133.465056 124.89576 
L 133.582489 124.793201 
L 135.250029 124.687263 
L 135.578839 124.663347 
L 135.931137 124.615521 
L 136.072056 124.441365 
L 136.330407 124.37651 
L 136.588758 124.055866 
L 136.70619 124.055866 
L 136.823623 123.696422 
L 136.964542 123.643651 
L 137.272215 123.534734 
L 137.413133 123.164049 
L 137.577539 123.131764 
L 137.694971 123.016249 
L 137.953323 122.955113 
L 138.117728 122.802329 
L 139.033701 122.741239 
L 139.151133 122.566524 
L 139.57389 122.461407 
L 140.020133 122.415643 
L 140.30197 122.305499 
L 140.325457 122.30211 
L 140.442889 122.129356 
L 141.734646 121.897489 
L 141.852078 121.757105 
L 142.321808 121.648905 
L 144.341645 121.376894 
L 144.482564 118.938696 
L 145.304591 118.861686 
L 145.468996 118.724458 
L 145.868266 118.672596 
L 146.267536 118.659214 
L 146.384969 117.925825 
L 146.549374 117.844083 
L 146.690293 117.79238 
L 147.136536 117.71401 
L 147.277455 117.668999 
L 148.639671 117.560668 
L 148.71013 117.555669 
L 148.827563 117.355784 
L 149.532157 117.252565 
L 149.860968 117.244242 
L 150.001886 115.278607 
L 150.636021 115.194313 
L 150.753454 114.464799 
L 150.800427 114.459854 
L 150.917859 114.303304 
L 152.655859 114.199533 
L 152.890723 114.076046 
L 153.477885 113.993751 
L 153.618804 113.881868 
L 154.323399 113.807851 
L 154.440831 113.631933 
L 155.333317 113.538264 
L 155.474236 113.500477 
L 156.672047 113.10975 
L 157.000857 113.055616 
L 157.11829 112.919505 
L 158.363073 112.817875 
L 158.480506 112.29881 
L 160.758694 112.207212 
L 160.899613 112.158154 
L 161.839072 112.048621 
L 163.626393 111.785585 
L 166.867527 111.677827 
L 167.102392 111.661503 
L 169.404067 111.581532 
L 169.544986 111.539107 
L 170.883715 111.429811 
L 171.236013 111.380885 
L 172.105012 111.162455 
L 172.245931 110.888838 
L 173.114931 110.838377 
L 173.232363 110.732602 
L 174.688525 110.641504 
L 174.829444 110.597592 
L 177.365984 110.500035 
L 177.506903 110.444767 
L 179.879037 110.370009 
L 180.019956 110.324515 
L 182.251171 110.233546 
L 182.39209 110.17833 
L 183.402009 110.166963 
L 183.519441 109.811573 
L 184.036144 109.790491 
L 184.153576 109.587856 
L 184.764225 109.484162 
L 184.881657 109.419373 
L 188.148626 109.320597 
L 188.336518 109.30117 
L 189.675248 109.215382 
L 189.79268 108.833694 
L 191.319301 108.811068 
L 191.436734 108.664039 
L 193.832355 108.592976 
L 193.949787 108.500942 
L 195.993111 108.418622 
L 196.110543 107.834987 
L 201.53592 107.748028 
L 201.653352 107.670753 
L 203.884568 107.567752 
L 204.119433 107.55327 
L 204.659622 107.490525 
L 204.777054 107.32488 
L 206.867351 107.231647 
L 207.00827 107.167365 
L 208.20608 107.156118 
L 208.323512 106.990666 
L 212.389022 106.915201 
L 212.506454 106.833336 
L 214.197481 106.743471 
L 214.361886 106.709779 
L 219.247074 106.599105 
L 220.186533 106.579862 
L 225.964207 106.474047 
L 226.339991 106.456415 
L 229.205341 106.357055 
L 229.510666 106.297776 
L 230.755449 106.212884 
L 230.896368 106.16164 
L 233.15107 106.051178 
L 233.761718 106.035173 
L 236.183174 105.929559 
L 236.300607 105.839978 
L 236.629417 105.809591 
L 236.74685 105.580991 
L 241.27974 105.493117 
L 241.397173 105.335011 
L 245.389874 105.258385 
L 245.530793 105.197737 
L 245.859604 105.183375 
L 246.869523 105.176992 
L 246.986955 105.049364 
L 248.724954 104.974409 
L 248.865873 104.187771 
L 248.983306 103.952518 
L 257.532384 103.850848 
L 257.767249 103.836553 
L 260.632599 103.822259 
L 260.750032 103.555572 
L 260.820491 103.538119 
L 260.937924 103.32718 
L 261.196275 103.273281 
L 261.36068 103.084714 
L 261.642518 102.981768 
L 261.783437 102.432818 
L 262.065275 102.331686 
L 262.253167 102.260599 
L 262.464545 102.181634 
L 262.605464 102.066385 
L 262.793356 102.031661 
L 262.913137 101.933826 
L 263.68819 101.83287 
L 263.899569 101.714608 
L 264.134434 101.635793 
L 264.251866 101.497133 
L 264.604163 101.401055 
L 264.839028 101.194834 
L 265.308758 101.087846 
L 266.29519 100.683857 
L 266.530054 100.600615 
L 266.670973 100.556648 
L 266.69446 100.553507 
L 266.835379 100.402816 
L 267.187676 100.379277 
L 267.89227 100.335344 
L 268.033189 100.258478 
L 268.221081 100.219268 
L 268.338513 100.131457 
L 272.213783 100.056213 
L 272.378188 99.987256 
L 275.10262 99.954351 
L 275.220052 99.458096 
L 277.380808 99.351756 
L 277.639159 99.336121 
L 278.343754 99.331431 
L 278.461186 99.204822 
L 283.04105 99.181382 
L 283.158482 98.218877 
L 284.450238 98.119224 
L 284.591157 98.067854 
L 285.460157 97.966698 
L 285.695022 97.921578 
L 286.845859 97.881132 
L 286.963292 97.581075 
L 287.667886 97.540677 
L 287.785318 97.450578 
L 288.983129 97.435047 
L 289.100561 97.285989 
L 292.320558 97.253393 
L 292.43799 97.164937 
L 293.30699 97.074957 
L 293.424422 97.002063 
L 295.77307 96.909034 
L 295.913989 96.874931 
L 296.125367 96.874931 
L 296.2428 96.594509 
L 297.205745 96.582121 
L 297.323178 96.476845 
L 301.198447 96.374702 
L 301.362852 96.351493 
L 303.241771 96.334474 
L 303.359203 96.18135 
L 304.11077 96.113321 
L 304.251689 96.053036 
L 304.697932 96.053036 
L 304.815365 95.892338 
L 306.952634 95.791948 
L 307.164013 95.776507 
L 309.512661 95.722468 
L 309.630093 95.557327 
L 312.803116 95.452427 
L 313.014495 95.36761 
L 313.366792 95.344483 
L 313.484224 95.019352 
L 314.118359 94.973155 
L 314.235792 94.877705 
L 316.208656 94.822297 
L 316.326088 94.746897 
L 320.295303 94.6869 
L 320.412736 94.600772 
L 322.479546 94.553104 
L 322.596978 94.328715 
L 323.2546 94.218122 
L 325.110032 93.661199 
L 325.250951 93.593767 
L 326.98895 93.484989 
L 327.670058 93.351755 
L 327.834463 93.085472 
L 327.928409 93.085472 
L 328.069328 92.677348 
L 329.196679 92.591822 
L 329.314111 92.099023 
L 329.642922 92.095974 
L 329.760355 91.940531 
L 330.887706 91.844564 
L 331.099084 91.829335 
L 334.671377 91.785173 
L 334.78881 91.2816 
L 336.973052 91.217765 
L 337.090485 90.924615 
L 339.110322 90.84113 
L 339.227754 90.765256 
L 344.112942 90.666649 
L 344.465239 90.543817 
L 347.776833 90.457412 
L 347.917752 90.405884 
L 348.59886 90.383155 
L 350.853562 90.277106 
L 351.417237 90.24227 
L 354.165155 90.137787 
L 354.329561 90.109023 
L 354.493966 90.109023 
L 354.611399 89.653729 
L 356.187341 89.631059 
L 356.304774 89.47846 
L 358.770854 89.383316 
L 358.935259 89.354628 
L 361.448313 89.277637 
L 361.565745 89.171998 
L 364.548528 89.131261 
L 364.66596 88.97139 
L 365.487987 88.933697 
L 365.60542 88.847777 
L 367.578284 88.847777 
L 367.695716 88.695595 
L 374.389363 88.593182 
L 374.624228 88.57963 
L 378.992713 88.475753 
L 379.110145 88.32076 
L 387.919924 88.230512 
L 388.037356 88.078659 
L 388.835896 88.077155 
L 388.953329 87.11679 
L 389.563977 87.11679 
L 389.68141 86.973013 
L 390.01022 86.968521 
L 390.127653 86.090966 
L 390.386004 86.079025 
L 396.821299 85.980528 
L 397.032678 85.965608 
L 398.676731 85.961131 
L 398.794164 85.539203 
L 399.874542 85.50047 
L 400.015461 85.275627 
L 400.391244 85.235442 
L 400.508677 85.095583 
L 402.105757 84.997424 
L 402.340622 84.978094 
L 403.045217 84.905245 
L 403.162649 84.775948 
L 404.48024 84.689782 
L 404.597673 84.554643 
L 405.912916 84.453701 
L 406.500078 84.243027 
L 406.781915 84.189641 
L 406.922834 84.087346 
L 407.063753 84.087346 
L 407.181186 83.725901 
L 408.28505 83.620812 
L 408.425969 83.532034 
L 408.590374 83.530555 
L 408.707807 83.162425 
L 410.116995 83.126967 
L 410.234428 82.906934 
L 410.680671 82.86708 
L 410.798103 82.542554 
L 411.455725 82.541079 
L 411.573157 82.197779 
L 412.911887 82.196306 
L 413.029319 81.295085 
L 413.334643 81.290681 
L 413.452076 80.860925 
L 418.642588 80.767139 
L 418.783506 80.729048 
L 420.145722 80.651415 
L 420.263155 79.793003 
L 420.638938 79.692268 
L 420.82683 79.671834 
L 422.56483 79.595947 
L 422.682262 79.279481 
L 424.608153 79.238673 
L 424.725586 79.095888 
L 428.885041 78.993942 
L 429.02596 78.948807 
L 431.16323 78.887666 
L 431.280662 78.449877 
L 432.971689 78.355425 
L 433.112608 78.308938 
L 434.122526 78.266815 
L 434.239959 77.916999 
L 437.715958 77.841576 
L 437.856876 77.790821 
L 442.530686 77.699486 
L 442.648118 77.627019 
L 449.435711 77.522699 
L 449.647089 77.506764 
L 453.947464 77.418416 
L 454.088382 77.382216 
L 456.765841 77.3272 
L 459.866056 77.2172 
L 463.271596 77.117369 
L 465.502811 77.047941 
L 465.620244 76.664946 
L 465.878595 76.571083 
L 466.136946 76.002782 
L 468.438621 75.901933 
L 468.57954 75.83712 
L 471.538837 75.73345 
L 471.703242 75.70466 
L 471.961593 75.599599 
L 472.501782 75.517592 
L 476.637751 75.415476 
L 476.896103 75.383842 
L 477.812075 75.349335 
L 477.929508 75.066255 
L 480.935777 74.958557 
L 481.123669 74.941329 
L 485.163343 74.830808 
L 486.05583 74.777716 
L 489.132558 74.670126 
L 489.437883 74.660087 
L 491.481206 74.579782 
L 491.622125 74.516702 
L 492.960855 74.429273 
L 493.12526 74.397747 
L 494.39353 74.306057 
L 494.510962 74.214396 
L 495.6618 74.16285 
L 495.779232 73.909548 
L 496.06107 73.899535 
L 496.178502 73.547874 
L 496.389881 73.51216 
L 496.507313 73.425038 
L 496.601259 73.425038 
L 496.742178 72.991247 
L 497.352826 72.881477 
L 497.72861 72.797395 
L 498.104394 72.7632 
L 498.104394 72.7632 
" style="fill:none;stroke:#1f77b4;stroke-linecap:square;stroke-width:1.5;"/>
   </g>
   <g id="line2d_16">
    <path clip-path="url(#p4caa5e90e3)" d="M 92.290909 394.500468 
L 92.431828 346.368398 
L 92.61972 330.937806 
L 92.760639 301.439776 
L 92.784125 301.123003 
L 92.854585 289.974142 
L 93.136422 248.784247 
L 93.253855 246.976061 
L 93.41826 221.048279 
L 93.465233 220.763675 
L 93.512206 219.85913 
L 93.629638 202.162775 
L 93.958449 197.931673 
L 93.981936 197.695619 
L 94.122854 195.341364 
L 94.310746 194.494018 
L 94.357719 194.376287 
L 94.592584 191.742236 
L 94.756989 191.179091 
L 94.874422 189.434144 
L 94.921395 189.399867 
L 95.038827 184.674969 
L 95.062314 184.597019 
L 95.203233 183.136752 
L 95.250206 183.099031 
L 95.367638 179.180229 
L 95.55553 178.983935 
L 95.743422 178.465955 
L 95.860854 176.870458 
L 96.001773 176.657303 
L 96.142692 176.123065 
L 96.260124 176.022879 
L 96.424529 175.689858 
L 96.612421 175.420457 
L 96.75334 175.226726 
L 96.894259 175.145195 
L 97.199583 173.9798 
L 97.270043 173.933121 
L 97.457935 173.29053 
L 97.481421 173.272307 
L 97.669313 172.669584 
L 97.857205 172.600898 
L 97.974637 171.806144 
L 98.162529 171.612832 
L 98.303448 171.294958 
L 98.444367 171.226601 
L 98.608772 170.871006 
L 98.655745 170.864982 
L 98.82015 170.535905 
L 99.078502 170.4557 
L 99.242907 170.053008 
L 99.360339 167.900934 
L 99.477772 167.767835 
L 99.642177 167.446268 
L 99.853555 167.335193 
L 99.900528 167.321311 
L 100.041447 164.780511 
L 100.229339 164.686185 
L 100.252826 164.576176 
L 100.370258 163.713294 
L 100.581636 163.588001 
L 100.793015 163.427549 
L 100.886961 163.245682 
L 101.027879 163.077606 
L 101.098339 163.030719 
L 101.262744 162.849104 
L 101.403663 162.759315 
L 101.708987 161.408089 
L 101.802933 161.324577 
L 101.920366 161.074188 
L 102.836338 160.434653 
L 103.09469 160.136692 
L 103.141663 160.127023 
L 103.400014 158.753505 
L 103.916716 158.163301 
L 104.034149 157.076442 
L 104.175068 156.764757 
L 104.409933 156.699786 
L 104.550851 156.615727 
L 104.597824 156.613817 
L 104.738743 156.461048 
L 105.116876 156.310268 
L 105.35174 156.068041 
L 105.539632 154.672092 
L 105.75101 154.562075 
L 105.844956 154.552593 
L 105.962389 154.31564 
L 106.032848 154.234173 
L 106.197254 154.148942 
L 106.408632 154.048592 
L 106.596524 153.978557 
L 107.723875 153.72506 
L 107.982226 153.645652 
L 108.146631 153.590835 
L 108.381496 153.564376 
L 108.404983 153.42267 
L 108.522415 152.551312 
L 108.851226 152.442108 
L 108.874712 152.408225 
L 108.992145 152.088423 
L 109.250496 151.977516 
L 109.461874 151.91926 
L 109.579307 151.778367 
L 109.743712 151.67509 
L 109.790685 151.665703 
L 109.908117 151.419874 
L 110.377847 151.35048 
L 110.518766 150.534017 
L 110.683171 150.431188 
L 110.800604 148.865289 
L 110.82409 148.865289 
L 110.941522 147.861295 
L 111.317306 147.772386 
L 111.434739 147.254301 
L 111.599144 147.158189 
L 111.763549 146.7999 
L 112.162819 146.68918 
L 112.303738 146.652282 
L 112.468144 145.968701 
L 112.703008 145.895097 
L 112.8909 145.615574 
L 113.008333 145.597194 
L 113.149252 142.627834 
L 113.243197 142.591457 
L 113.36063 142.075403 
L 113.783386 141.993719 
L 113.924305 141.763315 
L 114.018251 141.732488 
L 114.206143 141.069596 
L 114.253116 141.064169 
L 114.370548 140.747761 
L 114.534954 140.671875 
L 114.699359 140.321616 
L 114.816792 140.065512 
L 115.004683 139.975389 
L 115.122116 138.603627 
L 115.216062 138.555205 
L 115.333494 136.894114 
L 115.403954 136.792509 
L 115.521386 136.601874 
L 115.850197 136.578721 
L 116.038089 136.226321 
L 116.061575 136.220985 
L 116.179007 135.705636 
L 116.437359 135.606227 
L 116.62525 135.563634 
L 116.719196 135.55831 
L 116.836629 135.379137 
L 117.071494 135.279841 
L 117.235899 135.115016 
L 117.776088 135.006956 
L 117.940493 134.886545 
L 118.104899 134.817508 
L 118.222331 133.301138 
L 118.339763 133.258887 
L 118.480682 133.148007 
L 118.786007 133.051242 
L 118.926925 132.986164 
L 119.748952 132.891212 
L 119.842898 132.812109 
L 119.960331 132.320406 
L 120.007304 132.320406 
L 120.124736 132.173059 
L 120.195195 132.169552 
L 120.312628 131.992488 
L 120.594466 131.882098 
L 120.711898 131.355265 
L 120.876303 131.287076 
L 121.017222 131.100074 
L 121.580898 130.953355 
L 121.69833 130.827656 
L 121.886222 130.735163 
L 122.0976 130.696778 
L 122.426411 130.578167 
L 122.590816 130.531085 
L 123.131005 130.428229 
L 123.389357 130.330638 
L 123.506789 128.702642 
L 123.530275 128.702642 
L 123.647708 128.475772 
L 123.718167 128.461924 
L 123.859086 127.711628 
L 123.929546 127.651206 
L 124.117437 125.523876 
L 124.305329 125.362865 
L 124.422762 124.465262 
L 124.493221 124.402109 
L 124.63414 122.158142 
L 126.066815 121.757105 
L 126.207734 121.689475 
L 126.395626 121.57961 
L 126.513058 121.236766 
L 126.935815 121.137199 
L 127.006274 121.120326 
L 127.217653 119.456545 
L 127.405545 119.402873 
L 128.462436 119.293883 
L 128.603355 119.250299 
L 130.811084 118.578934 
L 130.928517 118.29479 
L 131.961922 118.226304 
L 132.149813 118.094388 
L 132.269594 118.061001 
L 132.434 117.830739 
L 132.574919 117.759029 
L 132.621892 117.752359 
L 132.739324 117.512349 
L 133.326486 117.415735 
L 133.443918 117.204298 
L 134.571269 117.076179 
L 134.688702 115.761713 
L 135.440269 115.682243 
L 135.557702 115.32655 
L 136.003945 115.227366 
L 136.097891 115.214144 
L 136.215323 114.043125 
L 136.732026 113.94274 
L 136.896431 113.873643 
L 137.859377 113.797984 
L 138.211674 113.405209 
L 139.080674 113.355944 
L 139.221592 113.165536 
L 139.479944 113.163895 
L 139.597376 112.812958 
L 139.949673 112.668772 
L 140.020133 112.668772 
L 140.137565 110.963731 
L 140.231511 110.962102 
L 140.348943 110.680543 
L 140.936105 110.604097 
L 141.077024 110.009499 
L 141.335376 109.9381 
L 141.452808 109.848877 
L 141.499781 109.741846 
L 141.992997 109.297932 
L 142.533186 109.220237 
L 142.650618 109.05197 
L 143.590078 108.961406 
L 143.70751 108.85309 
L 144.083294 108.836927 
L 144.200726 108.526773 
L 144.365131 108.52193 
L 144.482564 108.40087 
L 144.787888 108.276634 
L 144.90532 107.994482 
L 146.009185 107.930029 
L 146.126617 107.574188 
L 146.455428 107.564533 
L 146.596347 107.426186 
L 146.760752 107.357037 
L 147.465347 107.2654 
L 147.582779 107.159331 
L 149.320779 107.096673 
L 149.438211 106.921623 
L 151.17621 106.812472 
L 151.317129 106.770748 
L 151.434562 106.770748 
L 151.551994 106.637596 
L 152.984669 106.571844 
L 153.102102 106.42436 
L 153.407426 106.318602 
L 153.900642 106.297776 
L 154.088534 106.297776 
L 154.205966 106.156837 
L 154.769642 106.144028 
L 154.910561 105.97276 
L 156.507641 105.868769 
L 156.672047 105.841578 
L 157.775911 105.732838 
L 158.010776 105.688075 
L 158.879776 105.584187 
L 159.279046 105.563414 
L 160.101073 105.456377 
L 160.241992 105.424434 
L 161.017045 105.395687 
L 161.134478 105.24402 
L 162.872477 105.133911 
L 163.811936 105.117957 
L 166.139447 105.030225 
L 166.256879 104.932953 
L 166.750095 104.846871 
L 166.891014 104.805434 
L 167.736527 104.751255 
L 167.85396 104.461416 
L 170.343526 104.391389 
L 170.460959 104.292743 
L 172.128499 104.200493 
L 172.292904 104.17505 
L 172.668688 104.136889 
L 172.78612 103.960463 
L 173.983931 103.938219 
L 174.101363 103.620633 
L 174.970363 103.611111 
L 175.087795 103.477835 
L 177.741767 103.398533 
L 177.882686 103.363647 
L 179.362335 103.338278 
L 179.479767 103.208299 
L 180.630604 103.13224 
L 180.748037 102.994436 
L 183.801279 102.888356 
L 183.918712 102.173739 
L 186.455251 102.091641 
L 186.59617 102.052179 
L 190.307034 101.968538 
L 190.471439 101.938559 
L 192.890547 101.886498 
L 194.957357 101.809214 
L 195.074789 101.493982 
L 198.435704 101.427828 
L 198.576623 101.353816 
L 201.441974 101.251491 
L 201.723812 101.235751 
L 204.777054 101.149202 
L 204.894486 101.059533 
L 207.196161 101.042231 
L 207.313594 100.82841 
L 211.54116 100.729415 
L 211.846484 100.69014 
L 213.772376 100.627312 
L 213.889808 100.558218 
L 216.029426 100.453038 
L 216.687048 100.388693 
L 217.931831 100.34162 
L 218.049264 100.271026 
L 219.200101 100.176927 
L 219.364506 100.153408 
L 222.088938 100.07032 
L 222.20637 99.37521 
L 226.762747 99.265775 
L 226.974126 99.231389 
L 230.238746 99.126696 
L 230.426638 99.057963 
L 231.835827 98.956455 
L 232.211611 98.89869 
L 240.645605 98.449459 
L 245.648226 98.390238 
L 245.765658 98.278063 
L 248.631008 98.169047 
L 248.771927 98.134793 
L 250.838738 98.050733 
L 251.003143 98.021162 
L 254.29125 97.929357 
L 254.455655 97.90291 
L 255.747412 97.792481 
L 256.663384 97.663442 
L 259.387816 97.553106 
L 259.599194 97.523587 
L 260.374248 97.508052 
L 260.491681 97.40554 
L 261.689491 97.337219 
L 261.806923 97.264258 
L 265.942892 97.155628 
L 267.446027 97.067202 
L 268.855216 97.047038 
L 268.972648 96.675044 
L 271.438729 96.608446 
L 271.556161 96.534123 
L 274.820782 96.433507 
L 274.961701 96.391723 
L 276.276943 96.315909 
L 276.417862 96.224649 
L 277.96797 96.119504 
L 278.132375 96.09477 
L 279.729456 96.045308 
L 279.846888 95.778051 
L 281.678834 95.685419 
L 281.843239 95.657635 
L 288.915018 95.549613 
L 289.314288 95.531099 
L 291.96826 95.423124 
L 292.109179 95.347566 
L 299.530907 95.276652 
L 299.648339 94.519281 
L 303.758473 94.360979 
L 305.332067 94.317961 
L 305.4495 94.187409 
L 312.166633 94.079941 
L 312.284065 94.010875 
L 314.658548 93.908075 
L 314.84644 93.860523 
L 321.751465 93.753177 
L 321.868897 93.684191 
L 322.596978 93.587637 
L 322.737897 93.530946 
L 323.888735 93.439039 
L 324.05314 93.411473 
L 327.411707 93.327259 
L 327.529139 93.240008 
L 327.998869 93.134425 
L 328.327679 93.100769 
L 329.713382 92.940193 
L 332.39084 92.839305 
L 332.531759 92.782762 
L 336.289596 92.724703 
L 336.407028 92.640691 
L 336.59492 92.550596 
L 336.735839 92.517009 
L 339.342838 92.492584 
L 339.460271 92.285058 
L 341.200619 92.265229 
L 341.318051 92.124939 
L 343.337888 92.114267 
L 343.455321 91.966432 
L 345.169834 91.865888 
L 345.287266 91.689258 
L 347.706374 91.602506 
L 347.823806 91.506653 
L 348.152617 91.494483 
L 348.270049 91.346968 
L 350.289886 91.29072 
L 350.430805 91.232963 
L 359.097316 91.125079 
L 359.989802 91.06128 
L 361.774775 90.979273 
L 361.915694 90.94587 
L 363.465801 90.90488 
L 363.583234 90.798638 
L 364.968936 90.759187 
L 365.086368 90.612051 
L 368.282878 90.510465 
L 368.729121 90.42407 
L 372.20512 90.34376 
L 372.346039 90.302857 
L 374.060552 90.283165 
L 374.177985 90.115079 
L 379.838226 90.00459 
L 382.210361 89.962222 
L 388.01387 89.869941 
L 388.154789 89.830618 
L 388.976815 89.823056 
L 389.094248 89.706633 
L 389.423058 89.706633 
L 389.540491 89.587235 
L 397.94865 89.481481 
L 398.41838 89.473929 
L 406.053835 89.371236 
L 406.288699 89.357647 
L 412.066373 89.253488 
L 412.183806 89.123718 
L 418.713047 89.019643 
L 418.853966 88.986468 
L 421.390506 88.93822 
L 421.507938 88.804073 
L 425.195315 88.695595 
L 425.406694 88.680532 
L 429.143393 88.582641 
L 429.307798 88.554034 
L 432.102689 88.49231 
L 432.243608 88.436621 
L 435.414283 88.368904 
L 435.555201 88.272624 
L 440.604795 88.167355 
L 441.074524 88.161341 
L 445.936225 88.053107 
L 446.429441 88.038078 
L 447.744684 88.01253 
L 447.862117 87.856286 
L 450.847248 87.814235 
L 450.964681 87.445052 
L 451.692761 87.442052 
L 451.810194 87.103308 
L 454.628571 86.999965 
L 454.957382 86.987986 
L 463.295082 86.901151 
L 463.412515 86.22086 
L 464.305001 86.219366 
L 464.422433 85.847761 
L 468.391648 85.795566 
L 468.509081 85.72549 
L 476.168022 85.644999 
L 476.308941 85.595822 
L 480.559993 85.512388 
L 480.677426 85.181871 
L 482.885155 85.131285 
L 483.002587 85.024191 
L 485.750505 84.987015 
L 485.867938 84.614037 
L 487.793829 84.521981 
L 487.958234 84.495261 
L 490.870558 84.467059 
L 490.98799 84.372084 
L 494.161014 84.269724 
L 494.442851 84.259341 
L 498.106742 84.217816 
L 498.106742 84.217816 
" style="fill:none;stroke:#ff7f0e;stroke-linecap:square;stroke-width:1.5;"/>
   </g>
   <g id="line2d_17">
    <path clip-path="url(#p4caa5e90e3)" d="M 92.290909 395.577652 
L 92.502287 332.721363 
L 92.807612 319.7906 
L 92.948531 307.312498 
L 93.206882 282.627504 
L 93.394774 276.982613 
L 93.512206 272.550731 
L 93.653125 265.375939 
L 94.028909 261.025437 
L 94.146341 240.748764 
L 94.193314 240.364503 
L 94.334233 238.369545 
L 94.357719 238.23484 
L 94.451665 236.726913 
L 94.569098 220.138065 
L 94.592584 220.111828 
L 94.991854 208.694468 
L 95.109287 192.557629 
L 95.250206 191.366683 
L 95.414611 189.869383 
L 95.48507 189.80073 
L 95.602503 184.148691 
L 95.766908 183.415623 
L 95.978286 182.638398 
L 96.119205 181.842417 
L 96.166178 181.694329 
L 96.283611 175.436777 
L 96.800313 174.19503 
L 96.917746 173.148828 
L 96.941232 173.142756 
L 97.199583 172.12862 
L 97.270043 172.096356 
L 97.457935 171.415628 
L 97.481421 171.415628 
L 97.62234 171.128115 
L 97.974637 170.551949 
L 98.115556 170.231245 
L 98.42088 170.099059 
L 98.444367 170.053008 
L 98.561799 169.656881 
L 98.608772 169.616898 
L 98.749691 168.950017 
L 98.867123 168.944034 
L 99.125475 168.095729 
L 99.430799 168.055964 
L 99.595204 167.376841 
L 99.806583 167.004207 
L 99.924015 166.10041 
L 100.041447 166.045128 
L 100.205853 165.496835 
L 100.276312 165.469251 
L 100.393745 163.376693 
L 100.417231 163.364958 
L 100.581636 163.018998 
L 100.722555 162.97798 
L 100.816501 162.927204 
L 100.95742 162.800302 
L 101.051366 162.792495 
L 101.192285 162.230915 
L 101.42715 162.153005 
L 101.568068 162.092639 
L 101.732474 162.03034 
L 101.873393 161.917456 
L 101.967339 161.841577 
L 102.15523 161.460539 
L 102.413582 161.373128 
L 102.554501 161.336229 
L 102.671933 160.917079 
L 102.69542 160.887994 
L 102.812852 160.475308 
L 103.118176 160.368843 
L 103.165149 160.306917 
L 103.353041 159.810066 
L 103.634879 159.730881 
L 103.775798 159.568718 
L 103.916716 159.530121 
L 104.034149 158.936389 
L 104.151581 158.903653 
L 104.2925 158.807395 
L 104.339473 158.786223 
L 104.480392 158.591895 
L 104.597824 158.497665 
L 104.76223 158.44191 
L 104.879662 158.35926 
L 105.020581 156.588986 
L 105.1615 156.583257 
L 105.278932 156.275924 
L 105.445686 156.167196 
L 105.586605 156.10808 
L 105.633578 156.033727 
L 105.797983 155.612753 
L 105.915416 155.586106 
L 106.056335 155.380626 
L 106.173767 155.285546 
L 106.2912 153.619187 
L 106.62001 153.458562 
L 106.760929 153.381117 
L 107.348091 153.131923 
L 107.465523 152.734039 
L 107.700388 152.681281 
L 107.841307 151.932413 
L 108.076172 151.829081 
L 108.193604 151.071197 
L 108.592875 151.044969 
L 108.75728 150.49475 
L 108.804253 150.45549 
L 108.945172 149.94932 
L 109.015631 149.913866 
L 109.133064 149.680723 
L 109.273982 149.637846 
L 109.461874 148.757483 
L 109.814171 148.712885 
L 109.95509 148.089251 
L 110.35436 147.629819 
L 110.377847 147.627968 
L 110.518766 147.309766 
L 110.941522 147.237664 
L 111.082441 146.095712 
L 111.22336 146.022076 
L 111.364279 145.902456 
L 111.669603 145.334488 
L 111.810522 143.033751 
L 111.880982 143.010072 
L 112.021901 140.069118 
L 112.209792 140.049288 
L 112.374198 136.48613 
L 112.56209 136.436285 
L 112.703008 134.780341 
L 112.8909 134.667101 
L 113.078792 134.617572 
L 113.196224 134.182796 
L 113.29017 134.177498 
L 113.407603 133.1005 
L 113.830359 132.390597 
L 114.300089 132.281808 
L 114.441008 132.243215 
L 114.581927 131.75599 
L 115.02817 131.682453 
L 115.145602 131.122788 
L 115.82671 130.997014 
L 115.991116 130.890499 
L 116.319926 130.866058 
L 116.437359 130.653165 
L 116.507818 130.653165 
L 116.648737 130.391629 
L 116.883602 130.365488 
L 117.001034 127.988006 
L 117.282872 127.913703 
L 117.611683 127.815238 
L 118.621601 127.199309 
L 118.997385 127.090753 
L 119.396655 127.059745 
L 119.514087 126.143072 
L 119.701979 125.995441 
L 119.866385 125.201944 
L 119.889871 125.200232 
L 120.03079 125.034272 
L 120.359601 124.883793 
L 120.570979 124.668472 
L 120.735384 124.589903 
L 120.89979 124.56258 
L 121.040709 124.245139 
L 121.580898 124.144519 
L 121.721817 124.08996 
L 122.285492 123.975761 
L 122.402924 121.081524 
L 122.943113 121.00562 
L 123.060546 120.252741 
L 123.201465 120.203965 
L 123.624221 120.119888 
L 123.788627 120.071134 
L 124.187897 120.04592 
L 124.305329 119.676369 
L 125.385707 119.412936 
L 125.50314 118.699362 
L 125.972869 118.488646 
L 126.09265 117.887453 
L 126.468434 117.857427 
L 126.585866 117.699006 
L 126.750272 117.665665 
L 126.867704 117.292516 
L 127.03211 117.255894 
L 127.266974 117.240913 
L 127.290461 117.239249 
L 127.407893 117.066199 
L 127.948082 117.024616 
L 128.089001 116.795186 
L 128.159461 116.795186 
L 128.276893 116.360108 
L 128.347352 116.310333 
L 128.464785 115.827956 
L 129.404244 115.745155 
L 129.521676 115.490279 
L 130.414163 115.386077 
L 130.578568 115.351352 
L 131.471054 114.835925 
L 131.588487 114.698965 
L 131.611973 114.698965 
L 131.729405 114.558773 
L 132.152162 114.501066 
L 132.222622 114.49612 
L 132.340054 114.382392 
L 132.527946 114.326369 
L 132.668865 114.267062 
L 134.406864 113.844035 
L 134.524297 113.543194 
L 134.829621 113.526763 
L 134.947053 113.2558 
L 135.604675 113.199997 
L 135.722107 112.737579 
L 137.013863 112.627824 
L 137.178269 112.604895 
L 137.201755 112.604895 
L 137.319188 112.217025 
L 137.90635 112.159789 
L 138.023782 111.746396 
L 139.550403 111.640284 
L 139.667836 111.212973 
L 139.879214 111.198305 
L 140.30197 111.094026 
L 140.419403 110.983271 
L 140.607295 110.983271 
L 140.724727 110.774907 
L 141.006565 110.758635 
L 142.580159 110.69193 
L 142.697591 110.58133 
L 144.059807 110.478902 
L 144.599996 110.36676 
L 145.116699 110.35376 
L 145.234131 110.181578 
L 145.281104 110.181578 
L 145.398537 109.918631 
L 146.927506 109.840767 
L 147.044939 109.756438 
L 148.313209 109.698072 
L 148.430641 109.615406 
L 149.557992 109.544106 
L 149.675424 109.453385 
L 150.685343 109.433949 
L 150.802775 109.226711 
L 152.094532 109.139327 
L 152.211964 108.790059 
L 152.658207 108.693116 
L 152.799126 108.294379 
L 152.822613 108.294379 
L 152.940045 108.012209 
L 153.221883 107.973533 
L 153.433261 107.878477 
L 153.621153 107.844651 
L 154.537126 107.759299 
L 154.654558 107.521091 
L 154.959882 107.500177 
L 155.077315 107.350605 
L 156.768341 107.246112 
L 156.885774 106.936073 
L 157.003206 106.934467 
L 157.120638 106.696945 
L 157.285044 106.608727 
L 157.425963 106.547793 
L 159.422313 106.515727 
L 159.539746 106.408333 
L 159.657178 106.408333 
L 159.774611 106.232102 
L 160.197367 106.121613 
L 161.160313 106.102402 
L 161.277745 105.822385 
L 161.935367 105.796797 
L 163.321069 105.766415 
L 163.438501 105.547436 
L 165.531147 105.442002 
L 165.648579 105.35896 
L 165.766012 105.35896 
L 165.883444 105.058934 
L 167.621443 104.977598 
L 167.738876 104.87078 
L 171.214875 104.78153 
L 171.355794 104.730543 
L 173.399117 104.636558 
L 173.51655 104.544197 
L 176.358414 104.440724 
L 176.616765 104.423217 
L 178.894954 104.365928 
L 179.012386 104.217986 
L 179.834413 104.157559 
L 179.975332 104.063762 
L 182.770223 104.006546 
L 182.911142 103.90009 
L 183.545277 103.879439 
L 183.662709 103.707934 
L 185.262138 103.600002 
L 185.45003 103.569852 
L 186.084165 103.569852 
L 186.201597 103.414392 
L 188.432813 103.304985 
L 188.620705 103.278036 
L 189.395759 103.233656 
L 189.513191 103.111645 
L 191.509542 103.070458 
L 191.626974 102.647843 
L 194.187 102.548216 
L 194.327919 102.513434 
L 195.196919 102.508691 
L 195.314351 101.799752 
L 195.85454 101.768214 
L 195.971973 101.670469 
L 198.297134 101.601122 
L 198.438053 101.547547 
L 201.937539 101.449877 
L 202.078457 101.356965 
L 205.1317 101.284545 
L 205.272619 101.232604 
L 206.143967 101.186966 
L 206.261399 101.032795 
L 206.566724 100.976181 
L 206.684156 100.760838 
L 207.834994 100.712133 
L 207.952426 100.597474 
L 210.676858 100.495419 
L 210.79429 100.142432 
L 217.910693 100.032703 
L 218.051612 99.980988 
L 223.148178 99.879153 
L 223.265611 99.788315 
L 223.617908 99.73821 
L 223.758827 99.62394 
L 223.876259 99.62394 
L 223.993691 99.47843 
L 225.07407 99.45966 
L 225.214988 99.306417 
L 227.871309 99.220449 
L 227.988742 99.134507 
L 232.098876 99.032973 
L 232.33374 98.997054 
L 234.353578 98.92523 
L 234.47101 98.756669 
L 241.493467 98.663068 
L 241.681359 98.644351 
L 243.536791 98.560141 
L 243.67771 98.505574 
L 248.283409 98.443224 
L 248.400841 97.772266 
L 252.135191 97.66966 
L 252.417029 97.654117 
L 258.94627 97.543784 
L 259.181135 97.529801 
L 264.982295 97.433494 
L 265.099728 97.313932 
L 267.380265 97.273571 
L 274.355749 97.164937 
L 274.520155 97.137009 
L 279.710667 97.053242 
L 279.851586 97.005165 
L 286.477122 96.895082 
L 286.782446 96.885781 
L 286.876392 96.884231 
L 286.993824 96.591412 
L 289.436418 96.523285 
L 289.600823 96.425769 
L 289.741742 96.390176 
L 289.859175 96.301986 
L 292.701039 96.195267 
L 292.841957 96.147333 
L 300.052307 96.045308 
L 300.169739 95.835189 
L 303.76317 95.736363 
L 303.880603 95.518757 
L 309.425761 95.421582 
L 309.613652 95.401534 
L 311.9623 95.299774 
L 312.103219 95.259697 
L 318.655947 95.150284 
L 319.17265 95.125634 
L 323.893432 95.020892 
L 324.034351 94.982394 
L 336.202696 94.871548 
L 338.668776 94.820758 
L 343.201667 94.716128 
L 343.57745 94.663827 
L 350.482475 94.56233 
L 350.670367 94.540805 
L 354.38358 94.448572 
L 354.524499 94.413225 
L 360.795389 94.328715 
L 360.912821 93.969444 
L 360.959794 93.969444 
L 361.077226 93.66733 
L 362.627334 93.639741 
L 362.744766 93.353286 
L 368.19363 93.258375 
L 368.334548 93.223174 
L 370.096034 93.218583 
L 373.337169 93.113007 
L 373.501574 93.087002 
L 378.034465 93.03194 
L 378.151897 92.657491 
L 390.061891 92.568918 
L 390.20281 92.510902 
L 392.457512 92.474267 
L 394.7357 92.36744 
L 394.900105 92.338451 
L 401.664212 92.228625 
L 402.251374 92.224049 
L 408.548099 92.13866 
L 408.689018 92.106645 
L 413.456773 91.996908 
L 416.791853 91.891782 
L 418.177555 91.81106 
L 418.294988 91.686214 
L 422.287689 91.575116 
L 423.180175 91.570551 
L 423.743851 91.56903 
L 423.861283 91.336326 
L 438.707087 91.239042 
L 438.894979 91.219285 
L 441.337573 91.138752 
L 441.478492 91.094697 
L 452.752002 90.989903 
L 453.127785 90.979273 
L 466.000725 90.874521 
L 466.118157 90.792568 
L 482.091312 90.681817 
L 486.553743 90.504401 
L 493.858038 90.455896 
L 493.975471 90.32255 
L 494.609605 90.32255 
L 494.727038 89.974326 
L 497.052199 89.934988 
L 498.109091 89.934988 
L 498.109091 89.934988 
" style="fill:none;stroke:#2ca02c;stroke-linecap:square;stroke-width:1.5;"/>
   </g>
   <g id="patch_3">
    <path d="M 72 417.8016 
L 72 56.3328 
" style="fill:none;stroke:#000000;stroke-linecap:square;stroke-linejoin:miter;stroke-width:0.8;"/>
   </g>
   <g id="patch_4">
    <path d="M 518.4 417.8016 
L 518.4 56.3328 
" style="fill:none;stroke:#000000;stroke-linecap:square;stroke-linejoin:miter;stroke-width:0.8;"/>
   </g>
   <g id="patch_5">
    <path d="M 72 417.8016 
L 518.4 417.8016 
" style="fill:none;stroke:#000000;stroke-linecap:square;stroke-linejoin:miter;stroke-width:0.8;"/>
   </g>
   <g id="patch_6">
    <path d="M 72 56.3328 
L 518.4 56.3328 
" style="fill:none;stroke:#000000;stroke-linecap:square;stroke-linejoin:miter;stroke-width:0.8;"/>
   </g>
   <g id="text_17">
    <!-- Feature Increase Over Time -->
    <defs>
     <path d="M 9.8125 72.90625 
L 19.671875 72.90625 
L 19.671875 0 
L 9.8125 0 
z
" id="DejaVuSans-73"/>
     <path d="M 39.40625 66.21875 
Q 28.65625 66.21875 22.328125 58.203125 
Q 16.015625 50.203125 16.015625 36.375 
Q 16.015625 22.609375 22.328125 14.59375 
Q 28.65625 6.59375 39.40625 6.59375 
Q 50.140625 6.59375 56.421875 14.59375 
Q 62.703125 22.609375 62.703125 36.375 
Q 62.703125 50.203125 56.421875 58.203125 
Q 50.140625 66.21875 39.40625 66.21875 
z
M 39.40625 74.21875 
Q 54.734375 74.21875 63.90625 63.9375 
Q 73.09375 53.65625 73.09375 36.375 
Q 73.09375 19.140625 63.90625 8.859375 
Q 54.734375 -1.421875 39.40625 -1.421875 
Q 24.03125 -1.421875 14.8125 8.828125 
Q 5.609375 19.09375 5.609375 36.375 
Q 5.609375 53.65625 14.8125 63.9375 
Q 24.03125 74.21875 39.40625 74.21875 
z
" id="DejaVuSans-79"/>
     <path d="M 2.984375 54.6875 
L 12.5 54.6875 
L 29.59375 8.796875 
L 46.6875 54.6875 
L 56.203125 54.6875 
L 35.6875 0 
L 23.484375 0 
z
" id="DejaVuSans-118"/>
    </defs>
    <g transform="translate(211.532812 50.3328)scale(0.12 -0.12)">
     <use xlink:href="#DejaVuSans-70"/>
     <use x="57.441406" xlink:href="#DejaVuSans-101"/>
     <use x="118.964844" xlink:href="#DejaVuSans-97"/>
     <use x="180.244141" xlink:href="#DejaVuSans-116"/>
     <use x="219.453125" xlink:href="#DejaVuSans-117"/>
     <use x="282.832031" xlink:href="#DejaVuSans-114"/>
     <use x="323.914062" xlink:href="#DejaVuSans-101"/>
     <use x="385.4375" xlink:href="#DejaVuSans-32"/>
     <use x="417.224609" xlink:href="#DejaVuSans-73"/>
     <use x="446.716797" xlink:href="#DejaVuSans-110"/>
     <use x="510.095703" xlink:href="#DejaVuSans-99"/>
     <use x="565.076172" xlink:href="#DejaVuSans-114"/>
     <use x="606.158203" xlink:href="#DejaVuSans-101"/>
     <use x="667.681641" xlink:href="#DejaVuSans-97"/>
     <use x="728.960938" xlink:href="#DejaVuSans-115"/>
     <use x="781.060547" xlink:href="#DejaVuSans-101"/>
     <use x="842.583984" xlink:href="#DejaVuSans-32"/>
     <use x="874.371094" xlink:href="#DejaVuSans-79"/>
     <use x="953.082031" xlink:href="#DejaVuSans-118"/>
     <use x="1012.261719" xlink:href="#DejaVuSans-101"/>
     <use x="1073.785156" xlink:href="#DejaVuSans-114"/>
     <use x="1114.898438" xlink:href="#DejaVuSans-32"/>
     <use x="1146.685547" xlink:href="#DejaVuSans-84"/>
     <use x="1207.722656" xlink:href="#DejaVuSans-105"/>
     <use x="1235.505859" xlink:href="#DejaVuSans-109"/>
     <use x="1332.917969" xlink:href="#DejaVuSans-101"/>
    </g>
   </g>
   <g id="legend_1">
    <g id="patch_7">
     <path d="M 434.609375 412.8016 
L 511.4 412.8016 
Q 513.4 412.8016 513.4 410.8016 
L 513.4 367.767225 
Q 513.4 365.767225 511.4 365.767225 
L 434.609375 365.767225 
Q 432.609375 365.767225 432.609375 367.767225 
L 432.609375 410.8016 
Q 432.609375 412.8016 434.609375 412.8016 
z
" style="fill:#ffffff;opacity:0.8;stroke:#cccccc;stroke-linejoin:miter;"/>
    </g>
    <g id="line2d_18">
     <path d="M 436.609375 373.865662 
L 456.609375 373.865662 
" style="fill:none;stroke:#1f77b4;stroke-linecap:square;stroke-width:1.5;"/>
    </g>
    <g id="line2d_19"/>
    <g id="text_18">
     <!-- e-greedy -->
     <defs>
      <path d="M 4.890625 31.390625 
L 31.203125 31.390625 
L 31.203125 23.390625 
L 4.890625 23.390625 
z
" id="DejaVuSans-45"/>
      <path d="M 45.40625 27.984375 
Q 45.40625 37.75 41.375 43.109375 
Q 37.359375 48.484375 30.078125 48.484375 
Q 22.859375 48.484375 18.828125 43.109375 
Q 14.796875 37.75 14.796875 27.984375 
Q 14.796875 18.265625 18.828125 12.890625 
Q 22.859375 7.515625 30.078125 7.515625 
Q 37.359375 7.515625 41.375 12.890625 
Q 45.40625 18.265625 45.40625 27.984375 
z
M 54.390625 6.78125 
Q 54.390625 -7.171875 48.1875 -13.984375 
Q 42 -20.796875 29.203125 -20.796875 
Q 24.46875 -20.796875 20.265625 -20.09375 
Q 16.0625 -19.390625 12.109375 -17.921875 
L 12.109375 -9.1875 
Q 16.0625 -11.328125 19.921875 -12.34375 
Q 23.78125 -13.375 27.78125 -13.375 
Q 36.625 -13.375 41.015625 -8.765625 
Q 45.40625 -4.15625 45.40625 5.171875 
L 45.40625 9.625 
Q 42.625 4.78125 38.28125 2.390625 
Q 33.9375 0 27.875 0 
Q 17.828125 0 11.671875 7.65625 
Q 5.515625 15.328125 5.515625 27.984375 
Q 5.515625 40.671875 11.671875 48.328125 
Q 17.828125 56 27.875 56 
Q 33.9375 56 38.28125 53.609375 
Q 42.625 51.21875 45.40625 46.390625 
L 45.40625 54.6875 
L 54.390625 54.6875 
z
" id="DejaVuSans-103"/>
      <path d="M 32.171875 -5.078125 
Q 28.375 -14.84375 24.75 -17.8125 
Q 21.140625 -20.796875 15.09375 -20.796875 
L 7.90625 -20.796875 
L 7.90625 -13.28125 
L 13.1875 -13.28125 
Q 16.890625 -13.28125 18.9375 -11.515625 
Q 21 -9.765625 23.484375 -3.21875 
L 25.09375 0.875 
L 2.984375 54.6875 
L 12.5 54.6875 
L 29.59375 11.921875 
L 46.6875 54.6875 
L 56.203125 54.6875 
z
" id="DejaVuSans-121"/>
     </defs>
     <g transform="translate(464.609375 377.365662)scale(0.1 -0.1)">
      <use xlink:href="#DejaVuSans-101"/>
      <use x="61.523438" xlink:href="#DejaVuSans-45"/>
      <use x="97.607422" xlink:href="#DejaVuSans-103"/>
      <use x="161.083984" xlink:href="#DejaVuSans-114"/>
      <use x="202.166016" xlink:href="#DejaVuSans-101"/>
      <use x="263.689453" xlink:href="#DejaVuSans-101"/>
      <use x="325.212891" xlink:href="#DejaVuSans-100"/>
      <use x="388.689453" xlink:href="#DejaVuSans-121"/>
     </g>
    </g>
    <g id="line2d_20">
     <path d="M 436.609375 388.543787 
L 456.609375 388.543787 
" style="fill:none;stroke:#ff7f0e;stroke-linecap:square;stroke-width:1.5;"/>
    </g>
    <g id="line2d_21"/>
    <g id="text_19">
     <!-- ucb -->
     <defs>
      <path d="M 48.6875 27.296875 
Q 48.6875 37.203125 44.609375 42.84375 
Q 40.53125 48.484375 33.40625 48.484375 
Q 26.265625 48.484375 22.1875 42.84375 
Q 18.109375 37.203125 18.109375 27.296875 
Q 18.109375 17.390625 22.1875 11.75 
Q 26.265625 6.109375 33.40625 6.109375 
Q 40.53125 6.109375 44.609375 11.75 
Q 48.6875 17.390625 48.6875 27.296875 
z
M 18.109375 46.390625 
Q 20.953125 51.265625 25.265625 53.625 
Q 29.59375 56 35.59375 56 
Q 45.5625 56 51.78125 48.09375 
Q 58.015625 40.1875 58.015625 27.296875 
Q 58.015625 14.40625 51.78125 6.484375 
Q 45.5625 -1.421875 35.59375 -1.421875 
Q 29.59375 -1.421875 25.265625 0.953125 
Q 20.953125 3.328125 18.109375 8.203125 
L 18.109375 0 
L 9.078125 0 
L 9.078125 75.984375 
L 18.109375 75.984375 
z
" id="DejaVuSans-98"/>
     </defs>
     <g transform="translate(464.609375 392.043787)scale(0.1 -0.1)">
      <use xlink:href="#DejaVuSans-117"/>
      <use x="63.378906" xlink:href="#DejaVuSans-99"/>
      <use x="118.359375" xlink:href="#DejaVuSans-98"/>
     </g>
    </g>
    <g id="line2d_22">
     <path d="M 436.609375 403.221912 
L 456.609375 403.221912 
" style="fill:none;stroke:#2ca02c;stroke-linecap:square;stroke-width:1.5;"/>
    </g>
    <g id="line2d_23"/>
    <g id="text_20">
     <!-- random -->
     <g transform="translate(464.609375 406.721912)scale(0.1 -0.1)">
      <use xlink:href="#DejaVuSans-114"/>
      <use x="41.113281" xlink:href="#DejaVuSans-97"/>
      <use x="102.392578" xlink:href="#DejaVuSans-110"/>
      <use x="165.771484" xlink:href="#DejaVuSans-100"/>
      <use x="229.248047" xlink:href="#DejaVuSans-111"/>
      <use x="290.429688" xlink:href="#DejaVuSans-109"/>
     </g>
    </g>
   </g>
  </g>
 </g>
 <defs>
  <clipPath id="p4caa5e90e3">
   <rect height="361.4688" width="446.4" x="72" y="56.3328"/>
  </clipPath>
 </defs>
</svg>
