<?xml version="1.0" encoding="utf-8" standalone="no"?>
<!DOCTYPE svg PUBLIC "-//W3C//DTD SVG 1.1//EN"
  "http://www.w3.org/Graphics/SVG/1.1/DTD/svg11.dtd">
<!-- Created with matplotlib (https://matplotlib.org/) -->
<svg height="468.72pt" version="1.1" viewBox="0 0 576 468.72" width="576pt" xmlns="http://www.w3.org/2000/svg" xmlns:xlink="http://www.w3.org/1999/xlink">
 <defs>
  <style type="text/css">
*{stroke-linecap:butt;stroke-linejoin:round;}
  </style>
 </defs>
 <g id="figure_1">
  <g id="patch_1">
   <path d="M 0 468.72 
L 576 468.72 
L 576 0 
L 0 0 
z
" style="fill:#ffffff;"/>
  </g>
  <g id="axes_1">
   <g id="patch_2">
    <path d="M 72 417.1608 
L 518.4 417.1608 
L 518.4 56.2464 
L 72 56.2464 
z
" style="fill:#ffffff;"/>
   </g>
   <g id="matplotlib.axis_1">
    <g id="xtick_1">
     <g id="line2d_1">
      <defs>
       <path d="M 0 0 
L 0 3.5 
" id="m59d12afd7b" style="stroke:#000000;stroke-width:0.8;"/>
      </defs>
      <g>
       <use style="stroke:#000000;stroke-width:0.8;" x="92.290909" xlink:href="#m59d12afd7b" y="417.1608"/>
      </g>
     </g>
     <g id="text_1">
      <!-- 0 -->
      <defs>
       <path d="M 31.78125 66.40625 
Q 24.171875 66.40625 20.328125 58.90625 
Q 16.5 51.421875 16.5 36.375 
Q 16.5 21.390625 20.328125 13.890625 
Q 24.171875 6.390625 31.78125 6.390625 
Q 39.453125 6.390625 43.28125 13.890625 
Q 47.125 21.390625 47.125 36.375 
Q 47.125 51.421875 43.28125 58.90625 
Q 39.453125 66.40625 31.78125 66.40625 
z
M 31.78125 74.21875 
Q 44.046875 74.21875 50.515625 64.515625 
Q 56.984375 54.828125 56.984375 36.375 
Q 56.984375 17.96875 50.515625 8.265625 
Q 44.046875 -1.421875 31.78125 -1.421875 
Q 19.53125 -1.421875 13.0625 8.265625 
Q 6.59375 17.96875 6.59375 36.375 
Q 6.59375 54.828125 13.0625 64.515625 
Q 19.53125 74.21875 31.78125 74.21875 
z
" id="DejaVuSans-48"/>
      </defs>
      <g transform="translate(89.109659 431.759237)scale(0.1 -0.1)">
       <use xlink:href="#DejaVuSans-48"/>
      </g>
     </g>
    </g>
    <g id="xtick_2">
     <g id="line2d_2">
      <g>
       <use style="stroke:#000000;stroke-width:0.8;" x="151.007108" xlink:href="#m59d12afd7b" y="417.1608"/>
      </g>
     </g>
     <g id="text_2">
      <!-- 25000 -->
      <defs>
       <path d="M 19.1875 8.296875 
L 53.609375 8.296875 
L 53.609375 0 
L 7.328125 0 
L 7.328125 8.296875 
Q 12.9375 14.109375 22.625 23.890625 
Q 32.328125 33.6875 34.8125 36.53125 
Q 39.546875 41.84375 41.421875 45.53125 
Q 43.3125 49.21875 43.3125 52.78125 
Q 43.3125 58.59375 39.234375 62.25 
Q 35.15625 65.921875 28.609375 65.921875 
Q 23.96875 65.921875 18.8125 64.3125 
Q 13.671875 62.703125 7.8125 59.421875 
L 7.8125 69.390625 
Q 13.765625 71.78125 18.9375 73 
Q 24.125 74.21875 28.421875 74.21875 
Q 39.75 74.21875 46.484375 68.546875 
Q 53.21875 62.890625 53.21875 53.421875 
Q 53.21875 48.921875 51.53125 44.890625 
Q 49.859375 40.875 45.40625 35.40625 
Q 44.1875 33.984375 37.640625 27.21875 
Q 31.109375 20.453125 19.1875 8.296875 
z
" id="DejaVuSans-50"/>
       <path d="M 10.796875 72.90625 
L 49.515625 72.90625 
L 49.515625 64.59375 
L 19.828125 64.59375 
L 19.828125 46.734375 
Q 21.96875 47.46875 24.109375 47.828125 
Q 26.265625 48.1875 28.421875 48.1875 
Q 40.625 48.1875 47.75 41.5 
Q 54.890625 34.8125 54.890625 23.390625 
Q 54.890625 11.625 47.5625 5.09375 
Q 40.234375 -1.421875 26.90625 -1.421875 
Q 22.3125 -1.421875 17.546875 -0.640625 
Q 12.796875 0.140625 7.71875 1.703125 
L 7.71875 11.625 
Q 12.109375 9.234375 16.796875 8.0625 
Q 21.484375 6.890625 26.703125 6.890625 
Q 35.15625 6.890625 40.078125 11.328125 
Q 45.015625 15.765625 45.015625 23.390625 
Q 45.015625 31 40.078125 35.4375 
Q 35.15625 39.890625 26.703125 39.890625 
Q 22.75 39.890625 18.8125 39.015625 
Q 14.890625 38.140625 10.796875 36.28125 
z
" id="DejaVuSans-53"/>
      </defs>
      <g transform="translate(135.100858 431.759237)scale(0.1 -0.1)">
       <use xlink:href="#DejaVuSans-50"/>
       <use x="63.623047" xlink:href="#DejaVuSans-53"/>
       <use x="127.246094" xlink:href="#DejaVuSans-48"/>
       <use x="190.869141" xlink:href="#DejaVuSans-48"/>
       <use x="254.492188" xlink:href="#DejaVuSans-48"/>
      </g>
     </g>
    </g>
    <g id="xtick_3">
     <g id="line2d_3">
      <g>
       <use style="stroke:#000000;stroke-width:0.8;" x="209.723307" xlink:href="#m59d12afd7b" y="417.1608"/>
      </g>
     </g>
     <g id="text_3">
      <!-- 50000 -->
      <g transform="translate(193.817057 431.759237)scale(0.1 -0.1)">
       <use xlink:href="#DejaVuSans-53"/>
       <use x="63.623047" xlink:href="#DejaVuSans-48"/>
       <use x="127.246094" xlink:href="#DejaVuSans-48"/>
       <use x="190.869141" xlink:href="#DejaVuSans-48"/>
       <use x="254.492188" xlink:href="#DejaVuSans-48"/>
      </g>
     </g>
    </g>
    <g id="xtick_4">
     <g id="line2d_4">
      <g>
       <use style="stroke:#000000;stroke-width:0.8;" x="268.439505" xlink:href="#m59d12afd7b" y="417.1608"/>
      </g>
     </g>
     <g id="text_4">
      <!-- 75000 -->
      <defs>
       <path d="M 8.203125 72.90625 
L 55.078125 72.90625 
L 55.078125 68.703125 
L 28.609375 0 
L 18.3125 0 
L 43.21875 64.59375 
L 8.203125 64.59375 
z
" id="DejaVuSans-55"/>
      </defs>
      <g transform="translate(252.533255 431.759237)scale(0.1 -0.1)">
       <use xlink:href="#DejaVuSans-55"/>
       <use x="63.623047" xlink:href="#DejaVuSans-53"/>
       <use x="127.246094" xlink:href="#DejaVuSans-48"/>
       <use x="190.869141" xlink:href="#DejaVuSans-48"/>
       <use x="254.492188" xlink:href="#DejaVuSans-48"/>
      </g>
     </g>
    </g>
    <g id="xtick_5">
     <g id="line2d_5">
      <g>
       <use style="stroke:#000000;stroke-width:0.8;" x="327.155704" xlink:href="#m59d12afd7b" y="417.1608"/>
      </g>
     </g>
     <g id="text_5">
      <!-- 100000 -->
      <defs>
       <path d="M 12.40625 8.296875 
L 28.515625 8.296875 
L 28.515625 63.921875 
L 10.984375 60.40625 
L 10.984375 69.390625 
L 28.421875 72.90625 
L 38.28125 72.90625 
L 38.28125 8.296875 
L 54.390625 8.296875 
L 54.390625 0 
L 12.40625 0 
z
" id="DejaVuSans-49"/>
      </defs>
      <g transform="translate(308.068204 431.759237)scale(0.1 -0.1)">
       <use xlink:href="#DejaVuSans-49"/>
       <use x="63.623047" xlink:href="#DejaVuSans-48"/>
       <use x="127.246094" xlink:href="#DejaVuSans-48"/>
       <use x="190.869141" xlink:href="#DejaVuSans-48"/>
       <use x="254.492188" xlink:href="#DejaVuSans-48"/>
       <use x="318.115234" xlink:href="#DejaVuSans-48"/>
      </g>
     </g>
    </g>
    <g id="xtick_6">
     <g id="line2d_6">
      <g>
       <use style="stroke:#000000;stroke-width:0.8;" x="385.871903" xlink:href="#m59d12afd7b" y="417.1608"/>
      </g>
     </g>
     <g id="text_6">
      <!-- 125000 -->
      <g transform="translate(366.784403 431.759237)scale(0.1 -0.1)">
       <use xlink:href="#DejaVuSans-49"/>
       <use x="63.623047" xlink:href="#DejaVuSans-50"/>
       <use x="127.246094" xlink:href="#DejaVuSans-53"/>
       <use x="190.869141" xlink:href="#DejaVuSans-48"/>
       <use x="254.492188" xlink:href="#DejaVuSans-48"/>
       <use x="318.115234" xlink:href="#DejaVuSans-48"/>
      </g>
     </g>
    </g>
    <g id="xtick_7">
     <g id="line2d_7">
      <g>
       <use style="stroke:#000000;stroke-width:0.8;" x="444.588101" xlink:href="#m59d12afd7b" y="417.1608"/>
      </g>
     </g>
     <g id="text_7">
      <!-- 150000 -->
      <g transform="translate(425.500601 431.759237)scale(0.1 -0.1)">
       <use xlink:href="#DejaVuSans-49"/>
       <use x="63.623047" xlink:href="#DejaVuSans-53"/>
       <use x="127.246094" xlink:href="#DejaVuSans-48"/>
       <use x="190.869141" xlink:href="#DejaVuSans-48"/>
       <use x="254.492188" xlink:href="#DejaVuSans-48"/>
       <use x="318.115234" xlink:href="#DejaVuSans-48"/>
      </g>
     </g>
    </g>
    <g id="xtick_8">
     <g id="line2d_8">
      <g>
       <use style="stroke:#000000;stroke-width:0.8;" x="503.3043" xlink:href="#m59d12afd7b" y="417.1608"/>
      </g>
     </g>
     <g id="text_8">
      <!-- 175000 -->
      <g transform="translate(484.2168 431.759237)scale(0.1 -0.1)">
       <use xlink:href="#DejaVuSans-49"/>
       <use x="63.623047" xlink:href="#DejaVuSans-55"/>
       <use x="127.246094" xlink:href="#DejaVuSans-53"/>
       <use x="190.869141" xlink:href="#DejaVuSans-48"/>
       <use x="254.492188" xlink:href="#DejaVuSans-48"/>
       <use x="318.115234" xlink:href="#DejaVuSans-48"/>
      </g>
     </g>
    </g>
    <g id="text_9">
     <!-- Time (seconds) -->
     <defs>
      <path d="M -0.296875 72.90625 
L 61.375 72.90625 
L 61.375 64.59375 
L 35.5 64.59375 
L 35.5 0 
L 25.59375 0 
L 25.59375 64.59375 
L -0.296875 64.59375 
z
" id="DejaVuSans-84"/>
      <path d="M 9.421875 54.6875 
L 18.40625 54.6875 
L 18.40625 0 
L 9.421875 0 
z
M 9.421875 75.984375 
L 18.40625 75.984375 
L 18.40625 64.59375 
L 9.421875 64.59375 
z
" id="DejaVuSans-105"/>
      <path d="M 52 44.1875 
Q 55.375 50.25 60.0625 53.125 
Q 64.75 56 71.09375 56 
Q 79.640625 56 84.28125 50.015625 
Q 88.921875 44.046875 88.921875 33.015625 
L 88.921875 0 
L 79.890625 0 
L 79.890625 32.71875 
Q 79.890625 40.578125 77.09375 44.375 
Q 74.3125 48.1875 68.609375 48.1875 
Q 61.625 48.1875 57.5625 43.546875 
Q 53.515625 38.921875 53.515625 30.90625 
L 53.515625 0 
L 44.484375 0 
L 44.484375 32.71875 
Q 44.484375 40.625 41.703125 44.40625 
Q 38.921875 48.1875 33.109375 48.1875 
Q 26.21875 48.1875 22.15625 43.53125 
Q 18.109375 38.875 18.109375 30.90625 
L 18.109375 0 
L 9.078125 0 
L 9.078125 54.6875 
L 18.109375 54.6875 
L 18.109375 46.1875 
Q 21.1875 51.21875 25.484375 53.609375 
Q 29.78125 56 35.6875 56 
Q 41.65625 56 45.828125 52.96875 
Q 50 49.953125 52 44.1875 
z
" id="DejaVuSans-109"/>
      <path d="M 56.203125 29.59375 
L 56.203125 25.203125 
L 14.890625 25.203125 
Q 15.484375 15.921875 20.484375 11.0625 
Q 25.484375 6.203125 34.421875 6.203125 
Q 39.59375 6.203125 44.453125 7.46875 
Q 49.3125 8.734375 54.109375 11.28125 
L 54.109375 2.78125 
Q 49.265625 0.734375 44.1875 -0.34375 
Q 39.109375 -1.421875 33.890625 -1.421875 
Q 20.796875 -1.421875 13.15625 6.1875 
Q 5.515625 13.8125 5.515625 26.8125 
Q 5.515625 40.234375 12.765625 48.109375 
Q 20.015625 56 32.328125 56 
Q 43.359375 56 49.78125 48.890625 
Q 56.203125 41.796875 56.203125 29.59375 
z
M 47.21875 32.234375 
Q 47.125 39.59375 43.09375 43.984375 
Q 39.0625 48.390625 32.421875 48.390625 
Q 24.90625 48.390625 20.390625 44.140625 
Q 15.875 39.890625 15.1875 32.171875 
z
" id="DejaVuSans-101"/>
      <path id="DejaVuSans-32"/>
      <path d="M 31 75.875 
Q 24.46875 64.65625 21.28125 53.65625 
Q 18.109375 42.671875 18.109375 31.390625 
Q 18.109375 20.125 21.3125 9.0625 
Q 24.515625 -2 31 -13.1875 
L 23.1875 -13.1875 
Q 15.875 -1.703125 12.234375 9.375 
Q 8.59375 20.453125 8.59375 31.390625 
Q 8.59375 42.28125 12.203125 53.3125 
Q 15.828125 64.359375 23.1875 75.875 
z
" id="DejaVuSans-40"/>
      <path d="M 44.28125 53.078125 
L 44.28125 44.578125 
Q 40.484375 46.53125 36.375 47.5 
Q 32.28125 48.484375 27.875 48.484375 
Q 21.1875 48.484375 17.84375 46.4375 
Q 14.5 44.390625 14.5 40.28125 
Q 14.5 37.15625 16.890625 35.375 
Q 19.28125 33.59375 26.515625 31.984375 
L 29.59375 31.296875 
Q 39.15625 29.25 43.1875 25.515625 
Q 47.21875 21.78125 47.21875 15.09375 
Q 47.21875 7.46875 41.1875 3.015625 
Q 35.15625 -1.421875 24.609375 -1.421875 
Q 20.21875 -1.421875 15.453125 -0.5625 
Q 10.6875 0.296875 5.421875 2 
L 5.421875 11.28125 
Q 10.40625 8.6875 15.234375 7.390625 
Q 20.0625 6.109375 24.8125 6.109375 
Q 31.15625 6.109375 34.5625 8.28125 
Q 37.984375 10.453125 37.984375 14.40625 
Q 37.984375 18.0625 35.515625 20.015625 
Q 33.0625 21.96875 24.703125 23.78125 
L 21.578125 24.515625 
Q 13.234375 26.265625 9.515625 29.90625 
Q 5.8125 33.546875 5.8125 39.890625 
Q 5.8125 47.609375 11.28125 51.796875 
Q 16.75 56 26.8125 56 
Q 31.78125 56 36.171875 55.265625 
Q 40.578125 54.546875 44.28125 53.078125 
z
" id="DejaVuSans-115"/>
      <path d="M 48.78125 52.59375 
L 48.78125 44.1875 
Q 44.96875 46.296875 41.140625 47.34375 
Q 37.3125 48.390625 33.40625 48.390625 
Q 24.65625 48.390625 19.8125 42.84375 
Q 14.984375 37.3125 14.984375 27.296875 
Q 14.984375 17.28125 19.8125 11.734375 
Q 24.65625 6.203125 33.40625 6.203125 
Q 37.3125 6.203125 41.140625 7.25 
Q 44.96875 8.296875 48.78125 10.40625 
L 48.78125 2.09375 
Q 45.015625 0.34375 40.984375 -0.53125 
Q 36.96875 -1.421875 32.421875 -1.421875 
Q 20.0625 -1.421875 12.78125 6.34375 
Q 5.515625 14.109375 5.515625 27.296875 
Q 5.515625 40.671875 12.859375 48.328125 
Q 20.21875 56 33.015625 56 
Q 37.15625 56 41.109375 55.140625 
Q 45.0625 54.296875 48.78125 52.59375 
z
" id="DejaVuSans-99"/>
      <path d="M 30.609375 48.390625 
Q 23.390625 48.390625 19.1875 42.75 
Q 14.984375 37.109375 14.984375 27.296875 
Q 14.984375 17.484375 19.15625 11.84375 
Q 23.34375 6.203125 30.609375 6.203125 
Q 37.796875 6.203125 41.984375 11.859375 
Q 46.1875 17.53125 46.1875 27.296875 
Q 46.1875 37.015625 41.984375 42.703125 
Q 37.796875 48.390625 30.609375 48.390625 
z
M 30.609375 56 
Q 42.328125 56 49.015625 48.375 
Q 55.71875 40.765625 55.71875 27.296875 
Q 55.71875 13.875 49.015625 6.21875 
Q 42.328125 -1.421875 30.609375 -1.421875 
Q 18.84375 -1.421875 12.171875 6.21875 
Q 5.515625 13.875 5.515625 27.296875 
Q 5.515625 40.765625 12.171875 48.375 
Q 18.84375 56 30.609375 56 
z
" id="DejaVuSans-111"/>
      <path d="M 54.890625 33.015625 
L 54.890625 0 
L 45.90625 0 
L 45.90625 32.71875 
Q 45.90625 40.484375 42.875 44.328125 
Q 39.84375 48.1875 33.796875 48.1875 
Q 26.515625 48.1875 22.3125 43.546875 
Q 18.109375 38.921875 18.109375 30.90625 
L 18.109375 0 
L 9.078125 0 
L 9.078125 54.6875 
L 18.109375 54.6875 
L 18.109375 46.1875 
Q 21.34375 51.125 25.703125 53.5625 
Q 30.078125 56 35.796875 56 
Q 45.21875 56 50.046875 50.171875 
Q 54.890625 44.34375 54.890625 33.015625 
z
" id="DejaVuSans-110"/>
      <path d="M 45.40625 46.390625 
L 45.40625 75.984375 
L 54.390625 75.984375 
L 54.390625 0 
L 45.40625 0 
L 45.40625 8.203125 
Q 42.578125 3.328125 38.25 0.953125 
Q 33.9375 -1.421875 27.875 -1.421875 
Q 17.96875 -1.421875 11.734375 6.484375 
Q 5.515625 14.40625 5.515625 27.296875 
Q 5.515625 40.1875 11.734375 48.09375 
Q 17.96875 56 27.875 56 
Q 33.9375 56 38.25 53.625 
Q 42.578125 51.265625 45.40625 46.390625 
z
M 14.796875 27.296875 
Q 14.796875 17.390625 18.875 11.75 
Q 22.953125 6.109375 30.078125 6.109375 
Q 37.203125 6.109375 41.296875 11.75 
Q 45.40625 17.390625 45.40625 27.296875 
Q 45.40625 37.203125 41.296875 42.84375 
Q 37.203125 48.484375 30.078125 48.484375 
Q 22.953125 48.484375 18.875 42.84375 
Q 14.796875 37.203125 14.796875 27.296875 
z
" id="DejaVuSans-100"/>
      <path d="M 8.015625 75.875 
L 15.828125 75.875 
Q 23.140625 64.359375 26.78125 53.3125 
Q 30.421875 42.28125 30.421875 31.390625 
Q 30.421875 20.453125 26.78125 9.375 
Q 23.140625 -1.703125 15.828125 -13.1875 
L 8.015625 -13.1875 
Q 14.5 -2 17.703125 9.0625 
Q 20.90625 20.125 20.90625 31.390625 
Q 20.90625 42.671875 17.703125 53.65625 
Q 14.5 64.65625 8.015625 75.875 
z
" id="DejaVuSans-41"/>
     </defs>
     <g transform="translate(256.884375 445.437363)scale(0.1 -0.1)">
      <use xlink:href="#DejaVuSans-84"/>
      <use x="61.037109" xlink:href="#DejaVuSans-105"/>
      <use x="88.820312" xlink:href="#DejaVuSans-109"/>
      <use x="186.232422" xlink:href="#DejaVuSans-101"/>
      <use x="247.755859" xlink:href="#DejaVuSans-32"/>
      <use x="279.542969" xlink:href="#DejaVuSans-40"/>
      <use x="318.556641" xlink:href="#DejaVuSans-115"/>
      <use x="370.65625" xlink:href="#DejaVuSans-101"/>
      <use x="432.179688" xlink:href="#DejaVuSans-99"/>
      <use x="487.160156" xlink:href="#DejaVuSans-111"/>
      <use x="548.341797" xlink:href="#DejaVuSans-110"/>
      <use x="611.720703" xlink:href="#DejaVuSans-100"/>
      <use x="675.197266" xlink:href="#DejaVuSans-115"/>
      <use x="727.296875" xlink:href="#DejaVuSans-41"/>
     </g>
    </g>
   </g>
   <g id="matplotlib.axis_2">
    <g id="ytick_1">
     <g id="line2d_9">
      <defs>
       <path d="M 0 0 
L -3.5 0 
" id="m48f20dd1f1" style="stroke:#000000;stroke-width:0.8;"/>
      </defs>
      <g>
       <use style="stroke:#000000;stroke-width:0.8;" x="72" xlink:href="#m48f20dd1f1" y="382.283612"/>
      </g>
     </g>
     <g id="text_10">
      <!-- 4.34 -->
      <defs>
       <path d="M 37.796875 64.3125 
L 12.890625 25.390625 
L 37.796875 25.390625 
z
M 35.203125 72.90625 
L 47.609375 72.90625 
L 47.609375 25.390625 
L 58.015625 25.390625 
L 58.015625 17.1875 
L 47.609375 17.1875 
L 47.609375 0 
L 37.796875 0 
L 37.796875 17.1875 
L 4.890625 17.1875 
L 4.890625 26.703125 
z
" id="DejaVuSans-52"/>
       <path d="M 10.6875 12.40625 
L 21 12.40625 
L 21 0 
L 10.6875 0 
z
" id="DejaVuSans-46"/>
       <path d="M 40.578125 39.3125 
Q 47.65625 37.796875 51.625 33 
Q 55.609375 28.21875 55.609375 21.1875 
Q 55.609375 10.40625 48.1875 4.484375 
Q 40.765625 -1.421875 27.09375 -1.421875 
Q 22.515625 -1.421875 17.65625 -0.515625 
Q 12.796875 0.390625 7.625 2.203125 
L 7.625 11.71875 
Q 11.71875 9.328125 16.59375 8.109375 
Q 21.484375 6.890625 26.8125 6.890625 
Q 36.078125 6.890625 40.9375 10.546875 
Q 45.796875 14.203125 45.796875 21.1875 
Q 45.796875 27.640625 41.28125 31.265625 
Q 36.765625 34.90625 28.71875 34.90625 
L 20.21875 34.90625 
L 20.21875 43.015625 
L 29.109375 43.015625 
Q 36.375 43.015625 40.234375 45.921875 
Q 44.09375 48.828125 44.09375 54.296875 
Q 44.09375 59.90625 40.109375 62.90625 
Q 36.140625 65.921875 28.71875 65.921875 
Q 24.65625 65.921875 20.015625 65.03125 
Q 15.375 64.15625 9.8125 62.3125 
L 9.8125 71.09375 
Q 15.4375 72.65625 20.34375 73.4375 
Q 25.25 74.21875 29.59375 74.21875 
Q 40.828125 74.21875 47.359375 69.109375 
Q 53.90625 64.015625 53.90625 55.328125 
Q 53.90625 49.265625 50.4375 45.09375 
Q 46.96875 40.921875 40.578125 39.3125 
z
" id="DejaVuSans-51"/>
      </defs>
      <g transform="translate(42.734375 386.08283)scale(0.1 -0.1)">
       <use xlink:href="#DejaVuSans-52"/>
       <use x="63.623047" xlink:href="#DejaVuSans-46"/>
       <use x="95.410156" xlink:href="#DejaVuSans-51"/>
       <use x="159.033203" xlink:href="#DejaVuSans-52"/>
      </g>
     </g>
    </g>
    <g id="ytick_2">
     <g id="line2d_10">
      <g>
       <use style="stroke:#000000;stroke-width:0.8;" x="72" xlink:href="#m48f20dd1f1" y="339.691737"/>
      </g>
     </g>
     <g id="text_11">
      <!-- 4.36 -->
      <defs>
       <path d="M 33.015625 40.375 
Q 26.375 40.375 22.484375 35.828125 
Q 18.609375 31.296875 18.609375 23.390625 
Q 18.609375 15.53125 22.484375 10.953125 
Q 26.375 6.390625 33.015625 6.390625 
Q 39.65625 6.390625 43.53125 10.953125 
Q 47.40625 15.53125 47.40625 23.390625 
Q 47.40625 31.296875 43.53125 35.828125 
Q 39.65625 40.375 33.015625 40.375 
z
M 52.59375 71.296875 
L 52.59375 62.3125 
Q 48.875 64.0625 45.09375 64.984375 
Q 41.3125 65.921875 37.59375 65.921875 
Q 27.828125 65.921875 22.671875 59.328125 
Q 17.53125 52.734375 16.796875 39.40625 
Q 19.671875 43.65625 24.015625 45.921875 
Q 28.375 48.1875 33.59375 48.1875 
Q 44.578125 48.1875 50.953125 41.515625 
Q 57.328125 34.859375 57.328125 23.390625 
Q 57.328125 12.15625 50.6875 5.359375 
Q 44.046875 -1.421875 33.015625 -1.421875 
Q 20.359375 -1.421875 13.671875 8.265625 
Q 6.984375 17.96875 6.984375 36.375 
Q 6.984375 53.65625 15.1875 63.9375 
Q 23.390625 74.21875 37.203125 74.21875 
Q 40.921875 74.21875 44.703125 73.484375 
Q 48.484375 72.75 52.59375 71.296875 
z
" id="DejaVuSans-54"/>
      </defs>
      <g transform="translate(42.734375 343.490956)scale(0.1 -0.1)">
       <use xlink:href="#DejaVuSans-52"/>
       <use x="63.623047" xlink:href="#DejaVuSans-46"/>
       <use x="95.410156" xlink:href="#DejaVuSans-51"/>
       <use x="159.033203" xlink:href="#DejaVuSans-54"/>
      </g>
     </g>
    </g>
    <g id="ytick_3">
     <g id="line2d_11">
      <g>
       <use style="stroke:#000000;stroke-width:0.8;" x="72" xlink:href="#m48f20dd1f1" y="297.099862"/>
      </g>
     </g>
     <g id="text_12">
      <!-- 4.38 -->
      <defs>
       <path d="M 31.78125 34.625 
Q 24.75 34.625 20.71875 30.859375 
Q 16.703125 27.09375 16.703125 20.515625 
Q 16.703125 13.921875 20.71875 10.15625 
Q 24.75 6.390625 31.78125 6.390625 
Q 38.8125 6.390625 42.859375 10.171875 
Q 46.921875 13.96875 46.921875 20.515625 
Q 46.921875 27.09375 42.890625 30.859375 
Q 38.875 34.625 31.78125 34.625 
z
M 21.921875 38.8125 
Q 15.578125 40.375 12.03125 44.71875 
Q 8.5 49.078125 8.5 55.328125 
Q 8.5 64.0625 14.71875 69.140625 
Q 20.953125 74.21875 31.78125 74.21875 
Q 42.671875 74.21875 48.875 69.140625 
Q 55.078125 64.0625 55.078125 55.328125 
Q 55.078125 49.078125 51.53125 44.71875 
Q 48 40.375 41.703125 38.8125 
Q 48.828125 37.15625 52.796875 32.3125 
Q 56.78125 27.484375 56.78125 20.515625 
Q 56.78125 9.90625 50.3125 4.234375 
Q 43.84375 -1.421875 31.78125 -1.421875 
Q 19.734375 -1.421875 13.25 4.234375 
Q 6.78125 9.90625 6.78125 20.515625 
Q 6.78125 27.484375 10.78125 32.3125 
Q 14.796875 37.15625 21.921875 38.8125 
z
M 18.3125 54.390625 
Q 18.3125 48.734375 21.84375 45.5625 
Q 25.390625 42.390625 31.78125 42.390625 
Q 38.140625 42.390625 41.71875 45.5625 
Q 45.3125 48.734375 45.3125 54.390625 
Q 45.3125 60.0625 41.71875 63.234375 
Q 38.140625 66.40625 31.78125 66.40625 
Q 25.390625 66.40625 21.84375 63.234375 
Q 18.3125 60.0625 18.3125 54.390625 
z
" id="DejaVuSans-56"/>
      </defs>
      <g transform="translate(42.734375 300.899081)scale(0.1 -0.1)">
       <use xlink:href="#DejaVuSans-52"/>
       <use x="63.623047" xlink:href="#DejaVuSans-46"/>
       <use x="95.410156" xlink:href="#DejaVuSans-51"/>
       <use x="159.033203" xlink:href="#DejaVuSans-56"/>
      </g>
     </g>
    </g>
    <g id="ytick_4">
     <g id="line2d_12">
      <g>
       <use style="stroke:#000000;stroke-width:0.8;" x="72" xlink:href="#m48f20dd1f1" y="254.507987"/>
      </g>
     </g>
     <g id="text_13">
      <!-- 4.40 -->
      <g transform="translate(42.734375 258.307206)scale(0.1 -0.1)">
       <use xlink:href="#DejaVuSans-52"/>
       <use x="63.623047" xlink:href="#DejaVuSans-46"/>
       <use x="95.410156" xlink:href="#DejaVuSans-52"/>
       <use x="159.033203" xlink:href="#DejaVuSans-48"/>
      </g>
     </g>
    </g>
    <g id="ytick_5">
     <g id="line2d_13">
      <g>
       <use style="stroke:#000000;stroke-width:0.8;" x="72" xlink:href="#m48f20dd1f1" y="211.916113"/>
      </g>
     </g>
     <g id="text_14">
      <!-- 4.42 -->
      <g transform="translate(42.734375 215.715331)scale(0.1 -0.1)">
       <use xlink:href="#DejaVuSans-52"/>
       <use x="63.623047" xlink:href="#DejaVuSans-46"/>
       <use x="95.410156" xlink:href="#DejaVuSans-52"/>
       <use x="159.033203" xlink:href="#DejaVuSans-50"/>
      </g>
     </g>
    </g>
    <g id="ytick_6">
     <g id="line2d_14">
      <g>
       <use style="stroke:#000000;stroke-width:0.8;" x="72" xlink:href="#m48f20dd1f1" y="169.324238"/>
      </g>
     </g>
     <g id="text_15">
      <!-- 4.44 -->
      <g transform="translate(42.734375 173.123457)scale(0.1 -0.1)">
       <use xlink:href="#DejaVuSans-52"/>
       <use x="63.623047" xlink:href="#DejaVuSans-46"/>
       <use x="95.410156" xlink:href="#DejaVuSans-52"/>
       <use x="159.033203" xlink:href="#DejaVuSans-52"/>
      </g>
     </g>
    </g>
    <g id="ytick_7">
     <g id="line2d_15">
      <g>
       <use style="stroke:#000000;stroke-width:0.8;" x="72" xlink:href="#m48f20dd1f1" y="126.732363"/>
      </g>
     </g>
     <g id="text_16">
      <!-- 4.46 -->
      <g transform="translate(42.734375 130.531582)scale(0.1 -0.1)">
       <use xlink:href="#DejaVuSans-52"/>
       <use x="63.623047" xlink:href="#DejaVuSans-46"/>
       <use x="95.410156" xlink:href="#DejaVuSans-52"/>
       <use x="159.033203" xlink:href="#DejaVuSans-54"/>
      </g>
     </g>
    </g>
    <g id="ytick_8">
     <g id="line2d_16">
      <g>
       <use style="stroke:#000000;stroke-width:0.8;" x="72" xlink:href="#m48f20dd1f1" y="84.140488"/>
      </g>
     </g>
     <g id="text_17">
      <!-- 4.48 -->
      <g transform="translate(42.734375 87.939707)scale(0.1 -0.1)">
       <use xlink:href="#DejaVuSans-52"/>
       <use x="63.623047" xlink:href="#DejaVuSans-46"/>
       <use x="95.410156" xlink:href="#DejaVuSans-52"/>
       <use x="159.033203" xlink:href="#DejaVuSans-56"/>
      </g>
     </g>
    </g>
    <g id="text_18">
     <!-- Coverage -->
     <defs>
      <path d="M 64.40625 67.28125 
L 64.40625 56.890625 
Q 59.421875 61.53125 53.78125 63.8125 
Q 48.140625 66.109375 41.796875 66.109375 
Q 29.296875 66.109375 22.65625 58.46875 
Q 16.015625 50.828125 16.015625 36.375 
Q 16.015625 21.96875 22.65625 14.328125 
Q 29.296875 6.6875 41.796875 6.6875 
Q 48.140625 6.6875 53.78125 8.984375 
Q 59.421875 11.28125 64.40625 15.921875 
L 64.40625 5.609375 
Q 59.234375 2.09375 53.4375 0.328125 
Q 47.65625 -1.421875 41.21875 -1.421875 
Q 24.65625 -1.421875 15.125 8.703125 
Q 5.609375 18.84375 5.609375 36.375 
Q 5.609375 53.953125 15.125 64.078125 
Q 24.65625 74.21875 41.21875 74.21875 
Q 47.75 74.21875 53.53125 72.484375 
Q 59.328125 70.75 64.40625 67.28125 
z
" id="DejaVuSans-67"/>
      <path d="M 2.984375 54.6875 
L 12.5 54.6875 
L 29.59375 8.796875 
L 46.6875 54.6875 
L 56.203125 54.6875 
L 35.6875 0 
L 23.484375 0 
z
" id="DejaVuSans-118"/>
      <path d="M 41.109375 46.296875 
Q 39.59375 47.171875 37.8125 47.578125 
Q 36.03125 48 33.890625 48 
Q 26.265625 48 22.1875 43.046875 
Q 18.109375 38.09375 18.109375 28.8125 
L 18.109375 0 
L 9.078125 0 
L 9.078125 54.6875 
L 18.109375 54.6875 
L 18.109375 46.1875 
Q 20.953125 51.171875 25.484375 53.578125 
Q 30.03125 56 36.53125 56 
Q 37.453125 56 38.578125 55.875 
Q 39.703125 55.765625 41.0625 55.515625 
z
" id="DejaVuSans-114"/>
      <path d="M 34.28125 27.484375 
Q 23.390625 27.484375 19.1875 25 
Q 14.984375 22.515625 14.984375 16.5 
Q 14.984375 11.71875 18.140625 8.90625 
Q 21.296875 6.109375 26.703125 6.109375 
Q 34.1875 6.109375 38.703125 11.40625 
Q 43.21875 16.703125 43.21875 25.484375 
L 43.21875 27.484375 
z
M 52.203125 31.203125 
L 52.203125 0 
L 43.21875 0 
L 43.21875 8.296875 
Q 40.140625 3.328125 35.546875 0.953125 
Q 30.953125 -1.421875 24.3125 -1.421875 
Q 15.921875 -1.421875 10.953125 3.296875 
Q 6 8.015625 6 15.921875 
Q 6 25.140625 12.171875 29.828125 
Q 18.359375 34.515625 30.609375 34.515625 
L 43.21875 34.515625 
L 43.21875 35.40625 
Q 43.21875 41.609375 39.140625 45 
Q 35.0625 48.390625 27.6875 48.390625 
Q 23 48.390625 18.546875 47.265625 
Q 14.109375 46.140625 10.015625 43.890625 
L 10.015625 52.203125 
Q 14.9375 54.109375 19.578125 55.046875 
Q 24.21875 56 28.609375 56 
Q 40.484375 56 46.34375 49.84375 
Q 52.203125 43.703125 52.203125 31.203125 
z
" id="DejaVuSans-97"/>
      <path d="M 45.40625 27.984375 
Q 45.40625 37.75 41.375 43.109375 
Q 37.359375 48.484375 30.078125 48.484375 
Q 22.859375 48.484375 18.828125 43.109375 
Q 14.796875 37.75 14.796875 27.984375 
Q 14.796875 18.265625 18.828125 12.890625 
Q 22.859375 7.515625 30.078125 7.515625 
Q 37.359375 7.515625 41.375 12.890625 
Q 45.40625 18.265625 45.40625 27.984375 
z
M 54.390625 6.78125 
Q 54.390625 -7.171875 48.1875 -13.984375 
Q 42 -20.796875 29.203125 -20.796875 
Q 24.46875 -20.796875 20.265625 -20.09375 
Q 16.0625 -19.390625 12.109375 -17.921875 
L 12.109375 -9.1875 
Q 16.0625 -11.328125 19.921875 -12.34375 
Q 23.78125 -13.375 27.78125 -13.375 
Q 36.625 -13.375 41.015625 -8.765625 
Q 45.40625 -4.15625 45.40625 5.171875 
L 45.40625 9.625 
Q 42.625 4.78125 38.28125 2.390625 
Q 33.9375 0 27.875 0 
Q 17.828125 0 11.671875 7.65625 
Q 5.515625 15.328125 5.515625 27.984375 
Q 5.515625 40.671875 11.671875 48.328125 
Q 17.828125 56 27.875 56 
Q 33.9375 56 38.28125 53.609375 
Q 42.625 51.21875 45.40625 46.390625 
L 45.40625 54.6875 
L 54.390625 54.6875 
z
" id="DejaVuSans-103"/>
     </defs>
     <g transform="translate(36.654687 260.660631)rotate(-90)scale(0.1 -0.1)">
      <use xlink:href="#DejaVuSans-67"/>
      <use x="69.824219" xlink:href="#DejaVuSans-111"/>
      <use x="131.005859" xlink:href="#DejaVuSans-118"/>
      <use x="190.185547" xlink:href="#DejaVuSans-101"/>
      <use x="251.708984" xlink:href="#DejaVuSans-114"/>
      <use x="292.822266" xlink:href="#DejaVuSans-97"/>
      <use x="354.101562" xlink:href="#DejaVuSans-103"/>
      <use x="417.578125" xlink:href="#DejaVuSans-101"/>
     </g>
    </g>
   </g>
   <g id="line2d_17">
    <path clip-path="url(#p296e976bc6)" d="M 92.290909 369.129381 
L 92.431828 356.545347 
L 92.54926 338.589289 
L 92.690179 334.686111 
L 92.760639 332.680579 
L 92.901558 314.902448 
L 92.925044 314.902448 
L 93.01899 313.684815 
L 93.159909 308.674075 
L 93.183395 308.674075 
L 93.324314 306.217784 
L 93.347801 306.217784 
L 93.512206 304.117572 
L 93.653125 303.612677 
L 93.81753 300.976169 
L 93.841017 300.976169 
L 93.958449 300.202154 
L 94.099368 295.725594 
L 94.263773 295.687097 
L 94.451665 294.648284 
L 94.592584 289.662859 
L 94.733503 289.204018 
L 94.897908 288.325208 
L 95.015341 276.259525 
L 95.203233 273.36148 
L 95.226719 273.36148 
L 95.344151 269.087474 
L 95.48507 267.853939 
L 95.649476 267.853939 
L 95.766908 267.629836 
L 95.88434 267.629836 
L 96.048746 267.032495 
L 96.260124 266.845905 
L 96.377557 265.950796 
L 96.565448 265.838969 
L 96.588935 265.838969 
L 96.706367 262.341867 
L 96.729854 262.341867 
L 96.847286 261.896378 
L 97.011691 261.896378 
L 97.058664 261.525302 
L 97.176097 254.024461 
L 97.293529 254.024461 
L 97.434448 252.590353 
L 97.645826 252.55361 
L 97.763259 252.406654 
L 98.326934 252.296451 
L 98.444367 252.222991 
L 99.008042 252.149536 
L 99.125475 251.672221 
L 99.195934 251.672221 
L 99.313366 251.305223 
L 99.454285 251.305223 
L 99.642177 250.791671 
L 100.933934 250.681661 
L 101.074852 250.644994 
L 101.192285 250.644994 
L 101.309717 250.388366 
L 101.779447 250.388366 
L 101.896879 247.204768 
L 102.22569 247.131711 
L 102.343122 246.985613 
L 102.507528 246.985613 
L 102.62496 246.839539 
L 102.69542 246.76651 
L 102.812852 246.583964 
L 102.883311 246.583964 
L 103.000744 221.767506 
L 103.09469 221.767506 
L 103.212122 221.62536 
L 103.446987 221.589827 
L 103.658365 220.488981 
L 103.775798 220.418004 
L 103.799284 220.311548 
L 103.916716 217.335747 
L 104.198554 217.265012 
L 104.315987 216.69932 
L 104.69177 216.663976 
L 104.832689 216.487275 
L 104.973608 216.487275 
L 105.09104 215.780808 
L 105.138013 215.780808 
L 105.255446 215.639579 
L 105.278932 215.639579 
L 105.396365 215.216023 
L 106.171418 215.145449 
L 106.335824 214.969038 
L 106.570689 214.898483 
L 106.688121 214.087486 
L 106.782067 214.087486 
L 106.993445 213.38285 
L 107.557121 213.2772 
L 107.69804 213.241987 
L 107.815472 213.136354 
L 107.956391 213.101145 
L 108.334523 213.065938 
L 108.451956 212.678749 
L 109.884631 212.573181 
L 110.02555 212.045517 
L 111.29382 211.940021 
L 111.458225 211.869696 
L 111.927955 211.869696 
L 112.09236 211.272155 
L 112.49163 211.272155 
L 112.656035 210.429224 
L 113.172738 210.394119 
L 113.384116 207.554993 
L 113.853846 207.485001 
L 113.971278 198.777484 
L 114.464494 198.777484 
L 114.581927 198.39623 
L 116.29644 198.326928 
L 116.437359 198.188339 
L 116.907088 198.153695 
L 117.024521 197.288019 
L 117.188926 197.288019 
L 117.306358 196.976574 
L 119.678493 196.907378 
L 119.795925 196.388575 
L 120.077763 196.388575 
L 120.195195 196.146566 
L 121.158141 196.077432 
L 121.275573 196.008304 
L 121.463465 195.973742 
L 121.580898 195.00652 
L 121.627871 195.00652 
L 121.768789 193.798914 
L 122.56733 193.764434 
L 122.684762 189.258649 
L 123.882573 189.190028 
L 124.046978 188.77841 
L 124.563681 188.675535 
L 124.728086 188.606957 
L 125.972869 188.5041 
L 126.090302 188.401255 
L 127.804815 188.298421 
L 128.03968 188.127057 
L 129.448868 188.05852 
L 129.566301 187.750167 
L 129.70722 187.715912 
L 131.821003 187.613154 
L 131.961922 187.578904 
L 136.330407 187.544655 
L 136.447839 186.551992 
L 136.518299 186.551992 
L 136.635731 185.970581 
L 140.7717 185.868017 
L 140.912619 185.833832 
L 141.6407 185.833832 
L 141.758132 184.979605 
L 142.556672 184.979605 
L 142.674105 184.023808 
L 149.931427 183.921459 
L 150.048859 180.788264 
L 153.736237 180.754265 
L 153.853669 180.040591 
L 154.323399 180.040591 
L 154.440831 177.259125 
L 158.198668 177.157522 
L 158.339587 177.089793 
L 161.792099 176.988209 
L 161.933018 176.954351 
L 162.264177 176.920493 
L 162.38161 175.939162 
L 172.011066 175.837704 
L 172.151985 175.465788 
L 173.114931 175.364382 
L 173.25585 175.330583 
L 173.537688 175.330583 
L 173.65512 175.161604 
L 175.839363 175.094021 
L 175.980281 175.026444 
L 185.565114 174.925086 
L 185.706033 174.891303 
L 186.340168 174.78996 
L 186.481086 174.756181 
L 186.645492 174.756181 
L 186.762924 174.62108 
L 189.722221 174.553537 
L 189.839653 173.338599 
L 191.319301 173.304874 
L 191.436734 170.409073 
L 193.832355 170.409073 
L 193.949787 168.662513 
L 202.827676 168.56185 
L 202.945109 168.461198 
L 204.448243 168.42765 
L 204.565676 168.29347 
L 206.867351 168.259928 
L 206.984783 167.086723 
L 214.197481 167.019728 
L 214.314913 166.416988 
L 223.5451 166.31657 
L 223.686019 166.283099 
L 225.964207 166.283099 
L 226.08164 166.115765 
L 226.246045 166.04884 
L 235.358799 165.98192 
L 235.476231 165.5805 
L 236.183174 165.5805 
L 236.300607 163.943176 
L 236.582444 163.943176 
L 236.629417 163.342437 
L 236.74685 158.583714 
L 238.34393 158.484142 
L 238.461363 157.687955 
L 248.842387 157.621637 
L 248.959819 143.244009 
L 260.632599 143.244009 
L 260.750032 137.775622 
L 261.219761 137.775622 
L 261.337194 136.283947 
L 264.768569 136.186748 
L 264.909487 136.15435 
L 265.755001 136.15435 
L 265.872433 135.992379 
L 266.530054 135.959988 
L 266.647487 135.539011 
L 267.89227 135.539011 
L 268.009703 134.050936 
L 271.485702 134.018613 
L 271.603134 133.857015 
L 276.347403 133.760071 
L 276.488322 133.695446 
L 278.977889 133.598518 
L 279.118807 133.566211 
L 285.460157 133.469297 
L 285.577589 133.114031 
L 288.724778 133.114031 
L 288.84221 132.984877 
L 297.205745 132.888023 
L 297.323178 132.53298 
L 303.946365 132.436174 
L 304.087284 132.403907 
L 304.134257 132.403907 
L 304.251689 132.11356 
L 306.412445 132.11356 
L 306.529878 131.984545 
L 312.497792 131.952295 
L 312.615225 131.436435 
L 312.685684 131.436435 
L 312.803116 131.11417 
L 312.944035 131.081949 
L 314.118359 131.081949 
L 314.235792 129.247239 
L 314.259278 129.247239 
L 314.376711 128.765025 
L 314.822954 128.765025 
L 314.940386 128.604342 
L 319.355844 128.507946 
L 319.473277 128.347309 
L 322.479546 128.347309 
L 322.596978 123.668952 
L 323.395519 123.668952 
L 323.512951 123.509152 
L 324.241032 123.509152 
L 324.45241 122.966041 
L 324.781221 122.966041 
L 324.898653 122.742499 
L 327.552625 122.742499 
L 327.670058 121.944578 
L 332.931029 121.848873 
L 333.071948 121.785076 
L 337.207917 121.785076 
L 337.32535 121.211097 
L 339.110322 121.211097 
L 339.227754 120.382646 
L 344.018996 120.382646 
L 344.136429 119.777707 
L 351.205859 119.714053 
L 351.323291 119.109552 
L 354.493966 119.045943 
L 354.611399 110.561701 
L 356.187341 110.561701 
L 356.304774 108.16982 
L 360.93161 108.138389 
L 361.049043 108.044103 
L 365.487987 108.012676 
L 365.60542 106.254485 
L 368.353338 106.254485 
L 368.47077 106.003588 
L 374.389363 105.940874 
L 374.530282 105.878165 
L 378.992713 105.878165 
L 379.110145 102.654361 
L 381.343709 102.654361 
L 381.461142 102.341968 
L 391.301977 102.24827 
L 391.442896 102.21704 
L 398.676731 102.123355 
L 398.794164 94.937984 
L 399.874542 94.937984 
L 399.991974 94.783072 
L 400.391244 94.783072 
L 400.508677 94.535267 
L 402.645946 94.473326 
L 402.763379 94.380423 
L 403.045217 94.380423 
L 403.162649 91.752025 
L 406.171267 91.659394 
L 406.288699 91.19638 
L 407.345591 91.19638 
L 407.463023 90.733597 
L 408.590374 90.733597 
L 408.707807 90.055268 
L 410.586725 90.024447 
L 410.704157 89.68548 
L 414.461994 89.654671 
L 414.579427 89.377436 
L 419.769939 89.31584 
L 419.887371 87.961755 
L 421.766289 87.961755 
L 421.883722 87.808007 
L 426.862855 87.77726 
L 426.980288 87.469851 
L 427.121207 87.439116 
L 429.049447 87.439116 
L 429.166879 87.03965 
L 433.347472 86.94749 
L 433.488391 86.916772 
L 437.903849 86.824625 
L 438.021282 86.732486 
L 445.489982 86.640357 
L 445.630901 86.578942 
L 448.402306 86.578942 
L 448.519738 86.118464 
L 452.749653 86.087773 
L 452.867085 85.965022 
L 454.76949 85.934337 
L 454.886923 85.842287 
L 457.846219 85.750246 
L 457.963652 85.504849 
L 458.268976 85.504849 
L 458.386408 85.320844 
L 465.361893 85.320844 
L 465.479325 83.941972 
L 471.538837 83.85012 
L 471.656269 83.299201 
L 471.961593 83.299201 
L 472.079026 83.176819 
L 476.355914 83.085043 
L 476.473346 82.565152 
L 477.812075 82.534579 
L 477.929508 76.683262 
L 485.468668 76.652883 
L 485.5861 76.015156 
L 488.193099 75.924088 
L 488.334018 75.893734 
L 489.837153 75.893734 
L 489.954585 75.559906 
L 494.39353 75.468883 
L 494.534449 75.438544 
L 495.6618 75.408206 
L 495.779232 73.62002 
L 496.06107 73.62002 
L 496.178502 72.98438 
L 498.080907 72.954122 
L 498.104394 72.6516 
L 498.104394 72.6516 
" style="fill:none;stroke:#1f77b4;stroke-linecap:square;stroke-width:1.5;"/>
   </g>
   <g id="line2d_18">
    <path clip-path="url(#p296e976bc6)" d="M 92.290909 399.764197 
L 92.431828 329.360967 
L 92.596233 294.532932 
L 93.159909 266.099921 
L 93.394774 265.205534 
L 93.559179 251.525404 
L 93.653125 251.415307 
L 93.700098 251.305223 
L 93.81753 250.608329 
L 93.841017 250.608329 
L 93.958449 249.875322 
L 94.005422 249.802054 
L 94.122854 249.216113 
L 94.146341 249.216113 
L 94.2168 248.813494 
L 94.334233 246.218979 
L 94.475152 246.036541 
L 94.68653 245.927095 
L 94.756989 245.744714 
L 94.874422 241.923004 
L 95.038827 241.886683 
L 95.179746 241.269436 
L 95.344151 241.233141 
L 95.48507 241.051683 
L 95.649476 240.942826 
L 95.696449 240.906543 
L 95.813881 240.036178 
L 95.9548 239.92744 
L 96.001773 239.854955 
L 96.119205 239.492616 
L 96.307097 239.492616 
L 96.448016 239.239063 
L 96.612421 239.130419 
L 96.729854 238.189369 
L 97.082151 238.080848 
L 97.22307 237.936173 
L 97.270043 237.936173 
L 97.410962 237.610737 
L 97.504908 237.610737 
L 97.645826 236.996337 
L 97.786745 236.960209 
L 97.857205 236.960209 
L 97.974637 223.653002 
L 98.444367 223.617391 
L 98.585286 223.439356 
L 98.679232 223.403754 
L 98.796664 222.371869 
L 99.172448 222.265188 
L 99.28988 221.589827 
L 99.853555 221.518766 
L 100.111907 220.84395 
L 100.182366 220.772945 
L 100.299799 220.524472 
L 100.440717 220.524472 
L 100.55815 220.311548 
L 100.628609 220.311548 
L 100.746042 219.992254 
L 101.168798 219.885847 
L 101.286231 219.637612 
L 101.474123 219.566699 
L 101.591555 219.424892 
L 101.920366 219.424892 
L 102.037798 219.283106 
L 102.671933 219.17678 
L 102.812852 218.50367 
L 102.859825 218.50367 
L 102.977257 218.185 
L 103.400014 218.114199 
L 103.517446 217.972613 
L 103.940203 217.866439 
L 104.081122 217.83105 
L 104.621311 217.724891 
L 104.76223 217.689508 
L 105.210821 217.583365 
L 105.35174 217.547987 
L 105.516146 217.512611 
L 105.704038 216.69932 
L 106.009362 216.663976 
L 106.126794 216.557951 
L 106.737443 216.522612 
L 106.854875 216.416604 
L 107.442037 216.416604 
L 107.559469 216.275278 
L 108.780766 216.204623 
L 108.898199 216.133974 
L 109.720226 216.133974 
L 109.837658 215.710191 
L 110.683171 215.710191 
L 110.800604 191.388422 
L 110.82409 191.388422 
L 110.941522 183.068997 
L 111.317306 183.068997 
L 111.434739 174.047119 
L 112.068873 173.945868 
L 112.303738 173.777143 
L 113.266684 173.675922 
L 113.384116 173.540978 
L 114.6289 173.473514 
L 114.746332 173.338599 
L 115.216062 173.338599 
L 115.333494 169.871319 
L 115.403954 169.871319 
L 115.521386 169.736929 
L 116.061575 169.669741 
L 116.179007 168.528298 
L 116.29644 168.461198 
L 116.413872 167.723421 
L 117.306358 167.622861 
L 117.447277 167.589343 
L 118.151872 167.522311 
L 118.292791 167.455284 
L 119.772439 167.388262 
L 119.889871 166.416988 
L 120.007304 166.416988 
L 120.124736 164.076727 
L 120.524006 164.076727 
L 120.641438 163.50927 
L 121.862735 163.475901 
L 121.980168 163.242352 
L 123.929546 163.142278 
L 124.070464 163.075567 
L 124.399275 163.075567 
L 124.516708 162.875465 
L 127.053247 162.775431 
L 127.17068 161.942229 
L 129.965571 161.908916 
L 130.083003 161.808986 
L 132.36354 161.709067 
L 132.504459 161.64246 
L 135.933485 161.64246 
L 136.050918 161.309497 
L 136.708539 161.309497 
L 136.849458 161.14306 
L 140.936105 161.14306 
L 141.053538 156.362498 
L 141.805105 156.296275 
L 141.922538 155.865941 
L 144.365131 155.865941 
L 144.482564 155.73357 
L 144.787888 155.73357 
L 144.90532 151.573576 
L 146.525888 151.474756 
L 146.64332 151.343013 
L 147.089563 151.343013 
L 147.206995 151.145433 
L 148.498752 151.079583 
L 148.616184 150.947896 
L 153.38394 150.849143 
L 153.524858 150.816228 
L 155.85002 150.7504 
L 155.967452 150.651669 
L 156.037912 150.651669 
L 156.155344 149.993725 
L 158.057749 149.96084 
L 158.175181 149.599184 
L 158.38656 149.599184 
L 158.503992 149.467708 
L 160.101073 149.401976 
L 160.218505 148.744921 
L 165.364393 148.646403 
L 165.481825 148.547896 
L 166.139447 148.547896 
L 166.256879 146.874871 
L 166.750095 146.874871 
L 166.867527 146.088611 
L 170.695824 146.088611 
L 170.813256 145.662999 
L 176.543957 145.630268 
L 176.661389 145.36846 
L 179.103983 145.36846 
L 179.221416 145.237583 
L 182.016307 145.172152 
L 182.133739 144.975886 
L 186.455251 144.910473 
L 186.572684 144.093204 
L 196.345408 143.99518 
L 196.486327 143.962508 
L 197.214408 143.962508 
L 197.33184 143.668509 
L 200.056272 143.635848 
L 200.173704 143.407256 
L 201.371514 143.407256 
L 201.488947 143.015513 
L 204.636135 143.015513 
L 204.753567 142.852336 
L 211.705565 142.754444 
L 211.846484 142.689188 
L 212.504106 142.689188 
L 212.621538 142.460829 
L 214.265592 142.460829 
L 214.383024 142.134699 
L 219.176615 142.134699 
L 219.294047 141.710903 
L 222.088938 141.710903 
L 222.20637 127.384069 
L 236.27712 127.319888 
L 236.394553 127.223626 
L 239.917525 127.191541 
L 240.034957 127.063212 
L 247.127874 126.999054 
L 247.245306 126.710397 
L 251.966089 126.67833 
L 252.083521 126.325662 
L 253.539683 126.229504 
L 253.680602 126.197453 
L 256.076222 126.165403 
L 256.193655 125.909047 
L 256.311087 125.909047 
L 256.42852 124.404384 
L 256.898249 124.404384 
L 257.015682 124.180495 
L 260.374248 124.180495 
L 260.491681 123.317429 
L 260.515167 123.317429 
L 260.632599 122.58286 
L 261.994815 122.58286 
L 262.112248 122.455168 
L 263.570758 122.455168 
L 263.68819 122.327494 
L 275.126106 122.23175 
L 275.267025 122.199838 
L 277.051997 122.104107 
L 277.192916 122.072199 
L 289.055937 122.040292 
L 289.173369 121.816974 
L 289.90145 121.816974 
L 290.018883 121.56182 
L 304.416095 121.466155 
L 304.557013 121.434269 
L 307.986039 121.434269 
L 308.103472 120.733054 
L 309.066417 120.733054 
L 309.18385 120.446346 
L 311.039282 120.446346 
L 311.156714 120.318949 
L 323.419005 120.287103 
L 323.536438 120.159728 
L 331.052111 120.096047 
L 331.169543 119.554935 
L 337.111623 119.523115 
L 337.229055 119.236782 
L 346.907833 119.236782 
L 347.025266 119.109552 
L 352.192291 119.01414 
L 352.309724 118.855143 
L 362.267991 118.855143 
L 362.385423 118.696173 
L 362.855153 118.696173 
L 362.972585 118.346535 
L 363.465801 118.346535 
L 363.583234 118.124108 
L 364.968936 118.124108 
L 365.086368 117.965263 
L 365.156828 117.965263 
L 365.27426 117.266672 
L 381.458793 117.20319 
L 381.576226 116.505175 
L 387.168356 116.473459 
L 387.285789 116.283189 
L 397.94865 116.251481 
L 398.066083 116.124661 
L 402.716406 116.092958 
L 402.833838 115.5225 
L 404.313486 115.5225 
L 404.430919 114.952394 
L 422.236019 114.85741 
L 422.376938 114.825751 
L 422.423911 114.825751 
L 422.541343 114.509221 
L 433.723256 114.445928 
L 433.864175 114.382639 
L 435.155931 114.382639 
L 435.273364 114.256074 
L 435.414283 114.256074 
L 435.531715 113.212577 
L 438.678903 113.180974 
L 438.796336 112.865006 
L 447.744684 112.801825 
L 447.862117 112.643892 
L 450.847248 112.612309 
L 450.964681 105.439317 
L 454.628571 105.345306 
L 454.746004 105.188641 
L 455.661977 105.157311 
L 455.779409 105.063328 
L 464.305001 105.063328 
L 464.422433 104.374411 
L 470.904702 104.280508 
L 471.022134 104.124023 
L 487.136208 104.030145 
L 487.25364 103.811133 
L 487.465018 103.811133 
L 487.582451 103.06063 
L 487.793829 103.06063 
L 487.911262 102.498151 
L 490.870558 102.466912 
L 490.98799 101.155836 
L 498.106742 101.124642 
L 498.106742 101.124642 
" style="fill:none;stroke:#ff7f0e;stroke-linecap:square;stroke-width:1.5;"/>
   </g>
   <g id="line2d_19">
    <path clip-path="url(#p296e976bc6)" d="M 92.290909 400.7556 
L 92.525774 311.920131 
L 92.54926 311.724262 
L 92.878071 288.439788 
L 93.112936 282.348578 
L 93.253855 278.070704 
L 93.300828 277.806353 
L 93.465233 273.737337 
L 93.676611 271.184518 
L 93.81753 271.109541 
L 93.958449 270.772223 
L 94.146341 270.69728 
L 94.381206 264.49809 
L 94.710016 264.125969 
L 94.827449 262.824721 
L 94.897908 262.75042 
L 95.297178 252.957861 
L 95.320665 252.957861 
L 95.438097 252.186263 
L 95.461584 252.186263 
L 95.602503 251.855774 
L 95.978286 251.855774 
L 96.095719 251.525404 
L 96.189665 251.525404 
L 96.307097 251.195152 
L 96.75334 251.085095 
L 96.870773 250.425023 
L 97.176097 250.388366 
L 97.293529 250.278404 
L 97.810232 250.241753 
L 97.927664 249.802054 
L 98.608772 249.765421 
L 98.749691 249.618907 
L 98.867123 249.618907 
L 99.008042 249.435797 
L 99.430799 249.399179 
L 99.548231 246.912573 
L 100.393745 246.912573 
L 100.534663 246.729998 
L 101.051366 246.62047 
L 101.168798 241.378332 
L 101.75596 241.342032 
L 101.920366 240.58006 
L 102.930284 240.507524 
L 103.047717 240.434994 
L 103.634879 240.398731 
L 103.752311 240.108677 
L 104.081122 240.036178 
L 104.198554 239.92744 
L 105.1615 239.891197 
L 105.278932 239.239063 
L 106.549551 239.130419 
L 106.713956 239.057997 
L 108.334523 238.949373 
L 108.451956 238.876965 
L 108.592875 238.876965 
L 108.710307 238.695969 
L 109.273982 238.659774 
L 109.414901 238.442635 
L 110.471793 238.40645 
L 110.589225 237.755361 
L 110.636198 237.755361 
L 110.753631 237.249276 
L 110.941522 237.249276 
L 111.058955 227.256793 
L 111.364279 227.256793 
L 111.481711 227.042313 
L 111.669603 227.042313 
L 111.787036 202.285457 
L 111.880982 202.285457 
L 111.998414 193.867878 
L 112.56209 193.867878 
L 112.679522 193.729956 
L 115.169089 193.626528 
L 115.310008 193.592054 
L 115.82671 193.557582 
L 115.944143 192.214169 
L 117.870034 192.11091 
L 118.034439 192.042078 
L 118.433709 192.042078 
L 118.551142 191.560392 
L 119.467115 191.525995 
L 119.537574 191.388422 
L 119.655006 190.082496 
L 119.889871 190.082496 
L 120.007304 189.739137 
L 120.477033 189.636154 
L 120.594466 188.915596 
L 120.688411 188.915596 
L 120.805844 188.641245 
L 124.892491 188.57267 
L 125.127356 187.85294 
L 125.385707 187.85294 
L 125.50314 185.047914 
L 128.723136 184.945453 
L 128.864055 184.911301 
L 130.602054 184.843002 
L 130.742973 184.774708 
L 131.565 184.774708 
L 131.682432 184.365051 
L 132.527946 184.365051 
L 132.645378 184.023808 
L 133.185567 184.023808 
L 133.303 183.887346 
L 133.561351 183.887346 
L 133.678783 182.387592 
L 134.829621 182.387592 
L 134.947053 177.089793 
L 138.094241 177.022069 
L 138.258647 176.277434 
L 141.217943 176.175939 
L 141.335376 175.972983 
L 144.365131 175.905341 
L 144.482564 174.688628 
L 147.256317 174.688628 
L 147.373749 174.553537 
L 150.685343 174.519767 
L 150.802775 171.182644 
L 152.658207 171.148997 
L 152.77564 171.014421 
L 153.245369 170.98078 
L 153.503721 170.039333 
L 155.194747 169.972124 
L 155.31218 169.804121 
L 164.589339 169.703334 
L 164.706771 169.602559 
L 167.621443 169.602559 
L 167.738876 167.488797 
L 173.164253 167.421773 
L 173.281685 167.254233 
L 175.606846 167.220728 
L 175.724279 167.053225 
L 180.679926 166.952737 
L 180.820845 166.919244 
L 184.249871 166.852261 
L 184.367303 166.115765 
L 190.992839 166.01538 
L 191.133758 165.98192 
L 195.196919 165.98192 
L 195.314351 151.277149 
L 199.565404 151.211289 
L 199.706323 151.145433 
L 206.143967 151.046659 
L 206.261399 147.989884 
L 206.801588 147.989884 
L 206.919021 147.563397 
L 210.535939 147.563397 
L 210.653371 147.399416 
L 222.420097 147.301041 
L 222.53753 146.9732 
L 227.706904 146.9732 
L 227.824336 146.416138 
L 229.491876 146.416138 
L 229.609309 146.219608 
L 230.290417 146.219608 
L 230.407849 145.859411 
L 241.21163 145.7612 
L 241.352548 145.695732 
L 241.728332 145.695732 
L 241.845765 145.172152 
L 246.615869 145.074014 
L 246.756787 145.041303 
L 264.982295 145.008594 
L 265.099728 142.493448 
L 270.363048 142.493448 
L 270.48048 141.971678 
L 273.862533 141.971678 
L 273.979966 141.417619 
L 275.741452 141.417619 
L 275.858884 141.189573 
L 279.710667 141.189573 
L 279.828099 140.180333 
L 290.000093 140.147796 
L 290.117526 139.432253 
L 293.35866 139.432253 
L 293.476092 139.302214 
L 301.555441 139.302214 
L 301.672874 138.912206 
L 312.43203 138.81473 
L 312.549462 138.197619 
L 313.7003 138.197619 
L 313.817732 138.067753 
L 316.824002 138.002827 
L 316.941434 137.808077 
L 344.000207 137.743169 
L 344.117639 137.645816 
L 360.959794 137.548473 
L 361.077226 133.146322 
L 394.7357 133.114031 
L 394.853132 132.50071 
L 397.624537 132.50071 
L 397.741969 132.145816 
L 408.548099 132.145816 
L 408.665531 131.500902 
L 414.466692 131.500902 
L 414.584124 130.792016 
L 417.966177 130.695392 
L 418.083609 129.086473 
L 419.046555 129.086473 
L 419.163987 127.063212 
L 423.743851 127.063212 
L 423.861283 122.519012 
L 428.276741 122.423248 
L 428.41766 122.391329 
L 437.462304 122.295578 
L 437.603222 122.263664 
L 439.5526 122.263664 
L 439.693519 121.306736 
L 466.212103 121.211097 
L 466.353022 121.17922 
L 486.295392 121.17922 
L 486.412824 120.98798 
L 487.37577 120.98798 
L 487.493202 120.223413 
L 498.109091 120.159728 
L 498.109091 120.159728 
" style="fill:none;stroke:#2ca02c;stroke-linecap:square;stroke-width:1.5;"/>
   </g>
   <g id="patch_3">
    <path d="M 72 417.1608 
L 72 56.2464 
" style="fill:none;stroke:#000000;stroke-linecap:square;stroke-linejoin:miter;stroke-width:0.8;"/>
   </g>
   <g id="patch_4">
    <path d="M 518.4 417.1608 
L 518.4 56.2464 
" style="fill:none;stroke:#000000;stroke-linecap:square;stroke-linejoin:miter;stroke-width:0.8;"/>
   </g>
   <g id="patch_5">
    <path d="M 72 417.1608 
L 518.4 417.1608 
" style="fill:none;stroke:#000000;stroke-linecap:square;stroke-linejoin:miter;stroke-width:0.8;"/>
   </g>
   <g id="patch_6">
    <path d="M 72 56.2464 
L 518.4 56.2464 
" style="fill:none;stroke:#000000;stroke-linecap:square;stroke-linejoin:miter;stroke-width:0.8;"/>
   </g>
   <g id="text_19">
    <!-- Coverage Increase Over Time -->
    <defs>
     <path d="M 9.8125 72.90625 
L 19.671875 72.90625 
L 19.671875 0 
L 9.8125 0 
z
" id="DejaVuSans-73"/>
     <path d="M 39.40625 66.21875 
Q 28.65625 66.21875 22.328125 58.203125 
Q 16.015625 50.203125 16.015625 36.375 
Q 16.015625 22.609375 22.328125 14.59375 
Q 28.65625 6.59375 39.40625 6.59375 
Q 50.140625 6.59375 56.421875 14.59375 
Q 62.703125 22.609375 62.703125 36.375 
Q 62.703125 50.203125 56.421875 58.203125 
Q 50.140625 66.21875 39.40625 66.21875 
z
M 39.40625 74.21875 
Q 54.734375 74.21875 63.90625 63.9375 
Q 73.09375 53.65625 73.09375 36.375 
Q 73.09375 19.140625 63.90625 8.859375 
Q 54.734375 -1.421875 39.40625 -1.421875 
Q 24.03125 -1.421875 14.8125 8.828125 
Q 5.609375 19.09375 5.609375 36.375 
Q 5.609375 53.65625 14.8125 63.9375 
Q 24.03125 74.21875 39.40625 74.21875 
z
" id="DejaVuSans-79"/>
    </defs>
    <g transform="translate(205.910625 50.2464)scale(0.12 -0.12)">
     <use xlink:href="#DejaVuSans-67"/>
     <use x="69.824219" xlink:href="#DejaVuSans-111"/>
     <use x="131.005859" xlink:href="#DejaVuSans-118"/>
     <use x="190.185547" xlink:href="#DejaVuSans-101"/>
     <use x="251.708984" xlink:href="#DejaVuSans-114"/>
     <use x="292.822266" xlink:href="#DejaVuSans-97"/>
     <use x="354.101562" xlink:href="#DejaVuSans-103"/>
     <use x="417.578125" xlink:href="#DejaVuSans-101"/>
     <use x="479.101562" xlink:href="#DejaVuSans-32"/>
     <use x="510.888672" xlink:href="#DejaVuSans-73"/>
     <use x="540.380859" xlink:href="#DejaVuSans-110"/>
     <use x="603.759766" xlink:href="#DejaVuSans-99"/>
     <use x="658.740234" xlink:href="#DejaVuSans-114"/>
     <use x="699.822266" xlink:href="#DejaVuSans-101"/>
     <use x="761.345703" xlink:href="#DejaVuSans-97"/>
     <use x="822.625" xlink:href="#DejaVuSans-115"/>
     <use x="874.724609" xlink:href="#DejaVuSans-101"/>
     <use x="936.248047" xlink:href="#DejaVuSans-32"/>
     <use x="968.035156" xlink:href="#DejaVuSans-79"/>
     <use x="1046.746094" xlink:href="#DejaVuSans-118"/>
     <use x="1105.925781" xlink:href="#DejaVuSans-101"/>
     <use x="1167.449219" xlink:href="#DejaVuSans-114"/>
     <use x="1208.5625" xlink:href="#DejaVuSans-32"/>
     <use x="1240.349609" xlink:href="#DejaVuSans-84"/>
     <use x="1301.386719" xlink:href="#DejaVuSans-105"/>
     <use x="1329.169922" xlink:href="#DejaVuSans-109"/>
     <use x="1426.582031" xlink:href="#DejaVuSans-101"/>
    </g>
   </g>
   <g id="legend_1">
    <g id="patch_7">
     <path d="M 434.609375 412.1608 
L 511.4 412.1608 
Q 513.4 412.1608 513.4 410.1608 
L 513.4 367.126425 
Q 513.4 365.126425 511.4 365.126425 
L 434.609375 365.126425 
Q 432.609375 365.126425 432.609375 367.126425 
L 432.609375 410.1608 
Q 432.609375 412.1608 434.609375 412.1608 
z
" style="fill:#ffffff;opacity:0.8;stroke:#cccccc;stroke-linejoin:miter;"/>
    </g>
    <g id="line2d_20">
     <path d="M 436.609375 373.224862 
L 456.609375 373.224862 
" style="fill:none;stroke:#1f77b4;stroke-linecap:square;stroke-width:1.5;"/>
    </g>
    <g id="line2d_21"/>
    <g id="text_20">
     <!-- e-greedy -->
     <defs>
      <path d="M 4.890625 31.390625 
L 31.203125 31.390625 
L 31.203125 23.390625 
L 4.890625 23.390625 
z
" id="DejaVuSans-45"/>
      <path d="M 32.171875 -5.078125 
Q 28.375 -14.84375 24.75 -17.8125 
Q 21.140625 -20.796875 15.09375 -20.796875 
L 7.90625 -20.796875 
L 7.90625 -13.28125 
L 13.1875 -13.28125 
Q 16.890625 -13.28125 18.9375 -11.515625 
Q 21 -9.765625 23.484375 -3.21875 
L 25.09375 0.875 
L 2.984375 54.6875 
L 12.5 54.6875 
L 29.59375 11.921875 
L 46.6875 54.6875 
L 56.203125 54.6875 
z
" id="DejaVuSans-121"/>
     </defs>
     <g transform="translate(464.609375 376.724862)scale(0.1 -0.1)">
      <use xlink:href="#DejaVuSans-101"/>
      <use x="61.523438" xlink:href="#DejaVuSans-45"/>
      <use x="97.607422" xlink:href="#DejaVuSans-103"/>
      <use x="161.083984" xlink:href="#DejaVuSans-114"/>
      <use x="202.166016" xlink:href="#DejaVuSans-101"/>
      <use x="263.689453" xlink:href="#DejaVuSans-101"/>
      <use x="325.212891" xlink:href="#DejaVuSans-100"/>
      <use x="388.689453" xlink:href="#DejaVuSans-121"/>
     </g>
    </g>
    <g id="line2d_22">
     <path d="M 436.609375 387.902987 
L 456.609375 387.902987 
" style="fill:none;stroke:#ff7f0e;stroke-linecap:square;stroke-width:1.5;"/>
    </g>
    <g id="line2d_23"/>
    <g id="text_21">
     <!-- ucb -->
     <defs>
      <path d="M 8.5 21.578125 
L 8.5 54.6875 
L 17.484375 54.6875 
L 17.484375 21.921875 
Q 17.484375 14.15625 20.5 10.265625 
Q 23.53125 6.390625 29.59375 6.390625 
Q 36.859375 6.390625 41.078125 11.03125 
Q 45.3125 15.671875 45.3125 23.6875 
L 45.3125 54.6875 
L 54.296875 54.6875 
L 54.296875 0 
L 45.3125 0 
L 45.3125 8.40625 
Q 42.046875 3.421875 37.71875 1 
Q 33.40625 -1.421875 27.6875 -1.421875 
Q 18.265625 -1.421875 13.375 4.4375 
Q 8.5 10.296875 8.5 21.578125 
z
M 31.109375 56 
z
" id="DejaVuSans-117"/>
      <path d="M 48.6875 27.296875 
Q 48.6875 37.203125 44.609375 42.84375 
Q 40.53125 48.484375 33.40625 48.484375 
Q 26.265625 48.484375 22.1875 42.84375 
Q 18.109375 37.203125 18.109375 27.296875 
Q 18.109375 17.390625 22.1875 11.75 
Q 26.265625 6.109375 33.40625 6.109375 
Q 40.53125 6.109375 44.609375 11.75 
Q 48.6875 17.390625 48.6875 27.296875 
z
M 18.109375 46.390625 
Q 20.953125 51.265625 25.265625 53.625 
Q 29.59375 56 35.59375 56 
Q 45.5625 56 51.78125 48.09375 
Q 58.015625 40.1875 58.015625 27.296875 
Q 58.015625 14.40625 51.78125 6.484375 
Q 45.5625 -1.421875 35.59375 -1.421875 
Q 29.59375 -1.421875 25.265625 0.953125 
Q 20.953125 3.328125 18.109375 8.203125 
L 18.109375 0 
L 9.078125 0 
L 9.078125 75.984375 
L 18.109375 75.984375 
z
" id="DejaVuSans-98"/>
     </defs>
     <g transform="translate(464.609375 391.402987)scale(0.1 -0.1)">
      <use xlink:href="#DejaVuSans-117"/>
      <use x="63.378906" xlink:href="#DejaVuSans-99"/>
      <use x="118.359375" xlink:href="#DejaVuSans-98"/>
     </g>
    </g>
    <g id="line2d_24">
     <path d="M 436.609375 402.581112 
L 456.609375 402.581112 
" style="fill:none;stroke:#2ca02c;stroke-linecap:square;stroke-width:1.5;"/>
    </g>
    <g id="line2d_25"/>
    <g id="text_22">
     <!-- random -->
     <g transform="translate(464.609375 406.081112)scale(0.1 -0.1)">
      <use xlink:href="#DejaVuSans-114"/>
      <use x="41.113281" xlink:href="#DejaVuSans-97"/>
      <use x="102.392578" xlink:href="#DejaVuSans-110"/>
      <use x="165.771484" xlink:href="#DejaVuSans-100"/>
      <use x="229.248047" xlink:href="#DejaVuSans-111"/>
      <use x="290.429688" xlink:href="#DejaVuSans-109"/>
     </g>
    </g>
   </g>
  </g>
 </g>
 <defs>
  <clipPath id="p296e976bc6">
   <rect height="360.9144" width="446.4" x="72" y="56.2464"/>
  </clipPath>
 </defs>
</svg>
